SplineFontDB: 3.0
FontName: Monda-Bold
FullName: Monda Bold
FamilyName: Monda
Weight: Bold
Copyright: Copyright (c) 2012 by vernon adams. All rights reserved.
Version: 1
ItalicAngle: 0
UnderlinePosition: 0
UnderlineWidth: 0
Ascent: 1638
Descent: 410
sfntRevision: 0x00010000
LayerCount: 2
Layer: 0 0 "Back"  1
Layer: 1 0 "Fore"  0
XUID: [1021 14 500265001 1105341]
FSType: 0
OS2Version: 0
OS2_WeightWidthSlopeOnly: 0
OS2_UseTypoMetrics: 1
CreationTime: 1353086409
ModificationTime: 1353116584
PfmFamily: 33
TTFWeight: 700
TTFWidth: 5
LineGap: 0
VLineGap: 0
OS2TypoAscent: 1946
OS2TypoAOffset: 0
OS2TypoDescent: -695
OS2TypoDOffset: 0
OS2TypoLinegap: 0
OS2WinAscent: 1946
OS2WinAOffset: 0
OS2WinDescent: 695
OS2WinDOffset: 0
HheadAscent: 1946
HheadAOffset: 0
HheadDescent: -695
HheadDOffset: 0
OS2Vendor: 'newt'
Lookup: 258 0 0 "'kern' Horizontal Kerning lookup 0"  {"'kern' Horizontal Kerning lookup 0 subtable"  } ['kern' ('DFLT' <'dflt' > ) ]
MarkAttachClasses: 1
DEI: 91125
LangName: 1033 "" "Monda Bold" "" "1.000;newt;Monda-Bold" "Monda-Bold" "Version 1.000;PS (version unavailable);hotconv 1.0.57;makeotf.lib2.0.21895 DEVELOPMENT" "" "Monda is a trademark of vernon adams." "vernon adams" "vernon adams" "Copyright (c) 2012 by vernon adams. All rights reserved." "newtypography.co.uk" "newtypography.co.uk" "" "http://scripts.sil.org/OFL" "" "Monda" 
Encoding: Google-webfonts-latin
Compacted: 1
UnicodeInterp: none
NameList: Adobe Glyph List
DisplaySize: -48
AntiAlias: 1
FitToEm: 1
WinInfo: 0 21 11
BeginPrivate: 5
BlueValues 27 [-29 0 1080 1104 1489 1518]
OtherBlues 11 [-307 -257]
BlueScale 6 0.0198
BlueShift 1 0
ForceBold 4 true
EndPrivate
BeginChars: 65536 430

StartChar: Eth
Encoding: 141 208 0
Width: 1215
Flags: W
LayerCount: 2
Fore
SplineSet
80 0 m 1
 80 686 l 1
 4 686 l 1
 4 837 l 1
 80 837 l 1
 80 1490 l 1
 399 1490 l 2
 1049 1490 1145 1345 1145 1007 c 2
 1145 519 l 2
 1145 171 1076 0 393 0 c 2
 80 0 l 1
381 211 m 1
 404 211 l 1
 672 212 746 221 746 353 c 2
 746 1155 l 2
 746 1260 630 1277 398 1278 c 1
 381 1278 l 1
 381 837 l 1
 566 837 l 1
 566 686 l 1
 381 686 l 1
 381 211 l 1
EndSplineSet
EndChar

StartChar: eth
Encoding: 173 240 1
Width: 903
Flags: W
LayerCount: 2
Fore
SplineSet
72 282 m 2
 72 738 l 2
 72 903 193 998 314 998 c 0
 379 998 470 982 544 950 c 1
 544 1020 541 1078 526 1125 c 1
 320 1061 l 1
 266 1177 l 1
 430 1242 l 1
 357 1282 287 1299 179 1299 c 1
 218 1518 l 1
 486 1518 641 1461 719 1364 c 1
 837 1424 l 1
 892 1308 l 1
 781 1252 l 1
 810 1173 822 1082 822 983 c 2
 822 282 l 2
 822 97 662 -24 440 -24 c 0
 224 -24 72 97 72 282 c 2
543 281 m 2
 543 723 l 2
 543 760 495 780 446 780 c 0
 397 780 349 760 349 718 c 2
 349 281 l 2
 349 245 355 195 440 195 c 0
 529 195 543 243 543 281 c 2
EndSplineSet
EndChar

StartChar: Lslash
Encoding: 254 321 2
Width: 781
Flags: W
LayerCount: 2
Fore
SplineSet
80 0 m 1
 80 734 l 1
 12 708 l 1
 12 860 l 1
 80 885 l 1
 80 1490 l 1
 381 1490 l 1
 381 999 l 1
 668 1080 l 1
 668 928 l 1
 381 847 l 1
 381 207 l 1
 752 207 l 1
 752 0 l 1
 80 0 l 1
EndSplineSet
EndChar

StartChar: lslash
Encoding: 255 322 3
Width: 520
Flags: W
LayerCount: 2
Fore
SplineSet
135 0 m 1
 135 765 l 1
 -15 708 l 1
 -15 860 l 1
 135 916 l 1
 135 1490 l 1
 414 1490 l 1
 414 1022 l 1
 568 1080 l 1
 568 928 l 1
 414 871 l 1
 414 0 l 1
 135 0 l 1
EndSplineSet
EndChar

StartChar: Scaron
Encoding: 282 352 4
Width: 1218
Flags: W
LayerCount: 2
Fore
SplineSet
419 1556 m 1
 252 1892 l 1
 498 1892 l 1
 606 1726 l 1
 718 1892 l 1
 965 1892 l 1
 795 1556 l 1
 419 1556 l 1
607 -31 m 0
 981 -31 1111 113 1123 326 c 0
 1124 345 1125 363 1125 380 c 0
 1125 514 1087 602 952 700 c 0
 950 701 504 1038 504 1039 c 0
 466 1067 453 1098 453 1134 c 0
 453 1197 496 1235 583 1235 c 0
 725 1235 738 1133 738 1063 c 2
 738 978 l 1
 1077 1021 l 1
 1077 1082 l 2
 1077 1293 979 1520 625 1520 c 0
 200 1520 96 1383 96 1139 c 0
 96 978 135 888 247 805 c 0
 248 804 687 472 688 472 c 0
 748 428 775 384 775 343 c 0
 775 280 719 255 616 255 c 0
 471 255 439 327 439 445 c 2
 439 454 l 2
 439 487 440 511 440 551 c 1
 89 492 l 1
 89 430 l 2
 89 208 160 -31 607 -31 c 0
EndSplineSet
EndChar

StartChar: scaron
Encoding: 283 353 5
Width: 963
Flags: W
LayerCount: 2
Fore
SplineSet
31 261 m 1
 265 337 l 1
 298 282 356 180 481 180 c 0
 555 180 575 207 575 242 c 0
 575 318 433 384 277 458 c 1
 206 496 l 1
 109 580 17 679 17 813 c 0
 17 1007 188 1104 482 1104 c 0
 752 1104 877 955 919 802 c 1
 718 733 l 1
 679 793 604 898 468 898 c 0
 394 898 357 862 357 830 c 0
 357 775 497 706 628 645 c 1
 718 599 l 1
 813 513 913 405 945 277 c 1
 945 99 801 -24 503 -24 c 0
 203 -24 77 96 31 261 c 1
231 1134 m 1
 64 1470 l 1
 310 1470 l 1
 418 1304 l 1
 530 1470 l 1
 777 1470 l 1
 607 1134 l 1
 231 1134 l 1
EndSplineSet
EndChar

StartChar: Yacute
Encoding: 154 221 6
Width: 1204
Flags: W
LayerCount: 2
Fore
SplineSet
404 1563 m 1
 516 1928 l 1
 802 1928 l 1
 572 1563 l 1
 404 1563 l 1
340 0 m 1
 340 492 l 1
 -1 1490 l 1
 347 1490 l 1
 598 835 l 1
 689 1050 782 1275 873 1490 c 1
 1206 1490 l 1
 668 492 l 1
 668 0 l 1
 340 0 l 1
EndSplineSet
EndChar

StartChar: yacute
Encoding: 186 253 7
Width: 954
Flags: W
LayerCount: 2
Fore
SplineSet
228 97 m 0
 228 340 43 947 15 1080 c 1
 309 1080 l 1
 490 477 l 1
 648 1080 l 1
 945 1080 l 1
 683 -29 l 1
 609 -223 338 -257 108 -257 c 2
 72 -257 l 1
 72 -65 l 1
 184 -63 228 -14 228 97 c 0
262 1153 m 1
 374 1518 l 1
 660 1518 l 1
 430 1153 l 1
 262 1153 l 1
EndSplineSet
EndChar

StartChar: Thorn
Encoding: 155 222 8
Width: 949
Flags: W
LayerCount: 2
Fore
SplineSet
80 0 m 1
 80 1490 l 1
 401 1490 l 1
 401 1294 l 1
 478 1294 l 2
 815 1294 918 1135 918 872 c 0
 918 535 760 446 393 442 c 1
 393 0 l 1
 80 0 l 1
402 655 m 1
 636 655 633 727 633 878 c 0
 633 996 631 1080 402 1080 c 1
 402 655 l 1
EndSplineSet
EndChar

StartChar: thorn
Encoding: 187 254 9
Width: 903
Flags: W
LayerCount: 2
Fore
SplineSet
556 257 m 2
 556 825 l 2
 556 857 550 896 487 896 c 0
 435 896 386 853 361 832 c 1
 361 246 l 1
 385 225 433 179 487 179 c 0
 551 179 556 222 556 257 c 2
82 -307 m 1
 82 1490 l 1
 361 1490 l 1
 361 1007 l 1
 434 1062 544 1105 619 1105 c 0
 744 1105 833 990 833 870 c 2
 833 207 l 2
 833 87 744 -24 619 -24 c 0
 546 -24 434 16 361 81 c 1
 361 -307 l 1
 82 -307 l 1
EndSplineSet
EndChar

StartChar: Zcaron
Encoding: 307 381 10
Width: 1050
Flags: W
LayerCount: 2
Fore
SplineSet
336 1556 m 1
 169 1892 l 1
 415 1892 l 1
 523 1726 l 1
 635 1892 l 1
 882 1892 l 1
 712 1556 l 1
 336 1556 l 1
66 0 m 1
 66 189 l 1
 611 1282 l 1
 112 1282 l 1
 112 1489 l 1
 979 1489 l 1
 979 1299 l 1
 431 207 l 1
 979 207 l 1
 979 0 l 1
 66 0 l 1
EndSplineSet
EndChar

StartChar: zcaron
Encoding: 308 382 11
Width: 815
Flags: W
LayerCount: 2
Fore
SplineSet
47 0 m 1
 47 189 l 1
 419 879 l 1
 94 879 l 1
 94 1080 l 1
 775 1080 l 1
 775 895 l 1
 398 202 l 1
 775 202 l 1
 775 0 l 1
 47 0 l 1
256 1146 m 1
 89 1482 l 1
 335 1482 l 1
 443 1316 l 1
 555 1482 l 1
 802 1482 l 1
 632 1146 l 1
 256 1146 l 1
EndSplineSet
EndChar

StartChar: onehalf
Encoding: 122 189 12
Width: 1896
Flags: W
LayerCount: 2
Fore
SplineSet
164 536 m 1
 164 1019 l 1
 57 1019 l 1
 57 1145 l 1
 140 1186 218 1238 277 1310 c 1
 348 1310 l 1
 348 536 l 1
 164 536 l 1
353 0 m 1
 1212 1518 l 1
 1406 1518 l 1
 619 0 l 1
 353 0 l 1
1832 535 m 0
 1832 408 1636 206 1517 119 c 1
 1832 119 l 1
 1832 -12 l 1
 1312 -12 l 1
 1312 110 l 1
 1348 157 1647 409 1647 535 c 0
 1647 566 1652 631 1573 631 c 0
 1491 631 1497 555 1497 524 c 1
 1312 524 l 1
 1312 667 1391 761 1573 761 c 0
 1748 761 1832 676 1832 535 c 0
EndSplineSet
EndChar

StartChar: onequarter
Encoding: 121 188 13
Width: 1957
Flags: W
LayerCount: 2
Fore
SplineSet
164 536 m 1
 164 1019 l 1
 57 1019 l 1
 57 1145 l 1
 140 1186 218 1238 277 1310 c 1
 348 1310 l 1
 348 536 l 1
 164 536 l 1
351 0 m 1
 1212 1518 l 1
 1480 1518 l 1
 499 0 l 1
 351 0 l 1
1056 202 m 1
 1056 324 l 1
 1620 815 l 1
 1782 815 l 1
 1782 333 l 1
 1889 333 l 1
 1889 202 l 1
 1782 202 l 1
 1782 -12 l 1
 1598 -12 l 1
 1598 202 l 1
 1056 202 l 1
1442 333 m 1
 1598 333 l 1
 1598 485 l 1
 1442 333 l 1
EndSplineSet
EndChar

StartChar: threequarters
Encoding: 123 190 14
Width: 1982
Flags: W
LayerCount: 2
Fore
SplineSet
113 774 m 1
 296 774 l 1
 296 742 291 667 338 667 c 0
 384 667 381 731 381 762 c 0
 381 840 352 858 273 858 c 1
 273 989 l 1
 352 989 381 1007 381 1084 c 0
 381 1116 384 1180 338 1180 c 0
 291 1180 296 1103 296 1072 c 1
 113 1072 l 1
 113 1214 190 1310 338 1310 c 0
 480 1310 565 1226 565 1084 c 0
 565 1005 528 952 456 923 c 1
 527 894 565 841 565 762 c 0
 565 621 481 536 338 536 c 0
 190 536 113 631 113 774 c 1
1085 202 m 1
 1085 324 l 1
 1590 815 l 1
 1751 815 l 1
 1751 333 l 1
 1859 333 l 1
 1859 202 l 1
 1751 202 l 1
 1751 -12 l 1
 1568 -12 l 1
 1568 202 l 1
 1085 202 l 1
1429 333 m 1
 1568 333 l 1
 1568 485 l 1
 1429 333 l 1
486 0 m 1
 1227 1518 l 1
 1495 1518 l 1
 634 0 l 1
 486 0 l 1
EndSplineSet
EndChar

StartChar: brokenbar
Encoding: 101 166 15
Width: 364
Flags: W
LayerCount: 2
Fore
SplineSet
81 -12 m 1
 81 538 l 1
 275 538 l 1
 275 -12 l 1
 81 -12 l 1
81 745 m 1
 81 1295 l 1
 275 1295 l 1
 275 745 l 1
 81 745 l 1
EndSplineSet
EndChar

StartChar: minus
Encoding: 405 8722 16
Width: 740
Flags: W
LayerCount: 2
Fore
SplineSet
113 439 m 1
 113 624 l 1
 618 624 l 1
 618 439 l 1
 113 439 l 1
EndSplineSet
EndChar

StartChar: multiply
Encoding: 148 215 17
Width: 815
Flags: W
LayerCount: 2
Fore
SplineSet
54 387 m 1
 214 548 l 1
 54 708 l 1
 178 833 l 1
 403 672 l 1
 630 833 l 1
 753 708 l 1
 593 548 l 1
 646 494 699 439 753 387 c 1
 630 263 l 1
 403 425 l 1
 178 263 l 1
 54 387 l 1
EndSplineSet
EndChar

StartChar: exclam
Encoding: 1 33 19
Width: 553
Flags: W
LayerCount: 2
Fore
SplineSet
138 0 m 1
 138 262 l 1
 407 262 l 1
 407 0 l 1
 138 0 l 1
143 1490 m 1
 233 371 l 1
 316 371 l 1
 425 1490 l 1
 143 1490 l 1
EndSplineSet
EndChar

StartChar: quotedbl
Encoding: 2 34 20
Width: 704
Flags: W
LayerCount: 2
Fore
SplineSet
606 1446 m 1
 401 1446 l 1
 465 870 l 1
 537 870 l 1
 606 1446 l 1
303 1446 m 1
 98 1446 l 1
 162 870 l 1
 234 870 l 1
 303 1446 l 1
EndSplineSet
EndChar

StartChar: numbersign
Encoding: 3 35 21
Width: 1509
Flags: W
LayerCount: 2
Fore
SplineSet
52 490 m 1
 1394 490 l 1
 1394 639 l 1
 52 639 l 1
 52 490 l 1
95 931 m 1
 1437 931 l 1
 1437 1080 l 1
 95 1080 l 1
 95 931 l 1
923 -1 m 1
 1179 1446 l 1
 969 1446 l 1
 705 -1 l 1
 923 -1 l 1
469 -1 m 1
 725 1446 l 1
 515 1446 l 1
 251 -1 l 1
 469 -1 l 1
EndSplineSet
EndChar

StartChar: dollar
Encoding: 4 36 22
Width: 1109
Flags: W
LayerCount: 2
Fore
SplineSet
489 -83 m 1
 489 59 l 1
 181 81 77 256 77 470 c 1
 381 527 l 1
 381 487 l 2
 381 413 395 289 543 289 c 0
 700 289 740 340 740 391 c 0
 740 491 585 544 429 613 c 1
 312 687 l 1
 196 779 78 877 78 1065 c 0
 78 1283 224 1415 489 1435 c 1
 489 1598 l 1
 632 1598 l 1
 632 1437 l 1
 880 1427 1036 1284 1036 1093 c 2
 1036 1055 l 1
 717 1014 l 1
 718 1029 721 1051 721 1075 c 0
 721 1135 697 1209 554 1209 c 0
 423 1209 374 1151 374 1101 c 0
 374 1014 473 962 600 909 c 1
 764 832 l 1
 933 705 1038 610 1038 396 c 0
 1038 200 875 68 568 58 c 1
 568 -83 l 1
 489 -83 l 1
EndSplineSet
EndChar

StartChar: percent
Encoding: 5 37 23
Width: 1930
Flags: W
LayerCount: 2
Fore
SplineSet
1360 343 m 2
 1360 438 l 2
 1360 574 1372 668 1515 668 c 0
 1659 668 1672 574 1672 436 c 2
 1672 343 l 2
 1672 202 1653 97 1515 97 c 0
 1377 97 1360 202 1360 343 c 2
1217 360 m 2
 1217 132 1285 -19 1515 -19 c 0
 1745 -19 1817 131 1817 360 c 2
 1817 414 l 1
 1815 647 1745 784 1515 784 c 0
 1284 784 1217 646 1217 413 c 2
 1217 360 l 2
1152 1446 m 1
 609 0 l 1
 763 0 l 1
 1301 1446 l 1
 1152 1446 l 1
113 1037 m 2
 113 809 181 658 411 658 c 0
 641 658 713 808 713 1037 c 2
 713 1091 l 1
 711 1324 641 1461 411 1461 c 0
 180 1461 113 1323 113 1090 c 2
 113 1037 l 2
256 1020 m 2
 256 1115 l 2
 256 1251 268 1345 411 1345 c 0
 555 1345 568 1251 568 1113 c 2
 568 1020 l 2
 568 879 549 774 411 774 c 0
 273 774 256 879 256 1020 c 2
EndSplineSet
EndChar

StartChar: ampersand
Encoding: 6 38 24
Width: 1295
Flags: W
LayerCount: 2
Fore
SplineSet
1242 217 m 1
 1242 -19 l 1
 1225 -22 1209 -24 1192 -24 c 0
 1106 -24 1025 44 934 100 c 1
 804 19 623 -25 429 -25 c 0
 170 -25 55 128 55 322 c 0
 55 490 132 627 243 750 c 1
 193 860 111 1063 111 1187 c 0
 111 1370 220 1518 495 1518 c 0
 841 1518 1048 1396 1048 1201 c 0
 1048 1007 901 859 666 725 c 1
 944 467 l 1
 998 545 1005 640 1005 723 c 1
 1234 723 l 1
 1234 514 1197 410 1110 283 c 1
 1142 246 1193 221 1242 217 c 1
505 914 m 1
 599 989 672 1095 672 1188 c 0
 672 1239 642 1310 527 1310 c 0
 414 1310 399 1233 399 1186 c 0
 399 1100 447 993 505 914 c 1
652 259 m 1
 557 344 461 431 381 520 c 1
 342 499 313 420 313 343 c 0
 313 262 347 183 441 183 c 0
 532 183 600 222 652 259 c 1
EndSplineSet
EndChar

StartChar: quotesingle
Encoding: 7 39 25
Width: 401
Flags: W
LayerCount: 2
Fore
SplineSet
303 1446 m 1
 98 1446 l 1
 162 870 l 1
 234 870 l 1
 303 1446 l 1
EndSplineSet
EndChar

StartChar: parenleft
Encoding: 8 40 26
Width: 575
Flags: W
LayerCount: 2
Fore
SplineSet
527 131 m 1
 527 -53 l 1
 117 -55 129 470 129 762 c 0
 129 1055 117 1580 527 1578 c 1
 527 1394 l 1
 328 1397 367 876 367 762 c 0
 367 649 328 128 527 131 c 1
EndSplineSet
EndChar

StartChar: parenright
Encoding: 9 41 27
Width: 575
Flags: W
LayerCount: 2
Fore
SplineSet
91 -53 m 1
 91 131 l 1
 289 128 252 649 252 762 c 0
 252 875 289 1397 91 1394 c 1
 91 1578 l 1
 501 1580 490 1054 490 762 c 0
 490 471 501 -55 91 -53 c 1
EndSplineSet
EndChar

StartChar: asterisk
Encoding: 10 42 28
Width: 990
Flags: W
LayerCount: 2
Fore
SplineSet
827 1295 m 1
 471 1068 l 1
 518 977 l 1
 908 1134 l 1
 827 1295 l 1
162 750 m 1
 518 977 l 1
 471 1068 l 1
 82 911 l 1
 162 750 l 1
897 875 m 1
 521 1066 l 1
 468 979 l 1
 802 722 l 1
 897 875 l 1
92 1170 m 1
 468 979 l 1
 521 1066 l 1
 187 1323 l 1
 92 1170 l 1
584 599 m 1
 545 1023 l 1
 444 1023 l 1
 406 599 l 1
 584 599 l 1
406 1446 m 1
 444 1023 l 1
 545 1023 l 1
 584 1446 l 1
 406 1446 l 1
EndSplineSet
EndChar

StartChar: plus
Encoding: 11 43 29
Width: 942
Flags: W
LayerCount: 2
Fore
SplineSet
547 968 m 1
 396 968 l 1
 396 642 l 1
 120 642 l 1
 120 494 l 1
 396 494 l 1
 396 156 l 1
 547 156 l 1
 547 494 l 1
 822 494 l 1
 822 642 l 1
 547 642 l 1
 547 968 l 1
EndSplineSet
EndChar

StartChar: comma
Encoding: 12 44 30
Width: 412
Flags: W
LayerCount: 2
Fore
SplineSet
77 232 m 1
 351 232 l 1
 351 50 l 2
 351 -141 245 -284 187 -338 c 1
 81 -294 l 1
 128 -239 195 -132 195 0 c 1
 77 0 l 1
 77 232 l 1
EndSplineSet
EndChar

StartChar: hyphen
Encoding: 13 45 31
Width: 942
Flags: W
LayerCount: 2
Fore
SplineSet
822 642 m 1
 120 642 l 1
 120 494 l 1
 822 494 l 1
 822 642 l 1
EndSplineSet
EndChar

StartChar: period
Encoding: 14 46 32
Width: 431
Flags: W
LayerCount: 2
Fore
SplineSet
82 0 m 1
 82 262 l 1
 351 262 l 1
 351 0 l 1
 82 0 l 1
EndSplineSet
EndChar

StartChar: slash
Encoding: 15 47 33
Width: 916
Flags: W
LayerCount: 2
Fore
SplineSet
75 0 m 1
 729 1518 l 1
 877 1518 l 1
 223 0 l 1
 75 0 l 1
EndSplineSet
EndChar

StartChar: zero
Encoding: 16 48 34
Width: 1118
Flags: W
LayerCount: 2
Fore
SplineSet
70 437 m 2
 70 1050 l 2
 70 1308 188 1518 560 1518 c 0
 931 1518 1049 1307 1049 1050 c 2
 1049 437 l 2
 1049 188 921 -29 560 -29 c 0
 196 -29 70 185 70 437 c 2
761 437 m 2
 761 1050 l 2
 761 1125 748 1264 560 1264 c 0
 369 1264 360 1125 360 1050 c 2
 360 437 l 2
 360 365 383 223 560 223 c 0
 739 223 761 364 761 437 c 2
EndSplineSet
EndChar

StartChar: one
Encoding: 17 49 35
Width: 1102
Flags: W
LayerCount: 2
Fore
SplineSet
1044 0 m 1
 1044 233 l 1
 136 233 l 1
 136 0 l 1
 1044 0 l 1
786 0 m 1
 786 1490 l 1
 564 1490 l 1
 106 1408 l 1
 135 1183 l 1
 447 1225 l 1
 447 0 l 1
 786 0 l 1
EndSplineSet
EndChar

StartChar: two
Encoding: 18 50 36
Width: 1191
Flags: W
LayerCount: 2
Fore
SplineSet
1142 1108 m 0
 1142 894 1022 714 843 554 c 2
 543 286 l 1
 1151 286 l 1
 1151 0 l 1
 83 0 l 1
 83 256 l 1
 590 774 l 2
 699 885 779 971 779 1093 c 0
 779 1213 735 1267 593 1267 c 0
 422 1267 402 1179 402 1034 c 2
 402 962 l 1
 50 962 l 1
 50 1056 l 2
 50 1359 148 1518 593 1518 c 0
 1002 1518 1142 1357 1142 1108 c 0
EndSplineSet
EndChar

StartChar: three
Encoding: 19 51 37
Width: 1083
Flags: W
LayerCount: 2
Fore
SplineSet
60 482 m 1
 348 482 l 1
 348 399 339 224 549 224 c 0
 750 224 748 360 748 439 c 0
 748 573 632 656 380 653 c 1
 380 943 l 1
 605 940 748 965 748 1106 c 0
 748 1183 723 1267 549 1267 c 0
 340 1267 348 1095 348 1012 c 1
 59 1012 l 1
 59 1106 l 2
 59 1360 201 1519 549 1519 c 0
 895 1519 1038 1358 1038 1106 c 0
 1038 989 990 860 887 795 c 1
 999 713 1038 571 1038 439 c 0
 1038 172 931 -29 549 -29 c 0
 148 -29 64 169 60 431 c 1
 60 482 l 1
EndSplineSet
EndChar

StartChar: four
Encoding: 20 52 38
Width: 1425
Flags: W
LayerCount: 2
Fore
SplineSet
93 313 m 1
 93 585 l 1
 701 1490 l 1
 1127 1490 l 1
 1127 593 l 1
 1373 593 l 1
 1373 313 l 1
 1127 313 l 1
 1127 0 l 1
 759 0 l 1
 759 313 l 1
 93 313 l 1
402 593 m 1
 759 593 l 1
 759 1156 l 1
 402 593 l 1
EndSplineSet
EndChar

StartChar: five
Encoding: 21 53 39
Width: 1099
Flags: W
LayerCount: 2
Fore
SplineSet
79 473 m 1
 365 473 l 1
 363 332 371 215 532 215 c 0
 777 215 764 436 764 534 c 0
 764 611 755 751 563 751 c 0
 454 751 380 684 354 635 c 1
 110 635 l 1
 110 1490 l 1
 997 1490 l 1
 997 1207 l 1
 389 1207 l 1
 389 938 l 1
 474 967 551 987 649 987 c 0
 975 987 1045 763 1045 530 c 0
 1045 256 981 -29 556 -29 c 0
 157 -29 79 201 79 473 c 1
EndSplineSet
EndChar

StartChar: six
Encoding: 22 54 40
Width: 1316
Flags: W
LayerCount: 2
Fore
SplineSet
662 -24 m 0
 245 -24 100 168 100 490 c 0
 100 745 234 948 343 1113 c 2
 592 1489 l 1
 989 1489 l 1
 582 895 l 1
 625 909 689 912 713 912 c 0
 1047 912 1222 797 1222 456 c 0
 1222 124 1060 -24 662 -24 c 0
663 215 m 0
 839 215 894 292 894 465 c 0
 894 625 840 685 663 685 c 0
 500 685 440 635 440 467 c 0
 440 290 495 215 663 215 c 0
EndSplineSet
EndChar

StartChar: seven
Encoding: 23 55 41
Width: 1089
Flags: W
LayerCount: 2
Fore
SplineSet
218 0 m 1
 625 1224 l 1
 72 1224 l 1
 72 1489 l 1
 1004 1489 l 1
 1004 1262 l 1
 577 0 l 1
 218 0 l 1
EndSplineSet
EndChar

StartChar: eight
Encoding: 24 56 42
Width: 1091
Flags: W
LayerCount: 2
Fore
SplineSet
546 889 m 0
 714 889 714 1055 714 1131 c 0
 714 1186 698 1292 546 1292 c 0
 396 1292 375 1188 375 1131 c 0
 375 1054 378 889 546 889 c 0
177 788 m 1
 95 872 68 992 68 1106 c 0
 68 1353 193 1519 546 1519 c 0
 900 1519 1021 1351 1021 1106 c 0
 1021 992 996 872 913 788 c 1
 1023 699 1042 572 1042 437 c 0
 1042 164 941 -26 546 -26 c 0
 152 -26 50 165 50 437 c 0
 50 571 66 699 177 788 c 1
546 208 m 0
 760 208 761 341 761 420 c 0
 761 511 741 665 546 665 c 0
 352 665 330 511 330 420 c 0
 330 340 333 208 546 208 c 0
EndSplineSet
EndChar

StartChar: nine
Encoding: 25 57 43
Width: 1307
Flags: W
LayerCount: 2
Fore
SplineSet
794 0 m 1
 421 0 l 1
 727 582 l 1
 694 575 603 570 587 570 c 0
 265 570 94 682 94 1053 c 0
 94 1405 261 1527 659 1527 c 0
 1064 1527 1207 1386 1207 1043 c 2
 1207 1019 l 2
 1207 710 1072 517 978 342 c 2
 794 0 l 1
658 815 m 0
 831 815 867 879 867 1057 c 0
 867 1234 832 1291 654 1291 c 0
 465 1291 422 1226 422 1053 c 0
 422 883 461 815 658 815 c 0
EndSplineSet
EndChar

StartChar: colon
Encoding: 26 58 44
Width: 428
Flags: W
LayerCount: 2
Fore
SplineSet
82 742 m 1
 82 1004 l 1
 348 1004 l 1
 348 742 l 1
 82 742 l 1
82 125 m 1
 82 386 l 1
 348 386 l 1
 348 125 l 1
 82 125 l 1
EndSplineSet
EndChar

StartChar: semicolon
Encoding: 27 59 45
Width: 422
Flags: W
LayerCount: 2
Fore
SplineSet
72 742 m 1
 72 1004 l 1
 338 1004 l 1
 338 742 l 1
 72 742 l 1
127 -79 m 1
 94 59 l 1
 154 59 160 52 161 122 c 1
 70 122 l 1
 70 386 l 1
 338 386 l 1
 338 103 361 -114 127 -79 c 1
EndSplineSet
EndChar

StartChar: less
Encoding: 28 60 46
Width: 837
Flags: W
LayerCount: 2
Fore
SplineSet
61 434 m 1
 61 661 l 1
 743 1053 l 1
 743 810 l 1
 253 549 l 1
 464 460 621 373 743 285 c 1
 743 44 l 1
 61 434 l 1
EndSplineSet
EndChar

StartChar: equal
Encoding: 29 61 47
Width: 630
Flags: W
LayerCount: 2
Fore
SplineSet
58 482 m 1
 58 667 l 1
 564 667 l 1
 564 482 l 1
 58 482 l 1
58 213 m 1
 58 397 l 1
 564 397 l 1
 564 213 l 1
 58 213 l 1
EndSplineSet
EndChar

StartChar: greater
Encoding: 30 62 48
Width: 837
Flags: W
LayerCount: 2
Fore
SplineSet
95 44 m 1
 95 285 l 1
 585 549 l 1
 95 810 l 1
 95 1053 l 1
 777 661 l 1
 777 434 l 1
 95 44 l 1
EndSplineSet
EndChar

StartChar: question
Encoding: 31 63 49
Width: 876
Flags: W
LayerCount: 2
Fore
SplineSet
214 397 m 1
 214 718 l 1
 352 812 515 977 515 1160 c 0
 515 1236 467 1275 400 1275 c 0
 335 1275 306 1214 306 1144 c 0
 306 1111 312 1073 322 1041 c 1
 62 991 l 1
 46 1051 38 1110 38 1165 c 0
 38 1365 147 1518 400 1518 c 0
 714 1518 854 1385 854 1144 c 0
 854 931 747 736 491 629 c 1
 491 397 l 1
 214 397 l 1
214 0 m 1
 214 268 l 1
 491 268 l 1
 491 0 l 1
 214 0 l 1
EndSplineSet
EndChar

StartChar: at
Encoding: 32 64 50
Width: 1709
Flags: W
LayerCount: 2
Fore
SplineSet
940 468 m 1
 940 802 l 1
 937 819 913 834 880 834 c 0
 685 834 696 667 696 592 c 0
 696 537 715 444 849 444 c 0
 877 444 907 449 940 468 c 1
1229 126 m 1
 1390 -61 l 1
 1192 -86 1064 -108 951 -108 c 0
 261 -108 69 159 69 655 c 0
 69 1060 312 1340 867 1340 c 0
 1432 1340 1650 1070 1650 655 c 0
 1650 454 1560 244 1267 244 c 0
 1141 244 1055 275 998 341 c 1
 942 267 865 244 782 244 c 0
 552 244 458 421 458 592 c 0
 458 756 510 1026 746 1026 c 0
 822 1026 897 1010 940 974 c 1
 940 1019 l 1
 1177 1019 l 1
 1177 531 l 2
 1177 497 1175 444 1259 444 c 0
 1402 444 1413 605 1413 655 c 0
 1413 946 1256 1156 867 1156 c 0
 496 1156 306 926 306 655 c 0
 306 311 472 78 951 78 c 0
 1035 78 1126 100 1229 126 c 1
EndSplineSet
EndChar

StartChar: A
Encoding: 33 65 51
Width: 1534
Flags: W
LayerCount: 2
Fore
SplineSet
1091 0 m 1
 767 1214 l 1
 433 0 l 1
 86 0 l 1
 515 1490 l 1
 1005 1490 l 1
 1448 0 l 1
 1091 0 l 1
493 503 m 1
 1041 503 l 1
 1041 280 l 1
 493 280 l 1
 493 503 l 1
EndSplineSet
EndChar

StartChar: B
Encoding: 34 66 52
Width: 1490
Flags: W
LayerCount: 2
Fore
SplineSet
190 0 m 1
 190 1490 l 1
 774 1490 l 2
 1193 1490 1312 1376 1312 1105 c 0
 1312 945 1268 853 1105 817 c 1
 1326 794 1354 666 1354 469 c 1
 1365 150 1222 0 850 0 c 2
 190 0 l 1
529 904 m 1
 790 904 l 2
 959 904 964 967 964 1102 c 0
 964 1233 943 1264 761 1264 c 2
 529 1264 l 1
 529 904 l 1
529 234 m 1
 777 234 l 2
 1011 234 1015 278 1015 470 c 0
 1015 623 1015 706 793 706 c 2
 529 706 l 1
 529 234 l 1
EndSplineSet
EndChar

StartChar: C
Encoding: 35 67 53
Width: 1552
Flags: W
LayerCount: 2
Fore
SplineSet
1406 904 m 1
 1072 904 l 1
 1072 1028 l 2
 1072 1200 1001 1252 794 1252 c 0
 589 1252 495 1206 495 1028 c 2
 495 454 l 2
 495 275 587 237 794 237 c 0
 1004 237 1072 276 1072 454 c 2
 1072 594 l 1
 1406 594 l 1
 1406 490 l 2
 1406 203 1327 -29 794 -29 c 0
 249 -29 156 196 156 483 c 2
 156 993 l 2
 156 1288 246 1518 794 1518 c 0
 1325 1518 1406 1282 1406 987 c 2
 1406 904 l 1
EndSplineSet
EndChar

StartChar: D
Encoding: 36 68 54
Width: 1544
Flags: W
LayerCount: 2
Fore
SplineSet
1049 473 m 2
 1049 1013 l 2
 1049 1125 1035 1223 828 1223 c 2
 529 1223 l 1
 529 266 l 1
 828 266 l 2
 1038 266 1049 355 1049 473 c 2
857 0 m 2
 190 0 l 1
 190 1490 l 1
 857 1490 l 2
 1296 1490 1388 1257 1388 962 c 2
 1388 519 l 2
 1388 232 1293 0 857 0 c 2
EndSplineSet
EndChar

StartChar: E
Encoding: 37 69 55
Width: 1270
Flags: W
LayerCount: 2
Fore
SplineSet
190 0 m 1
 190 1490 l 1
 1127 1490 l 1
 1127 1228 l 1
 529 1228 l 1
 529 877 l 1
 1053 877 l 1
 1053 636 l 1
 529 636 l 1
 529 261 l 1
 1138 261 l 1
 1138 0 l 1
 190 0 l 1
EndSplineSet
EndChar

StartChar: F
Encoding: 38 70 56
Width: 1177
Flags: W
LayerCount: 2
Fore
SplineSet
190 0 m 1
 190 1490 l 1
 1086 1490 l 1
 1086 1228 l 1
 529 1228 l 1
 529 861 l 1
 1030 861 l 1
 1030 621 l 1
 529 621 l 1
 529 0 l 1
 190 0 l 1
EndSplineSet
EndChar

StartChar: G
Encoding: 39 71 57
Width: 1577
Flags: W
LayerCount: 2
Fore
SplineSet
1336 0 m 1
 1136 550 l 1
 859 550 l 1
 859 766 l 1
 1407 766 l 1
 1407 0 l 1
 1336 0 l 1
1406 904 m 1
 1072 904 l 1
 1072 1028 l 2
 1072 1200 1001 1252 794 1252 c 0
 589 1252 495 1206 495 1028 c 2
 495 454 l 2
 495 275 587 237 794 237 c 0
 1004 237 1072 276 1072 454 c 2
 1072 594 l 1
 1406 594 l 1
 1406 490 l 2
 1406 203 1327 -29 794 -29 c 0
 249 -29 156 196 156 483 c 2
 156 993 l 2
 156 1288 246 1518 794 1518 c 0
 1325 1518 1406 1282 1406 987 c 2
 1406 904 l 1
EndSplineSet
EndChar

StartChar: H
Encoding: 40 72 58
Width: 1599
Flags: W
LayerCount: 2
Fore
SplineSet
190 0 m 1
 190 1490 l 1
 529 1490 l 1
 529 866 l 1
 1071 866 l 1
 1071 1490 l 1
 1409 1490 l 1
 1409 0 l 1
 1071 0 l 1
 1071 596 l 1
 529 596 l 1
 529 0 l 1
 190 0 l 1
EndSplineSet
EndChar

StartChar: I
Encoding: 41 73 59
Width: 1233
Flags: W
LayerCount: 2
Fore
SplineSet
1106 0 m 1
 127 0 l 1
 127 254 l 1
 1106 254 l 1
 1106 0 l 1
1106 1236 m 1
 127 1236 l 1
 127 1490 l 1
 1106 1490 l 1
 1106 1236 l 1
447 0 m 1
 447 1490 l 1
 786 1490 l 1
 786 0 l 1
 447 0 l 1
EndSplineSet
EndChar

StartChar: J
Encoding: 42 74 60
Width: 1238
Flags: W
LayerCount: 2
Fore
SplineSet
782 1236 m 1
 282 1236 l 1
 282 1490 l 1
 998 1490 l 1
 998 1236 l 1
 782 1236 l 1
47 66 m 1
 124 323 l 1
 266 266 377 244 462 244 c 0
 646 244 709 350 709 451 c 2
 709 1490 l 1
 1048 1490 l 1
 1048 418 l 2
 1048 130 820 -39 487 -39 c 0
 354 -39 205 -7 47 66 c 1
EndSplineSet
EndChar

StartChar: K
Encoding: 43 75 61
Width: 1453
Flags: W
LayerCount: 2
Fore
SplineSet
190 0 m 1
 190 1490 l 1
 529 1490 l 1
 529 817 l 1
 997 1490 l 1
 1371 1490 l 1
 928 800 l 1
 1412 0 l 1
 1024 0 l 1
 614 685 l 1
 529 584 l 1
 529 0 l 1
 190 0 l 1
EndSplineSet
EndChar

StartChar: L
Encoding: 44 76 62
Width: 1095
Flags: W
LayerCount: 2
Fore
SplineSet
190 0 m 1
 190 1490 l 1
 529 1490 l 1
 529 266 l 1
 1025 266 l 1
 1025 0 l 1
 190 0 l 1
EndSplineSet
EndChar

StartChar: M
Encoding: 45 77 63
Width: 1911
Flags: W
LayerCount: 2
Fore
SplineSet
190 0 m 1
 190 1490 l 1
 624 1490 l 1
 955 855 l 1
 1275 1490 l 1
 1719 1490 l 1
 1721 0 l 1
 1396 0 l 1
 1396 1078 l 1
 1066 399 l 1
 845 399 l 1
 515 1074 l 1
 515 0 l 1
 190 0 l 1
EndSplineSet
EndChar

StartChar: N
Encoding: 46 78 64
Width: 1620
Flags: W
LayerCount: 2
Fore
SplineSet
190 0 m 1
 190 1490 l 1
 447 1490 l 1
 1130 612 l 1
 1130 1490 l 1
 1430 1490 l 1
 1430 0 l 1
 1184 0 l 1
 493 868 l 1
 493 0 l 1
 190 0 l 1
EndSplineSet
EndChar

StartChar: O
Encoding: 47 79 65
Width: 1577
Flags: W
LayerCount: 2
Fore
SplineSet
1082 453 m 2
 1082 1034 l 2
 1082 1206 1007 1252 800 1252 c 0
 595 1252 495 1212 495 1034 c 2
 495 453 l 2
 495 274 593 237 800 237 c 0
 1010 237 1082 275 1082 453 c 2
1421 504 m 2
 1421 217 1327 -29 800 -29 c 0
 249 -29 156 200 156 487 c 2
 156 993 l 2
 156 1288 246 1518 800 1518 c 0
 1330 1518 1421 1272 1421 977 c 2
 1421 504 l 2
EndSplineSet
EndChar

StartChar: P
Encoding: 48 80 66
Width: 1392
Flags: W
LayerCount: 2
Fore
SplineSet
529 802 m 1
 795 802 l 2
 935 802 953 911 953 1032 c 0
 953 1144 929 1252 807 1252 c 2
 529 1252 l 1
 529 802 l 1
190 0 m 1
 190 1490 l 1
 770 1490 l 2
 1133 1490 1265 1368 1265 1035 c 0
 1265 695 1177 556 729 556 c 2
 529 556 l 1
 529 0 l 1
 190 0 l 1
EndSplineSet
EndChar

StartChar: Q
Encoding: 49 81 67
Width: 1577
Flags: W
LayerCount: 2
Fore
SplineSet
608 -10 m 1
 877 50 l 1
 1114 -362 l 1
 904 -485 l 1
 608 -10 l 1
1082 453 m 2
 1082 1034 l 2
 1082 1206 1007 1252 800 1252 c 0
 595 1252 495 1212 495 1034 c 2
 495 453 l 2
 495 274 593 237 800 237 c 0
 1010 237 1082 275 1082 453 c 2
1421 504 m 2
 1421 217 1327 -29 800 -29 c 0
 249 -29 156 200 156 487 c 2
 156 993 l 2
 156 1288 246 1518 800 1518 c 0
 1330 1518 1421 1272 1421 977 c 2
 1421 504 l 2
EndSplineSet
EndChar

StartChar: R
Encoding: 50 82 68
Width: 1523
Flags: W
LayerCount: 2
Fore
SplineSet
810 594 m 1
 1124 652 l 1
 1391 0 l 1
 1030 0 l 1
 810 594 l 1
190 0 m 1
 190 1490 l 1
 856 1490 l 2
 1314 1490 1381 1275 1381 1035 c 0
 1381 819 1358 554 871 554 c 2
 529 554 l 1
 529 0 l 1
 190 0 l 1
529 792 m 1
 900 792 l 2
 1042 792 1061 903 1061 1024 c 0
 1061 1136 1039 1252 907 1252 c 2
 529 1252 l 1
 529 792 l 1
EndSplineSet
EndChar

StartChar: S
Encoding: 51 83 69
Width: 1290
Flags: W
LayerCount: 2
Fore
SplineSet
232 384 m 1
 122 128 l 1
 237 58 465 -24 660 -24 c 0
 1052 -24 1178 186 1178 438 c 0
 1178 648 1069 746 881 831 c 2
 693 916 l 2
 538 986 481 1012 481 1108 c 0
 481 1193 560 1250 683 1245 c 0
 801 1240 937 1182 1022 1138 c 1
 1143 1381 l 1
 989 1468 833 1520 661 1520 c 0
 357 1520 136 1362 136 1077 c 0
 136 931 195 790 437 682 c 1
 635 595 l 1
 820 512 849 485 849 410 c 0
 849 322 777 255 659 255 c 0
 513 255 291 347 232 384 c 1
EndSplineSet
EndChar

StartChar: T
Encoding: 52 84 70
Width: 1233
Flags: W
LayerCount: 2
Fore
SplineSet
432 0 m 1
 432 1236 l 1
 62 1236 l 1
 62 1490 l 1
 1171 1490 l 1
 1171 1236 l 1
 771 1236 l 1
 771 0 l 1
 432 0 l 1
EndSplineSet
EndChar

StartChar: U
Encoding: 53 85 71
Width: 1582
Flags: W
LayerCount: 2
Fore
SplineSet
1072 1490 m 1
 1411 1490 l 1
 1411 483 l 2
 1411 196 1318 -24 800 -24 c 0
 281 -24 171 179 171 466 c 2
 171 1490 l 1
 510 1490 l 1
 510 457 l 2
 510 293 593 237 800 237 c 0
 1010 237 1072 297 1072 457 c 2
 1072 1490 l 1
EndSplineSet
EndChar

StartChar: V
Encoding: 54 86 72
Width: 1452
Flags: W
LayerCount: 2
Fore
SplineSet
604 0 m 1
 65 1490 l 1
 424 1490 l 1
 753 524 l 1
 1023 1490 l 1
 1387 1490 l 1
 900 0 l 1
 604 0 l 1
EndSplineSet
EndChar

StartChar: W
Encoding: 55 87 73
Width: 1998
Flags: W
LayerCount: 2
Fore
SplineSet
434 0 m 1
 67 1490 l 1
 404 1490 l 1
 623 503 l 1
 851 1490 l 1
 1118 1490 l 1
 1394 519 l 1
 1594 1490 l 1
 1931 1490 l 1
 1559 0 l 1
 1262 0 l 1
 987 975 l 1
 737 0 l 1
 434 0 l 1
EndSplineSet
EndChar

StartChar: X
Encoding: 56 88 74
Width: 1390
Flags: W
LayerCount: 2
Fore
SplineSet
28 0 m 1
 967 1490 l 1
 1344 1490 l 1
 381 0 l 1
 28 0 l 1
988 0 m 1
 36 1490 l 1
 392 1490 l 1
 1362 0 l 1
 988 0 l 1
EndSplineSet
EndChar

StartChar: Y
Encoding: 57 89 75
Width: 1423
Flags: W
LayerCount: 2
Fore
SplineSet
542 0 m 1
 542 505 l 1
 41 1490 l 1
 397 1490 l 1
 714 862 l 1
 1041 1490 l 1
 1382 1490 l 1
 881 505 l 1
 881 0 l 1
 542 0 l 1
EndSplineSet
EndChar

StartChar: Z
Encoding: 58 90 76
Width: 1190
Flags: W
LayerCount: 2
Fore
SplineSet
124 0 m 1
 124 189 l 1
 718 1282 l 1
 150 1282 l 1
 150 1489 l 1
 1086 1489 l 1
 1086 1299 l 1
 489 207 l 1
 1097 207 l 1
 1097 0 l 1
 124 0 l 1
EndSplineSet
EndChar

StartChar: bracketleft
Encoding: 59 91 77
Width: 644
Flags: W
LayerCount: 2
Fore
SplineSet
129 -53 m 1
 129 1578 l 1
 582 1578 l 1
 582 1447 l 1
 367 1447 l 1
 367 78 l 1
 582 78 l 1
 582 -53 l 1
 129 -53 l 1
EndSplineSet
EndChar

StartChar: backslash
Encoding: 60 92 78
Width: 520
Flags: W
LayerCount: 2
Fore
SplineSet
219 0 m 1
 56 1525 l 1
 295 1525 l 1
 458 0 l 1
 219 0 l 1
EndSplineSet
EndChar

StartChar: bracketright
Encoding: 61 93 79
Width: 602
Flags: W
LayerCount: 2
Fore
SplineSet
63 -53 m 1
 63 53 l 1
 275 53 l 1
 275 1430 l 1
 63 1430 l 1
 63 1536 l 1
 487 1536 l 1
 487 -53 l 1
 63 -53 l 1
EndSplineSet
EndChar

StartChar: asciicircum
Encoding: 62 94 80
Width: 1012
Flags: W
LayerCount: 2
Fore
SplineSet
54 751 m 1
 295 1310 l 1
 707 1310 l 1
 948 751 l 1
 679 751 l 1
 500 1096 l 1
 323 751 l 1
 54 751 l 1
EndSplineSet
EndChar

StartChar: underscore
Encoding: 63 95 81
Width: 893
Flags: W
LayerCount: 2
Fore
SplineSet
5 0 m 1
 5 185 l 1
 880 185 l 1
 880 0 l 1
 5 0 l 1
EndSplineSet
EndChar

StartChar: grave
Encoding: 64 96 82
Width: 529
Flags: W
LayerCount: 2
Fore
SplineSet
292 1153 m 1
 63 1518 l 1
 349 1518 l 1
 462 1153 l 1
 292 1153 l 1
EndSplineSet
EndChar

StartChar: a
Encoding: 65 97 83
Width: 1208
Flags: W
LayerCount: 2
Fore
SplineSet
730 253 m 1
 730 508 l 1
 694 478 599 450 528 430 c 0
 437 404 419 344 419 301 c 0
 419 294 419 288 420 282 c 0
 427 223 465 176 542 176 c 0
 548 176 554 176 560 177 c 0
 599 181 679 196 730 253 c 1
986 -17 m 0
 833 -17 796 53 754 134 c 1
 691 56 562 -24 423 -24 c 0
 257 -24 130 77 122 262 c 0
 115 419 147 489 436 577 c 0
 638 639 729 629 729 777 c 0
 729 862 678 895 578 895 c 0
 475 895 439 842 439 759 c 2
 439 720 l 1
 151 720 l 1
 151 745 l 2
 151 952 282 1104 584 1104 c 0
 923 1104 1039 962 1039 739 c 2
 1039 278 l 2
 1039 186 1084 181 1148 181 c 1
 1148 0 l 1
 1054 -14 1017 -17 986 -17 c 0
EndSplineSet
EndChar

StartChar: b
Encoding: 66 98 84
Width: 1229
Flags: W
LayerCount: 2
Fore
SplineSet
461 851 m 1
 460 649 l 1
 157 649 l 1
 157 659 l 1
 181 812 363 1104 696 1104 c 0
 1011 1104 1106 932 1106 761 c 2
 1106 319 l 2
 1106 111 936 -25 682 -25 c 0
 337 -25 158 303 158 400 c 2
 158 411 l 1
 461 411 l 1
 421 319 l 1
 421 220 516 186 629 186 c 0
 732 186 797 220 797 319 c 2
 797 761 l 2
 797 860 742 894 629 894 c 0
 526 894 461 851 461 851 c 1
149 0 m 1
 149 1490 l 1
 460 1490 l 1
 460 225 l 1
 360 0 l 1
 149 0 l 1
EndSplineSet
EndChar

StartChar: c
Encoding: 67 99 85
Width: 1186
Flags: W
LayerCount: 2
Fore
SplineSet
768 319 m 2
 768 431 l 1
 1071 431 l 1
 1071 281 l 2
 1071 102 963 -24 596 -24 c 0
 207 -24 122 137 122 319 c 2
 122 761 l 2
 122 982 304 1104 593 1104 c 0
 894 1104 1071 1006 1071 784 c 2
 1071 669 l 1
 768 669 l 1
 768 761 l 2
 768 860 713 894 600 894 c 0
 497 894 432 860 432 761 c 2
 432 319 l 2
 432 220 487 186 600 186 c 0
 703 186 768 220 768 319 c 2
EndSplineSet
EndChar

StartChar: d
Encoding: 68 100 86
Width: 1229
Flags: W
LayerCount: 2
Fore
SplineSet
787 851 m 1
 937 982 l 1
 855 1043 697 1104 576 1104 c 0
 261 1104 122 953 122 761 c 2
 122 319 l 2
 122 98 274 -25 559 -25 c 0
 904 -25 1071 313 1071 410 c 2
 1071 421 l 1
 828 319 l 1
 828 220 713 186 600 186 c 0
 488 186 432 220 432 319 c 2
 432 761 l 2
 432 860 495 894 608 894 c 0
 711 894 787 851 787 851 c 1
1079 0 m 1
 1079 1490 l 1
 768 1490 l 1
 768 214 l 1
 868 0 l 1
 1079 0 l 1
EndSplineSet
EndChar

StartChar: e
Encoding: 69 101 87
Width: 1186
Flags: W
LayerCount: 2
Fore
SplineSet
591 -24 m 0
 881 -24 1071 39 1071 319 c 2
 1071 395 l 1
 768 395 l 1
 768 319 l 2
 768 212 701 186 598 186 c 0
 499 186 432 211 432 318 c 2
 432 515 l 1
 1071 515 l 1
 1071 740 l 2
 1071 962 937 1104 589 1104 c 0
 320 1104 122 987 122 760 c 2
 122 319 l 2
 122 35 351 -24 591 -24 c 0
432 664 m 1
 432 760 l 2
 432 866 507 894 598 894 c 0
 692 894 768 875 768 760 c 2
 768 664 l 1
 432 664 l 1
EndSplineSet
EndChar

StartChar: f
Encoding: 70 102 88
Width: 815
Flags: W
LayerCount: 2
Fore
SplineSet
225 0 m 1
 225 894 l 1
 98 894 l 1
 98 1080 l 1
 225 1080 l 1
 225 1082 l 2
 225 1363 353 1468 565 1468 c 2
 734 1468 l 1
 734 1255 l 1
 658 1255 l 2
 539 1255 535 1201 535 1130 c 2
 535 1080 l 1
 731 1080 l 1
 731 894 l 1
 535 894 l 1
 535 0 l 1
 225 0 l 1
EndSplineSet
EndChar

StartChar: g
Encoding: 71 103 89
Width: 1228
Flags: W
LayerCount: 2
Fore
SplineSet
768 851 m 1
 768 649 l 1
 1071 649 l 1
 1071 659 l 1
 1047 812 866 1104 533 1104 c 0
 218 1104 122 932 122 761 c 2
 122 361 l 2
 122 153 293 28 548 28 c 0
 893 28 1071 327 1071 424 c 2
 1071 435 l 1
 768 435 l 1
 808 343 l 1
 808 244 713 228 600 228 c 0
 497 228 432 262 432 361 c 2
 432 761 l 2
 432 860 487 894 600 894 c 0
 703 894 768 851 768 851 c 1
1079 1081 m 1
 868 1081 l 1
 768 856 l 1
 768 6 l 1
 1079 -10 l 1
 1079 1081 l 1
264 -141 m 1
 202 -345 l 1
 275 -384 459 -408 587 -408 c 0
 961 -408 1079 -208 1079 -10 c 1
 768 17 l 1
 768 -11 l 2
 768 -119 704 -185 545 -185 c 0
 473 -185 380 -171 264 -141 c 1
EndSplineSet
EndChar

StartChar: h
Encoding: 72 104 90
Width: 1249
Flags: W
LayerCount: 2
Fore
SplineSet
152 0 m 1
 152 1490 l 1
 462 1490 l 1
 462 960 l 1
 500 1036 641 1104 788 1104 c 0
 970 1104 1114 991 1114 804 c 2
 1114 0 l 1
 803 0 l 1
 803 763 l 2
 803 879 705 894 641 894 c 0
 580 894 462 865 462 760 c 2
 462 0 l 1
 152 0 l 1
EndSplineSet
EndChar

StartChar: i
Encoding: 73 105 91
Width: 604
Flags: W
LayerCount: 2
Fore
SplineSet
152 0 m 1
 152 1080 l 1
 462 1080 l 1
 462 0 l 1
 152 0 l 1
152 1217 m 1
 152 1478 l 1
 462 1478 l 1
 462 1217 l 1
 152 1217 l 1
EndSplineSet
EndChar

StartChar: j
Encoding: 74 106 92
Width: 680
Flags: W
LayerCount: 2
Fore
SplineSet
215 1217 m 1
 215 1478 l 1
 525 1478 l 1
 525 1217 l 1
 215 1217 l 1
3 -319 m 1
 3 -108 l 1
 55 -108 l 2
 198 -108 218 21 218 64 c 2
 218 1080 l 1
 528 1080 l 1
 528 40 l 2
 528 -130 426 -319 131 -319 c 2
 3 -319 l 1
EndSplineSet
EndChar

StartChar: k
Encoding: 75 107 93
Width: 1227
Flags: W
LayerCount: 2
Fore
SplineSet
152 0 m 1
 152 1490 l 1
 462 1490 l 1
 462 642 l 1
 814 1080 l 1
 1189 1080 l 1
 804 614 l 1
 1201 0 l 1
 827 0 l 1
 536 476 l 1
 462 398 l 1
 462 0 l 1
 152 0 l 1
EndSplineSet
EndChar

StartChar: l
Encoding: 76 108 94
Width: 712
Flags: W
LayerCount: 2
Fore
SplineSet
152 1490 m 1
 462 1490 l 1
 462 369 l 2
 462 272 518 220 647 220 c 1
 647 0 l 1
 508 0 l 2
 266 0 152 145 152 398 c 2
 152 1490 l 1
EndSplineSet
EndChar

StartChar: m
Encoding: 77 109 95
Width: 1832
Flags: W
LayerCount: 2
Fore
SplineSet
1079 760 m 1
 956 859 l 1
 1047 961 l 1
 1105 1034 1230 1104 1377 1104 c 0
 1559 1104 1697 991 1697 804 c 2
 1697 0 l 1
 1386 0 l 1
 1386 763 l 2
 1386 879 1313 894 1249 894 c 0
 1188 894 1079 865 1079 760 c 1
152 0 m 1
 152 1080 l 1
 462 1080 l 1
 462 944 l 1
 500 1031 622 1104 769 1104 c 0
 951 1104 1080 991 1080 804 c 2
 1080 0 l 1
 769 0 l 1
 769 763 l 2
 769 879 696 894 632 894 c 0
 571 894 462 865 462 760 c 2
 462 0 l 1
 152 0 l 1
EndSplineSet
EndChar

StartChar: n
Encoding: 78 110 96
Width: 1264
Flags: W
LayerCount: 2
Fore
SplineSet
152 0 m 1
 152 1080 l 1
 462 1080 l 1
 462 944 l 1
 500 1031 643 1104 790 1104 c 0
 972 1104 1129 991 1129 804 c 2
 1129 0 l 1
 819 0 l 1
 819 763 l 2
 819 879 710 894 646 894 c 0
 585 894 462 865 462 760 c 2
 462 0 l 1
 152 0 l 1
EndSplineSet
EndChar

StartChar: o
Encoding: 79 111 97
Width: 1200
Flags: W
LayerCount: 2
Fore
SplineSet
768 319 m 2
 768 220 703 186 600 186 c 0
 487 186 432 220 432 319 c 2
 432 761 l 2
 432 860 497 894 600 894 c 0
 713 894 768 860 768 761 c 2
 768 319 l 2
1078 330 m 2
 1078 750 l 2
 1078 980 884 1104 600 1104 c 0
 316 1104 122 980 122 750 c 2
 122 330 l 2
 122 108 252 -24 600 -24 c 0
 964 -24 1078 109 1078 330 c 2
EndSplineSet
EndChar

StartChar: p
Encoding: 80 112 98
Width: 1231
Flags: W
LayerCount: 2
Fore
SplineSet
463 228 m 1
 463 430 l 1
 160 430 l 1
 160 420 l 1
 184 267 325 -25 658 -25 c 0
 973 -25 1109 147 1109 318 c 2
 1109 760 l 2
 1109 968 949 1104 694 1104 c 0
 349 1104 160 776 160 679 c 2
 160 668 l 1
 463 668 l 1
 423 760 l 1
 423 859 528 894 641 894 c 0
 744 894 799 859 799 760 c 2
 799 318 l 2
 799 219 744 186 631 186 c 0
 528 186 463 228 463 228 c 1
152 1080 m 1
 152 -411 l 1
 463 -411 l 1
 463 854 l 1
 363 1080 l 1
 152 1080 l 1
EndSplineSet
EndChar

StartChar: q
Encoding: 81 113 99
Width: 1227
Flags: W
LayerCount: 2
Fore
SplineSet
768 228 m 1
 768 430 l 1
 1071 430 l 1
 1071 420 l 1
 1047 268 865 -24 532 -24 c 0
 217 -24 122 147 122 318 c 2
 122 760 l 2
 122 968 292 1104 547 1104 c 0
 892 1104 1071 776 1071 679 c 2
 1071 668 l 1
 768 668 l 1
 808 760 l 1
 808 859 713 894 600 894 c 0
 497 894 432 859 432 760 c 2
 432 318 l 2
 432 219 487 186 600 186 c 0
 703 186 768 228 768 228 c 1
1079 1080 m 1
 1079 -411 l 1
 768 -411 l 1
 768 854 l 1
 868 1080 l 1
 1079 1080 l 1
EndSplineSet
EndChar

StartChar: r
Encoding: 82 114 100
Width: 877
Flags: W
LayerCount: 2
Fore
SplineSet
152 0 m 1
 152 1080 l 1
 462 1080 l 1
 462 962 l 1
 513 1044 742 1111 832 1097 c 1
 826 842 l 1
 707 832 492 826 462 740 c 1
 462 0 l 1
 152 0 l 1
EndSplineSet
EndChar

StartChar: s
Encoding: 83 115 101
Width: 1029
Flags: W
LayerCount: 2
Fore
SplineSet
206 315 m 1
 92 132 l 1
 211 30 367 -24 538 -24 c 0
 795 -24 936 125 936 313 c 0
 936 482 864 545 693 620 c 1
 491 714 l 2
 448 733 412 759 412 805 c 0
 412 864 446 901 536 901 c 0
 642 901 764 839 822 793 c 1
 923 958 l 1
 858 1022 713 1104 516 1104 c 0
 303 1104 115 1013 115 784 c 0
 115 645 175 564 334 495 c 1
 547 396 l 1
 616 366 645 328 645 288 c 0
 645 281 645 274 643 267 c 0
 632 220 596 188 536 188 c 0
 448 188 332 222 206 315 c 1
EndSplineSet
EndChar

StartChar: t
Encoding: 84 116 102
Width: 887
Flags: W
LayerCount: 2
Fore
SplineSet
202 894 m 1
 76 894 l 1
 76 1080 l 1
 211 1080 l 1
 238 1433 l 1
 512 1433 l 1
 512 1080 l 1
 795 1080 l 1
 795 894 l 1
 512 894 l 1
 512 426 l 2
 512 296 568 229 749 229 c 2
 802 229 l 1
 802 -8 l 1
 737 -8 l 2
 399 -8 202 109 202 403 c 2
 202 894 l 1
EndSplineSet
EndChar

StartChar: u
Encoding: 85 117 103
Width: 1249
Flags: W
LayerCount: 2
Fore
SplineSet
1097 1080 m 1
 1097 0 l 1
 787 0 l 1
 787 136 l 1
 749 49 612 -24 465 -24 c 0
 283 -24 135 89 135 276 c 2
 135 1080 l 1
 445 1080 l 1
 445 317 l 2
 445 201 545 186 609 186 c 0
 670 186 787 215 787 320 c 2
 787 1080 l 1
 1097 1080 l 1
EndSplineSet
EndChar

StartChar: v
Encoding: 86 118 104
Width: 1078
Flags: W
LayerCount: 2
Fore
SplineSet
365 0 m 1
 59 1080 l 1
 356 1080 l 1
 552 329 l 1
 711 1080 l 1
 1019 1080 l 1
 713 0 l 1
 365 0 l 1
EndSplineSet
EndChar

StartChar: w
Encoding: 87 119 105
Width: 1599
Flags: W
LayerCount: 2
Fore
SplineSet
324 0 m 1
 63 1080 l 1
 354 1080 l 1
 505 414 l 1
 693 1080 l 1
 920 1080 l 1
 1113 401 l 1
 1249 1080 l 1
 1536 1080 l 1
 1294 0 l 1
 1000 0 l 1
 809 692 l 1
 606 0 l 1
 324 0 l 1
EndSplineSet
EndChar

StartChar: x
Encoding: 88 120 106
Width: 1099
Flags: W
LayerCount: 2
Fore
SplineSet
752 0 m 1
 44 1080 l 1
 367 1080 l 1
 1055 0 l 1
 752 0 l 1
45 0 m 1
 752 1080 l 1
 1055 1080 l 1
 367 0 l 1
 45 0 l 1
EndSplineSet
EndChar

StartChar: y
Encoding: 89 121 107
Width: 1160
Flags: W
LayerCount: 2
Fore
SplineSet
301 -416 m 2
 178 -416 l 1
 178 -208 l 1
 297 -208 l 2
 415 -208 434 -119 465 -4 c 1
 59 1080 l 1
 356 1080 l 1
 609 365 l 1
 812 1080 l 1
 1108 1080 l 1
 786 105 l 2
 640 -336 614 -416 301 -416 c 2
EndSplineSet
EndChar

StartChar: z
Encoding: 90 122 108
Width: 989
Flags: W
LayerCount: 2
Fore
SplineSet
115 0 m 1
 115 189 l 1
 508 879 l 1
 134 879 l 1
 134 1080 l 1
 881 1080 l 1
 881 895 l 1
 466 202 l 1
 896 202 l 1
 896 0 l 1
 115 0 l 1
EndSplineSet
EndChar

StartChar: braceleft
Encoding: 91 123 109
Width: 630
Flags: W
LayerCount: 2
Fore
SplineSet
564 131 m 1
 564 -53 l 1
 230 -53 166 135 166 440 c 0
 166 543 186 646 58 644 c 1
 58 881 l 1
 187 880 166 1085 166 1158 c 0
 166 1504 263 1578 564 1578 c 1
 564 1394 l 1
 403 1395 403 1335 403 1158 c 0
 403 1040 381 845 257 773 c 1
 375 705 394 577 401 452 c 0
 410 288 394 130 564 131 c 1
EndSplineSet
EndChar

StartChar: bar
Encoding: 92 124 110
Width: 354
Flags: W
LayerCount: 2
Fore
SplineSet
111 -108 m 1
 111 1632 l 1
 295 1632 l 1
 295 -108 l 1
 111 -108 l 1
EndSplineSet
EndChar

StartChar: braceright
Encoding: 93 125 111
Width: 630
Flags: W
LayerCount: 2
Fore
SplineSet
58 -53 m 1
 58 131 l 1
 220 130 213 274 220 430 c 0
 226 558 241 693 366 763 c 1
 244 840 219 1062 219 1191 c 0
 219 1343 219 1395 58 1394 c 1
 58 1578 l 1
 359 1578 458 1510 458 1191 c 0
 458 1111 436 880 564 881 c 1
 564 644 l 1
 437 646 458 542 458 440 c 0
 458 135 393 -53 58 -53 c 1
EndSplineSet
EndChar

StartChar: asciitilde
Encoding: 94 126 112
Width: 1012
Flags: W
LayerCount: 2
Fore
SplineSet
115 697 m 1
 114 829 172 949 309 949 c 0
 464 949 621 877 707 877 c 0
 735 877 738 913 738 934 c 1
 887 934 l 1
 888 802 831 680 694 680 c 0
 539 680 362 753 294 753 c 0
 267 753 266 717 266 697 c 1
 115 697 l 1
EndSplineSet
EndChar

StartChar: Adieresis
Encoding: 129 196 113
Width: 1175
Flags: W
LayerCount: 2
Fore
SplineSet
186 1645 m 1
 186 1900 l 1
 475 1900 l 1
 475 1645 l 1
 186 1645 l 1
698 1645 m 1
 698 1900 l 1
 988 1900 l 1
 988 1645 l 1
 698 1645 l 1
53 0 m 1
 386 1490 l 1
 909 1490 l 1
 1241 0 l 1
 892 0 l 1
 825 319 l 1
 467 319 l 1
 400 0 l 1
 53 0 l 1
501 504 m 1
 789 504 l 1
 649 1280 l 1
 501 504 l 1
EndSplineSet
EndChar

StartChar: Aring
Encoding: 130 197 114
Width: 1175
Flags: W
LayerCount: 2
Fore
SplineSet
588 1700 m 0
 636 1700 652 1758 652 1797 c 0
 652 1835 636 1895 588 1895 c 0
 539 1895 521 1839 521 1799 c 0
 521 1758 538 1700 588 1700 c 0
378 1798 m 0
 378 1921 469 1995 588 1995 c 0
 706 1995 797 1920 797 1798 c 0
 797 1675 707 1600 588 1600 c 0
 469 1600 378 1675 378 1798 c 0
53 0 m 1
 386 1490 l 1
 909 1490 l 1
 1241 0 l 1
 892 0 l 1
 825 319 l 1
 467 319 l 1
 400 0 l 1
 53 0 l 1
501 504 m 1
 789 504 l 1
 649 1280 l 1
 501 504 l 1
EndSplineSet
EndChar

StartChar: Ccedilla
Encoding: 132 199 115
Width: 1295
Flags: W
LayerCount: 2
Fore
SplineSet
462 -464 m 1
 462 -331 l 1
 487 -331 645 -341 645 -296 c 0
 645 -246 545 -213 509 -200 c 1
 509 0 l 1
 650 0 l 1
 650 -107 l 1
 724 -142 833 -206 833 -300 c 0
 833 -464 575 -464 462 -464 c 1
910 883 m 1
 910 1082 l 2
 910 1194 900 1252 693 1252 c 0
 488 1252 469 1200 469 1082 c 2
 469 404 l 2
 469 285 486 237 693 237 c 0
 903 237 910 286 910 404 c 2
 910 606 l 1
 1237 606 l 1
 1237 473 l 2
 1237 186 1184 -29 748 -29 c 2
 640 -29 l 2
 204 -29 131 186 131 473 c 2
 131 1007 l 2
 131 1302 201 1518 640 1518 c 2
 748 1518 l 2
 1187 1518 1237 1302 1237 1007 c 2
 1237 883 l 1
 910 883 l 1
EndSplineSet
EndChar

StartChar: Eacute
Encoding: 134 201 116
Width: 821
Flags: W
LayerCount: 2
Fore
SplineSet
213 1563 m 1
 325 1928 l 1
 611 1928 l 1
 381 1563 l 1
 213 1563 l 1
162 0 m 1
 162 1490 l 1
 943 1490 l 1
 943 1228 l 1
 501 1228 l 1
 501 877 l 1
 850 877 l 1
 850 636 l 1
 501 636 l 1
 501 261 l 1
 943 261 l 1
 943 0 l 1
 162 0 l 1
EndSplineSet
EndChar

StartChar: Ntilde
Encoding: 142 209 117
Width: 1334
Flags: W
LayerCount: 2
Fore
SplineSet
465 1593 m 1
 327 1593 l 1
 327 1719 347 1841 480 1841 c 0
 633 1841 796 1793 851 1793 c 0
 880 1793 880 1811 880 1831 c 1
 1009 1831 l 1
 1009 1742 999 1584 880 1584 c 0
 792 1584 628 1645 506 1645 c 0
 463 1645 465 1616 465 1593 c 1
162 0 m 1
 162 1490 l 1
 382 1490 l 1
 986 645 l 1
 986 1490 l 1
 1287 1490 l 1
 1287 0 l 1
 1093 0 l 1
 466 868 l 1
 466 0 l 1
 162 0 l 1
EndSplineSet
EndChar

StartChar: Odieresis
Encoding: 147 214 118
Width: 1354
Flags: W
LayerCount: 2
Fore
SplineSet
277 1645 m 1
 277 1900 l 1
 566 1900 l 1
 566 1645 l 1
 277 1645 l 1
789 1645 m 1
 789 1900 l 1
 1079 1900 l 1
 1079 1645 l 1
 789 1645 l 1
917 404 m 2
 917 1082 l 2
 917 1194 900 1252 693 1252 c 0
 488 1252 469 1200 469 1082 c 2
 469 404 l 2
 469 285 486 237 693 237 c 0
 903 237 917 286 917 404 c 2
745 -29 m 2
 640 -29 l 2
 204 -29 131 186 131 473 c 2
 131 1007 l 2
 131 1302 201 1518 640 1518 c 2
 745 1518 l 2
 1184 1518 1255 1286 1255 991 c 2
 1255 490 l 2
 1255 203 1181 -29 745 -29 c 2
EndSplineSet
EndChar

StartChar: Udieresis
Encoding: 153 220 119
Width: 1373
Flags: W
LayerCount: 2
Fore
SplineSet
286 1645 m 1
 286 1900 l 1
 575 1900 l 1
 575 1645 l 1
 286 1645 l 1
798 1645 m 1
 798 1900 l 1
 1088 1900 l 1
 1088 1645 l 1
 798 1645 l 1
925 1490 m 1
 1264 1490 l 1
 1264 490 l 2
 1264 203 1189 -29 753 -29 c 2
 648 -29 l 2
 212 -29 139 186 139 473 c 2
 139 1490 l 1
 477 1490 l 1
 477 404 l 2
 477 285 494 237 701 237 c 0
 911 237 925 286 925 404 c 2
 925 1490 l 1
EndSplineSet
EndChar

StartChar: aacute
Encoding: 158 225 120
Width: 983
Flags: W
LayerCount: 2
Fore
SplineSet
293 1153 m 1
 405 1518 l 1
 691 1518 l 1
 461 1153 l 1
 293 1153 l 1
641 458 m 1
 424 431 387 410 387 317 c 0
 387 222 433 136 641 233 c 1
 641 458 l 1
742 0 m 1
 693 112 l 1
 630 4 518 -24 379 -24 c 0
 213 -24 106 97 106 282 c 0
 106 548 215 594 640 636 c 1
 640 780 l 2
 640 852 613 894 528 894 c 0
 412 894 402 833 402 780 c 2
 402 719 l 1
 114 719 l 1
 114 966 223 1105 560 1105 c 0
 843 1105 950 967 950 800 c 2
 950 287 l 1
 950 0 l 1
 742 0 l 1
EndSplineSet
EndChar

StartChar: agrave
Encoding: 157 224 121
Width: 983
Flags: W
LayerCount: 2
Fore
SplineSet
521 1153 m 1
 292 1518 l 1
 578 1518 l 1
 691 1153 l 1
 521 1153 l 1
641 458 m 1
 424 431 387 410 387 317 c 0
 387 222 433 136 641 233 c 1
 641 458 l 1
742 0 m 1
 693 112 l 1
 630 4 518 -24 379 -24 c 0
 213 -24 106 97 106 282 c 0
 106 548 215 594 640 636 c 1
 640 780 l 2
 640 852 613 894 528 894 c 0
 412 894 402 833 402 780 c 2
 402 719 l 1
 114 719 l 1
 114 966 223 1105 560 1105 c 0
 843 1105 950 967 950 800 c 2
 950 287 l 1
 950 0 l 1
 742 0 l 1
EndSplineSet
EndChar

StartChar: acircumflex
Encoding: 159 226 122
Width: 983
Flags: W
LayerCount: 2
Fore
SplineSet
136 1153 m 1
 302 1489 l 1
 678 1489 l 1
 848 1153 l 1
 601 1153 l 1
 490 1320 l 1
 381 1153 l 1
 136 1153 l 1
641 458 m 1
 424 431 387 410 387 317 c 0
 387 222 433 136 641 233 c 1
 641 458 l 1
742 0 m 1
 693 112 l 1
 630 4 518 -24 379 -24 c 0
 213 -24 106 97 106 282 c 0
 106 548 215 594 640 636 c 1
 640 780 l 2
 640 852 613 894 528 894 c 0
 412 894 402 833 402 780 c 2
 402 719 l 1
 114 719 l 1
 114 966 223 1105 560 1105 c 0
 843 1105 950 967 950 800 c 2
 950 287 l 1
 950 0 l 1
 742 0 l 1
EndSplineSet
EndChar

StartChar: adieresis
Encoding: 161 228 123
Width: 983
Flags: W
LayerCount: 2
Fore
SplineSet
90 1235 m 1
 90 1490 l 1
 379 1490 l 1
 379 1235 l 1
 90 1235 l 1
602 1235 m 1
 602 1490 l 1
 892 1490 l 1
 892 1235 l 1
 602 1235 l 1
641 458 m 1
 424 431 387 410 387 317 c 0
 387 222 433 136 641 233 c 1
 641 458 l 1
742 0 m 1
 693 112 l 1
 630 4 518 -24 379 -24 c 0
 213 -24 106 97 106 282 c 0
 106 548 215 594 640 636 c 1
 640 780 l 2
 640 852 613 894 528 894 c 0
 412 894 402 833 402 780 c 2
 402 719 l 1
 114 719 l 1
 114 966 223 1105 560 1105 c 0
 843 1105 950 967 950 800 c 2
 950 287 l 1
 950 0 l 1
 742 0 l 1
EndSplineSet
EndChar

StartChar: atilde
Encoding: 160 227 124
Width: 983
Flags: W
LayerCount: 2
Fore
SplineSet
289 1183 m 1
 151 1183 l 1
 151 1309 171 1431 304 1431 c 0
 457 1431 620 1383 675 1383 c 0
 704 1383 704 1401 704 1421 c 1
 833 1421 l 1
 833 1332 823 1174 704 1174 c 0
 616 1174 452 1235 330 1235 c 0
 287 1235 289 1206 289 1183 c 1
641 458 m 1
 424 431 387 410 387 317 c 0
 387 222 433 136 641 233 c 1
 641 458 l 1
742 0 m 1
 693 112 l 1
 630 4 518 -24 379 -24 c 0
 213 -24 106 97 106 282 c 0
 106 548 215 594 640 636 c 1
 640 780 l 2
 640 852 613 894 528 894 c 0
 412 894 402 833 402 780 c 2
 402 719 l 1
 114 719 l 1
 114 966 223 1105 560 1105 c 0
 843 1105 950 967 950 800 c 2
 950 287 l 1
 950 0 l 1
 742 0 l 1
EndSplineSet
EndChar

StartChar: aring
Encoding: 162 229 125
Width: 1174
Flags: W
LayerCount: 2
Fore
SplineSet
730 253 m 1
 730 508 l 1
 694 478 599 450 528 430 c 0
 437 404 419 344 419 301 c 0
 419 294 419 288 420 282 c 0
 427 223 465 176 542 176 c 0
 548 176 554 176 560 177 c 0
 599 181 679 196 730 253 c 1
986 -17 m 0
 833 -17 796 53 754 134 c 1
 691 56 562 -24 423 -24 c 0
 257 -24 130 77 122 262 c 0
 115 419 147 489 436 577 c 0
 638 639 729 629 729 777 c 0
 729 862 678 895 578 895 c 0
 475 895 439 842 439 759 c 2
 439 720 l 1
 151 720 l 1
 151 745 l 2
 151 952 282 1104 584 1104 c 0
 923 1104 1039 962 1039 739 c 2
 1039 278 l 2
 1039 186 1084 181 1148 181 c 1
 1148 0 l 1
 1054 -14 1017 -17 986 -17 c 0
589 1277 m 0
 651 1277 693 1300 693 1387 c 0
 693 1475 651 1499 588 1499 c 0
 527 1499 485 1476 485 1389 c 0
 485 1301 527 1277 589 1277 c 0
589 1190 m 0
 450 1190 379 1265 379 1388 c 0
 379 1511 450 1585 589 1585 c 0
 727 1585 799 1510 799 1388 c 0
 799 1265 728 1190 589 1190 c 0
EndSplineSet
EndChar

StartChar: ccedilla
Encoding: 164 231 126
Width: 909
Flags: W
LayerCount: 2
Fore
SplineSet
270 -464 m 1
 270 -331 l 1
 295 -331 453 -341 453 -296 c 0
 453 -246 353 -213 317 -200 c 1
 317 0 l 1
 458 0 l 1
 458 -107 l 1
 532 -142 641 -206 641 -300 c 0
 641 -464 383 -464 270 -464 c 1
947 439 m 1
 947 281 l 2
 947 96 825 -24 535 -24 c 0
 310 -24 112 96 112 281 c 2
 112 740 l 2
 112 961 248 1104 532 1104 c 0
 880 1104 947 962 947 740 c 2
 947 645 l 1
 645 645 l 1
 645 812 l 2
 645 849 630 894 536 894 c 0
 445 894 422 847 422 812 c 2
 422 277 l 2
 422 241 437 186 536 186 c 0
 639 186 645 239 645 277 c 2
 645 439 l 1
 947 439 l 1
EndSplineSet
EndChar

StartChar: eacute
Encoding: 166 233 127
Width: 1148
Flags: W
LayerCount: 2
Fore
SplineSet
496 1189 m 1
 608 1554 l 1
 894 1554 l 1
 664 1189 l 1
 496 1189 l 1
591 -24 m 0
 881 -24 1071 39 1071 319 c 2
 1071 395 l 1
 768 395 l 1
 768 319 l 2
 768 212 701 186 598 186 c 0
 499 186 432 211 432 318 c 2
 432 515 l 1
 1071 515 l 1
 1071 740 l 2
 1071 962 937 1104 589 1104 c 0
 320 1104 122 987 122 760 c 2
 122 319 l 2
 122 35 351 -24 591 -24 c 0
432 664 m 1
 432 760 l 2
 432 866 507 894 598 894 c 0
 692 894 768 875 768 760 c 2
 768 664 l 1
 432 664 l 1
EndSplineSet
EndChar

StartChar: egrave
Encoding: 165 232 128
Width: 916
Flags: W
LayerCount: 2
Fore
SplineSet
488 1153 m 1
 259 1518 l 1
 545 1518 l 1
 658 1153 l 1
 488 1153 l 1
535 -24 m 0
 825 -24 951 96 951 281 c 2
 951 409 l 1
 649 409 l 1
 649 277 l 2
 649 239 639 186 536 186 c 0
 437 186 422 241 422 277 c 2
 422 515 l 1
 952 515 l 1
 952 664 l 1
 951 664 l 1
 951 740 l 2
 951 962 880 1104 532 1104 c 0
 248 1104 112 961 112 740 c 2
 112 281 l 2
 112 96 310 -24 535 -24 c 0
422 664 m 1
 422 812 l 2
 422 847 445 894 536 894 c 0
 630 894 649 849 649 812 c 2
 649 664 l 1
 422 664 l 1
EndSplineSet
EndChar

StartChar: ecircumflex
Encoding: 167 234 129
Width: 916
Flags: W
LayerCount: 2
Fore
SplineSet
535 -24 m 0
 825 -24 951 96 951 281 c 2
 951 409 l 1
 649 409 l 1
 649 277 l 2
 649 239 639 186 536 186 c 0
 437 186 422 241 422 277 c 2
 422 515 l 1
 952 515 l 1
 952 664 l 1
 951 664 l 1
 951 740 l 2
 951 962 880 1104 532 1104 c 0
 248 1104 112 961 112 740 c 2
 112 281 l 2
 112 96 310 -24 535 -24 c 0
422 664 m 1
 422 812 l 2
 422 847 445 894 536 894 c 0
 630 894 649 849 649 812 c 2
 649 664 l 1
 422 664 l 1
109 1189 m 1
 275 1525 l 1
 651 1525 l 1
 821 1189 l 1
 574 1189 l 1
 463 1356 l 1
 354 1189 l 1
 109 1189 l 1
EndSplineSet
EndChar

StartChar: edieresis
Encoding: 168 235 130
Width: 916
Flags: W
LayerCount: 2
Fore
SplineSet
535 -24 m 0
 825 -24 951 96 951 281 c 2
 951 409 l 1
 649 409 l 1
 649 277 l 2
 649 239 639 186 536 186 c 0
 437 186 422 241 422 277 c 2
 422 515 l 1
 952 515 l 1
 952 664 l 1
 951 664 l 1
 951 740 l 2
 951 962 880 1104 532 1104 c 0
 248 1104 112 961 112 740 c 2
 112 281 l 2
 112 96 310 -24 535 -24 c 0
422 664 m 1
 422 812 l 2
 422 847 445 894 536 894 c 0
 630 894 649 849 649 812 c 2
 649 664 l 1
 422 664 l 1
83 1189 m 1
 83 1444 l 1
 372 1444 l 1
 372 1189 l 1
 83 1189 l 1
595 1189 m 1
 595 1444 l 1
 885 1444 l 1
 885 1189 l 1
 595 1189 l 1
EndSplineSet
EndChar

StartChar: iacute
Encoding: 170 237 131
Width: 440
Flags: W
LayerCount: 2
Fore
SplineSet
103 0 m 1
 103 1080 l 1
 381 1080 l 1
 381 0 l 1
 103 0 l 1
159 1189 m 1
 271 1554 l 1
 557 1554 l 1
 327 1189 l 1
 159 1189 l 1
EndSplineSet
EndChar

StartChar: igrave
Encoding: 169 236 132
Width: 440
Flags: W
LayerCount: 2
Fore
SplineSet
250 1153 m 1
 21 1518 l 1
 307 1518 l 1
 420 1153 l 1
 250 1153 l 1
103 0 m 1
 103 1080 l 1
 381 1080 l 1
 381 0 l 1
 103 0 l 1
EndSplineSet
EndChar

StartChar: icircumflex
Encoding: 171 238 133
Width: 440
Flags: W
LayerCount: 2
Fore
SplineSet
103 0 m 1
 103 1080 l 1
 381 1080 l 1
 381 0 l 1
 103 0 l 1
-46 1189 m 1
 120 1525 l 1
 496 1525 l 1
 666 1189 l 1
 419 1189 l 1
 308 1356 l 1
 199 1189 l 1
 -46 1189 l 1
EndSplineSet
EndChar

StartChar: idieresis
Encoding: 172 239 134
Width: 440
Flags: W
LayerCount: 2
Fore
SplineSet
103 0 m 1
 103 1080 l 1
 381 1080 l 1
 381 0 l 1
 103 0 l 1
-71 1189 m 1
 -71 1444 l 1
 218 1444 l 1
 218 1189 l 1
 -71 1189 l 1
441 1189 m 1
 441 1444 l 1
 731 1444 l 1
 731 1189 l 1
 441 1189 l 1
EndSplineSet
EndChar

StartChar: ntilde
Encoding: 174 241 135
Width: 990
Flags: W
LayerCount: 2
Fore
SplineSet
293 1183 m 1
 155 1183 l 1
 155 1309 175 1431 308 1431 c 0
 461 1431 624 1383 679 1383 c 0
 708 1383 708 1401 708 1421 c 1
 837 1421 l 1
 837 1332 827 1174 708 1174 c 0
 620 1174 456 1235 334 1235 c 0
 291 1235 293 1206 293 1183 c 1
131 0 m 1
 131 1080 l 1
 441 1080 l 1
 441 1004 l 1
 499 1050 573 1104 719 1104 c 0
 880 1104 975 991 975 854 c 2
 975 0 l 1
 664 0 l 1
 664 790 l 2
 664 867 621 894 572 894 c 0
 511 894 441 851 441 814 c 2
 441 0 l 1
 131 0 l 1
EndSplineSet
EndChar

StartChar: oacute
Encoding: 176 243 136
Width: 959
Flags: W
LayerCount: 2
Fore
SplineSet
112 281 m 2
 112 740 l 2
 112 961 248 1104 532 1104 c 0
 880 1104 964 962 964 740 c 2
 964 281 l 2
 964 96 825 -24 535 -24 c 0
 310 -24 112 96 112 281 c 2
654 277 m 2
 654 812 l 2
 654 849 630 894 536 894 c 0
 445 894 422 847 422 812 c 2
 422 277 l 2
 422 241 437 186 536 186 c 0
 639 186 654 239 654 277 c 2
319 1189 m 1
 431 1554 l 1
 717 1554 l 1
 487 1189 l 1
 319 1189 l 1
EndSplineSet
EndChar

StartChar: ograve
Encoding: 175 242 137
Width: 959
Flags: W
LayerCount: 2
Fore
SplineSet
112 281 m 2
 112 740 l 2
 112 961 248 1104 532 1104 c 0
 880 1104 964 962 964 740 c 2
 964 281 l 2
 964 96 825 -24 535 -24 c 0
 310 -24 112 96 112 281 c 2
654 277 m 2
 654 812 l 2
 654 849 630 894 536 894 c 0
 445 894 422 847 422 812 c 2
 422 277 l 2
 422 241 437 186 536 186 c 0
 639 186 654 239 654 277 c 2
318 1189 m 1
 89 1554 l 1
 375 1554 l 1
 488 1189 l 1
 318 1189 l 1
EndSplineSet
EndChar

StartChar: ocircumflex
Encoding: 177 244 138
Width: 959
Flags: W
LayerCount: 2
Fore
SplineSet
112 281 m 2
 112 740 l 2
 112 961 248 1104 532 1104 c 0
 880 1104 964 962 964 740 c 2
 964 281 l 2
 964 96 825 -24 535 -24 c 0
 310 -24 112 96 112 281 c 2
654 277 m 2
 654 812 l 2
 654 849 630 894 536 894 c 0
 445 894 422 847 422 812 c 2
 422 277 l 2
 422 241 437 186 536 186 c 0
 639 186 654 239 654 277 c 2
115 1189 m 1
 281 1525 l 1
 657 1525 l 1
 827 1189 l 1
 580 1189 l 1
 469 1356 l 1
 360 1189 l 1
 115 1189 l 1
EndSplineSet
EndChar

StartChar: odieresis
Encoding: 179 246 139
Width: 959
Flags: W
LayerCount: 2
Fore
SplineSet
112 281 m 2
 112 740 l 2
 112 961 248 1104 532 1104 c 0
 880 1104 964 962 964 740 c 2
 964 281 l 2
 964 96 825 -24 535 -24 c 0
 310 -24 112 96 112 281 c 2
654 277 m 2
 654 812 l 2
 654 849 630 894 536 894 c 0
 445 894 422 847 422 812 c 2
 422 277 l 2
 422 241 437 186 536 186 c 0
 639 186 654 239 654 277 c 2
89 1189 m 1
 89 1444 l 1
 378 1444 l 1
 378 1189 l 1
 89 1189 l 1
601 1189 m 1
 601 1444 l 1
 891 1444 l 1
 891 1189 l 1
 601 1189 l 1
EndSplineSet
EndChar

StartChar: otilde
Encoding: 178 245 140
Width: 959
Flags: W
LayerCount: 2
Fore
SplineSet
277 1183 m 1
 139 1183 l 1
 139 1309 159 1431 292 1431 c 0
 445 1431 608 1383 663 1383 c 0
 692 1383 692 1401 692 1421 c 1
 821 1421 l 1
 821 1332 811 1174 692 1174 c 0
 604 1174 440 1235 318 1235 c 0
 275 1235 277 1206 277 1183 c 1
112 281 m 2
 112 740 l 2
 112 961 248 1104 532 1104 c 0
 880 1104 964 962 964 740 c 2
 964 281 l 2
 964 96 825 -24 535 -24 c 0
 310 -24 112 96 112 281 c 2
654 277 m 2
 654 812 l 2
 654 849 630 894 536 894 c 0
 445 894 422 847 422 812 c 2
 422 277 l 2
 422 241 437 186 536 186 c 0
 639 186 654 239 654 277 c 2
EndSplineSet
EndChar

StartChar: uacute
Encoding: 183 250 141
Width: 992
Flags: W
LayerCount: 2
Fore
SplineSet
975 1080 m 1
 975 0 l 1
 664 0 l 1
 664 76 l 1
 606 30 532 -24 386 -24 c 0
 225 -24 131 89 131 226 c 2
 131 1080 l 1
 441 1080 l 1
 441 290 l 2
 441 213 485 186 534 186 c 0
 595 186 664 229 664 266 c 2
 664 1080 l 1
 975 1080 l 1
329 1189 m 1
 441 1554 l 1
 727 1554 l 1
 497 1189 l 1
 329 1189 l 1
EndSplineSet
EndChar

StartChar: ugrave
Encoding: 182 249 142
Width: 1138
Flags: W
LayerCount: 2
Fore
SplineSet
1097 1080 m 1
 1097 0 l 1
 787 0 l 1
 787 136 l 1
 749 49 612 -24 465 -24 c 0
 283 -24 135 89 135 276 c 2
 135 1080 l 1
 445 1080 l 1
 445 317 l 2
 445 201 545 186 609 186 c 0
 670 186 787 215 787 320 c 2
 787 1080 l 1
 1097 1080 l 1
473 1153 m 1
 244 1518 l 1
 530 1518 l 1
 643 1153 l 1
 473 1153 l 1
EndSplineSet
EndChar

StartChar: ucircumflex
Encoding: 184 251 143
Width: 1138
Flags: W
LayerCount: 2
Fore
SplineSet
1097 1080 m 1
 1097 0 l 1
 787 0 l 1
 787 136 l 1
 749 49 612 -24 465 -24 c 0
 283 -24 135 89 135 276 c 2
 135 1080 l 1
 445 1080 l 1
 445 317 l 2
 445 201 545 186 609 186 c 0
 670 186 787 215 787 320 c 2
 787 1080 l 1
 1097 1080 l 1
249 1234 m 1
 475 1570 l 1
 721 1570 l 1
 961 1234 l 1
 734 1234 l 1
 605 1399 l 1
 474 1234 l 1
 249 1234 l 1
EndSplineSet
EndChar

StartChar: udieresis
Encoding: 185 252 144
Width: 1138
Flags: W
LayerCount: 2
Fore
SplineSet
1097 1080 m 1
 1097 0 l 1
 787 0 l 1
 787 136 l 1
 749 49 612 -24 465 -24 c 0
 283 -24 135 89 135 276 c 2
 135 1080 l 1
 445 1080 l 1
 445 317 l 2
 445 201 545 186 609 186 c 0
 670 186 787 215 787 320 c 2
 787 1080 l 1
 1097 1080 l 1
176 1235 m 1
 176 1490 l 1
 465 1490 l 1
 465 1235 l 1
 176 1235 l 1
688 1235 m 1
 688 1490 l 1
 978 1490 l 1
 978 1235 l 1
 688 1235 l 1
EndSplineSet
EndChar

StartChar: dagger
Encoding: 394 8224 145
Width: 660
Flags: W
LayerCount: 2
Fore
SplineSet
224 0 m 1
 224 781 l 1
 65 781 l 1
 65 993 l 1
 224 993 l 1
 224 1271 l 1
 436 1271 l 1
 436 993 l 1
 595 993 l 1
 595 781 l 1
 436 781 l 1
 436 0 l 1
 224 0 l 1
EndSplineSet
EndChar

StartChar: degree
Encoding: 111 176 146
Width: 1113
Flags: W
LayerCount: 2
Fore
SplineSet
550 873 m 0
 242 873 114 1004 114 1207 c 0
 114 1411 243 1540 550 1540 c 0
 859 1540 989 1411 989 1207 c 0
 989 1003 861 873 550 873 c 0
550 1039 m 0
 726 1039 804 1116 804 1206 c 0
 804 1297 727 1374 550 1374 c 0
 376 1374 298 1298 298 1207 c 0
 298 1117 376 1039 550 1039 c 0
EndSplineSet
EndChar

StartChar: cent
Encoding: 97 162 147
Width: 887
Flags: W
LayerCount: 2
Fore
SplineSet
385 -218 m 1
 385 26 l 1
 208 40 72 157 72 330 c 2
 72 698 l 2
 72 907 162 1047 385 1060 c 1
 385 1298 l 1
 519 1298 l 1
 519 1060 l 1
 737 1044 825 907 825 698 c 2
 825 652 l 1
 549 652 l 1
 550 713 l 2
 551 787 540 838 446 838 c 0
 367 838 351 791 351 756 c 2
 351 336 l 2
 351 300 360 245 446 245 c 0
 531 245 552 281 552 348 c 0
 552 359 550 370 549 435 c 1
 825 435 l 1
 825 330 l 2
 825 159 692 43 519 26 c 1
 519 -218 l 1
 385 -218 l 1
EndSplineSet
EndChar

StartChar: sterling
Encoding: 98 163 148
Width: 1088
Flags: W
LayerCount: 2
Fore
SplineSet
70 0 m 1
 70 154 l 1
 170 203 l 1
 170 600 l 1
 70 600 l 1
 70 814 l 1
 170 814 l 1
 170 998 l 2
 170 1241 210 1518 577 1518 c 0
 980 1518 1008 1293 1008 1080 c 1
 683 1080 l 1
 683 1143 683 1284 577 1284 c 0
 483 1284 472 1124 472 996 c 2
 472 814 l 1
 822 814 l 1
 822 600 l 1
 472 600 l 1
 472 235 l 1
 999 235 l 1
 999 0 l 1
 70 0 l 1
EndSplineSet
EndChar

StartChar: section
Encoding: 102 167 149
Width: 1032
Flags: W
LayerCount: 2
Fore
SplineSet
698 281 m 0
 698 529 86 487 86 787 c 0
 86 895 133 990 230 1040 c 1
 156 1087 86 1151 86 1245 c 0
 86 1444 234 1540 527 1540 c 0
 789 1540 899 1407 939 1238 c 1
 757 1178 l 1
 732 1243 673 1340 527 1340 c 0
 420 1340 356 1305 356 1245 c 0
 356 1163 532 1139 633 1104 c 1
 797 1022 936 912 936 751 c 0
 936 652 897 565 813 511 c 1
 880 453 936 373 936 281 c 0
 936 82 789 -15 527 -15 c 0
 232 -15 127 119 84 288 c 1
 266 348 l 1
 291 283 383 185 527 185 c 0
 634 185 698 221 698 281 c 0
576 658 m 1
 640 677 698 706 698 751 c 0
 698 786 612 834 541 868 c 1
 476 897 l 1
 409 874 356 832 356 787 c 0
 356 719 493 690 576 658 c 1
EndSplineSet
EndChar

StartChar: bullet
Encoding: 396 8226 150
Width: 988
Flags: W
LayerCount: 2
Fore
SplineSet
493 277 m 0
 254 277 100 383 100 594 c 0
 100 807 255 914 493 914 c 0
 734 914 889 807 889 594 c 0
 889 384 733 277 493 277 c 0
EndSplineSet
EndChar

StartChar: paragraph
Encoding: 116 182 151
Width: 918
Flags: W
LayerCount: 2
Fore
SplineSet
326 0 m 1
 326 734 l 1
 154 738 19 840 19 1020 c 0
 19 1236 178 1310 372 1310 c 2
 855 1310 l 1
 855 0 l 1
 682 0 l 1
 682 734 l 1
 514 734 l 1
 514 0 l 1
 326 0 l 1
EndSplineSet
EndChar

StartChar: germandbls
Encoding: 156 223 152
Width: 1185
Flags: W
LayerCount: 2
Fore
SplineSet
82 0 m 1
 82 1124 l 2
 82 1335 198 1518 526 1518 c 0
 918 1518 1044 1367 1044 1116 c 0
 1044 988 990 868 833 808 c 1
 1042 752 1128 577 1128 410 c 0
 1128 114 970 -29 479 -29 c 1
 479 178 l 1
 780 178 833 263 833 443 c 0
 833 580 717 673 480 674 c 1
 480 884 l 1
 666 885 718 1018 718 1116 c 0
 718 1205 710 1312 558 1312 c 0
 390 1312 385 1212 385 1128 c 2
 385 0 l 1
 82 0 l 1
EndSplineSet
EndChar

StartChar: registered
Encoding: 109 174 153
Width: 1897
Flags: W
LayerCount: 2
Fore
SplineSet
1329 223 m 1
 1526 309 1645 449 1645 595 c 0
 1645 833 1327 1055 879 1055 c 0
 752 1055 685 1035 626 1001 c 1
 867 1001 l 2
 1157 1001 1295 918 1295 760 c 0
 1295 676 1238 608 1107 564 c 1
 1144 452 1252 330 1329 223 c 1
879 -12 m 0
 400 -12 69 268 69 598 c 0
 69 927 400 1209 879 1209 c 0
 1482 1209 1813 927 1813 598 c 0
 1813 269 1481 -12 879 -12 c 0
607 208 m 1
 607 991 l 1
 378 908 235 756 235 595 c 0
 235 356 554 135 879 135 c 0
 1035 135 1179 162 1295 208 c 1
 1040 208 l 1
 848 530 l 1
 761 530 l 1
 761 208 l 1
 607 208 l 1
761 634 m 1
 938 634 1012 662 1012 763 c 0
 1012 827 977 879 846 879 c 2
 761 879 l 1
 761 634 l 1
EndSplineSet
EndChar

StartChar: copyright
Encoding: 104 169 154
Width: 1752
Flags: W
LayerCount: 2
Fore
SplineSet
1017 508 m 1
 1191 508 l 1
 1191 323 1121 181 879 181 c 0
 550 181 545 400 545 592 c 0
 545 795 547 1012 889 1012 c 0
 1136 1012 1194 868 1194 704 c 1
 1015 704 l 1
 1015 750 1016 867 892 867 c 0
 764 867 706 811 706 604 c 0
 706 360 769 329 879 329 c 0
 1020 329 1017 453 1017 508 c 1
873 135 m 0
 1186 135 1500 357 1500 595 c 0
 1500 833 1186 1055 873 1055 c 0
 550 1055 235 834 235 595 c 0
 235 356 550 135 873 135 c 0
873 -12 m 0
 400 -12 69 268 69 598 c 0
 69 927 400 1209 873 1209 c 0
 1337 1209 1668 927 1668 598 c 0
 1668 269 1336 -12 873 -12 c 0
EndSplineSet
EndChar

StartChar: trademark
Encoding: 403 8482 155
Width: 2267
Flags: W
LayerCount: 2
Fore
SplineSet
273 568 m 1
 273 1129 l 1
 138 1129 l 1
 138 1256 l 1
 658 1256 l 1
 658 1129 l 1
 414 1129 l 1
 414 568 l 1
 273 568 l 1
795 568 m 1
 795 1256 l 1
 1051 1256 l 1
 1206 881 l 1
 1365 1256 l 1
 1620 1256 l 1
 1620 568 l 1
 1487 568 l 1
 1487 1027 l 1
 1283 568 l 1
 1130 568 l 1
 926 1027 l 1
 926 568 l 1
 795 568 l 1
EndSplineSet
EndChar

StartChar: acute
Encoding: 115 180 156
Width: 527
Flags: W
LayerCount: 2
Fore
SplineSet
94 1153 m 1
 206 1518 l 1
 492 1518 l 1
 262 1153 l 1
 94 1153 l 1
EndSplineSet
EndChar

StartChar: dieresis
Encoding: 103 168 157
Width: 942
Flags: W
LayerCount: 2
Fore
SplineSet
96 1235 m 1
 96 1490 l 1
 385 1490 l 1
 385 1235 l 1
 96 1235 l 1
608 1235 m 1
 608 1490 l 1
 898 1490 l 1
 898 1235 l 1
 608 1235 l 1
EndSplineSet
EndChar

StartChar: AE
Encoding: 131 198 158
Width: 1612
Flags: W
LayerCount: 2
Fore
SplineSet
36 0 m 1
 934 1490 l 1
 1588 1490 l 1
 1588 1283 l 1
 1268 1283 l 1
 1268 877 l 1
 1494 877 l 1
 1494 665 l 1
 1268 665 l 1
 1268 207 l 1
 1588 207 l 1
 1588 0 l 1
 989 0 l 1
 989 319 l 1
 566 319 l 1
 354 0 l 1
 36 0 l 1
674 504 m 1
 989 504 l 1
 989 979 l 1
 674 504 l 1
EndSplineSet
EndChar

StartChar: Oslash
Encoding: 149 216 159
Width: 1225
Flags: W
LayerCount: 2
Fore
SplineSet
213 -207 m 1
 276 22 l 1
 124 106 70 284 70 490 c 2
 70 991 l 2
 70 1286 173 1518 612 1518 c 0
 733 1518 838 1508 895 1490 c 1
 956 1710 l 1
 1036 1694 l 1
 970 1454 l 1
 1107 1365 1156 1193 1156 991 c 2
 1156 497 l 2
 1156 210 1050 -29 612 -29 c 0
 508 -29 417 -21 352 -8 c 1
 293 -223 l 1
 213 -207 l 1
855 415 m 2
 853 1066 l 2
 853 1160 818 1286 612 1286 c 0
 406 1286 371 1160 371 1066 c 2
 371 415 l 2
 371 319 404 195 614 195 c 0
 823 195 855 319 855 415 c 2
EndSplineSet
EndChar

StartChar: plusminus
Encoding: 112 177 160
Width: 740
Flags: W
LayerCount: 2
Fore
SplineSet
113 0 m 1
 113 185 l 1
 618 185 l 1
 618 0 l 1
 113 0 l 1
273 322 m 1
 273 482 l 1
 113 482 l 1
 113 667 l 1
 273 667 l 1
 273 828 l 1
 458 828 l 1
 458 667 l 1
 618 667 l 1
 618 482 l 1
 458 482 l 1
 458 322 l 1
 273 322 l 1
EndSplineSet
EndChar

StartChar: yen
Encoding: 100 165 161
Width: 1036
Flags: W
LayerCount: 2
Fore
SplineSet
395 0 m 1
 395 214 l 1
 167 214 l 1
 167 379 l 1
 395 379 l 1
 395 463 l 1
 167 463 l 1
 167 626 l 1
 322 626 l 1
 207 926 123 1225 42 1525 c 1
 319 1525 l 1
 513 780 l 1
 705 1525 l 1
 981 1525 l 1
 698 626 l 1
 857 626 l 1
 857 463 l 1
 632 463 l 1
 632 379 l 1
 857 379 l 1
 857 214 l 1
 632 214 l 1
 632 0 l 1
 395 0 l 1
EndSplineSet
EndChar

StartChar: product
Encoding: 404 8719 162
Width: 1327
Flags: W
LayerCount: 2
Fore
SplineSet
118 0 m 1
 118 1483 l 1
 1209 1483 l 1
 1209 0 l 1
 997 0 l 1
 997 1324 l 1
 330 1324 l 1
 330 0 l 1
 118 0 l 1
EndSplineSet
EndChar

StartChar: integral
Encoding: 408 8747 163
Width: 607
Flags: W
LayerCount: 2
Fore
SplineSet
12 -202 m 1
 12 -45 l 1
 38 -49 68 -53 84 -53 c 0
 164 -53 171 9 171 79 c 2
 171 1112 l 2
 171 1271 171 1430 411 1430 c 0
 451 1430 482 1427 542 1420 c 1
 542 1263 l 1
 516 1265 488 1271 471 1271 c 0
 391 1271 383 1209 383 1139 c 2
 383 106 l 2
 383 -53 383 -212 143 -212 c 0
 103 -212 72 -209 12 -202 c 1
EndSplineSet
EndChar

StartChar: ordfeminine
Encoding: 105 170 164
Width: 864
Flags: W
LayerCount: 2
Fore
SplineSet
574 0 m 1
 574 70 l 1
 511 22 399 -9 301 -9 c 0
 207 -9 128 70 128 164 c 0
 128 334 308 383 547 426 c 1
 547 497 l 2
 547 531 541 601 453 601 c 0
 346 601 338 517 338 475 c 1
 156 475 l 1
 158 620 238 746 459 746 c 0
 877 746 702 241 759 0 c 1
 574 0 l 1
547 198 m 1
 547 333 l 1
 467 307 314 262 314 202 c 0
 314 171 338 143 401 143 c 0
 462 143 520 167 547 198 c 1
EndSplineSet
EndChar

StartChar: ordmasculine
Encoding: 119 186 165
Width: 954
Flags: W
LayerCount: 2
Fore
SplineSet
94 356 m 2
 94 622 l 2
 94 835 161 990 482 990 c 0
 779 990 861 822 861 622 c 2
 861 356 l 2
 861 153 780 -12 482 -12 c 0
 161 -12 94 142 94 356 c 2
648 390 m 2
 648 588 l 2
 648 667 660 798 475 798 c 0
 289 798 296 665 296 588 c 2
 296 390 l 2
 296 314 289 179 475 179 c 0
 660 179 648 311 648 390 c 2
EndSplineSet
EndChar

StartChar: ae
Encoding: 163 230 166
Width: 1411
Flags: W
LayerCount: 2
Fore
SplineSet
354 719 m 1
 60 719 l 1
 60 957 186 1106 482 1106 c 0
 495 1106 510 1105 523 1105 c 0
 628 1103 697 1068 736 1020 c 1
 785 1070 869 1105 1007 1105 c 0
 1230 1105 1363 951 1363 826 c 0
 1363 595 1082 561 882 542 c 1
 882 286 l 2
 882 250 889 195 977 195 c 0
 1066 195 1082 259 1082 318 c 0
 1082 352 1077 384 1077 402 c 1
 1356 402 l 1
 1356 281 l 2
 1356 96 1225 -14 1022 -24 c 1
 863 -24 750 34 724 120 c 1
 673 27 505 -24 340 -24 c 0
 182 -24 52 63 52 241 c 0
 52 507 227 561 586 617 c 1
 586 729 l 2
 586 793 575 885 456 885 c 0
 365 885 349 835 349 786 c 0
 349 761 354 737 354 719 c 1
623 348 m 0
 623 363 614 485 614 485 c 1
 334 431 303 359 303 293 c 0
 303 245 344 186 441 186 c 0
 571 186 623 266 623 348 c 0
882 798 m 2
 882 665 l 1
 882 665 1135 698 1135 801 c 0
 1135 847 1108 892 1007 892 c 0
 928 892 882 833 882 798 c 2
EndSplineSet
EndChar

StartChar: oslash
Encoding: 181 248 167
Width: 909
Flags: W
LayerCount: 2
Fore
SplineSet
172 -193 m 1
 233 17 l 1
 136 67 69 160 69 281 c 2
 69 740 l 2
 69 961 166 1104 450 1104 c 0
 541 1104 597 1097 636 1085 c 1
 697 1294 l 1
 760 1278 l 1
 697 1058 l 1
 797 999 841 886 841 740 c 2
 841 281 l 2
 841 96 681 -23 450 -23 c 0
 380 -23 329 -18 293 -7 c 1
 235 -209 l 1
 172 -193 l 1
565 286 m 2
 565 798 l 2
 565 835 544 880 450 880 c 0
 359 880 348 833 348 798 c 2
 348 286 l 2
 348 250 350 195 450 195 c 0
 553 195 565 248 565 286 c 2
EndSplineSet
EndChar

StartChar: questiondown
Encoding: 124 191 168
Width: 978
Flags: W
LayerCount: 2
Fore
SplineSet
1580 683 m 1
 1580 362 l 1
 1442 268 1279 103 1279 -80 c 0
 1279 -156 1327 -195 1394 -195 c 0
 1459 -195 1488 -134 1488 -64 c 0
 1488 -31 1482 7 1472 39 c 1
 1732 89 l 1
 1748 29 1756 -30 1756 -85 c 0
 1756 -285 1647 -438 1394 -438 c 0
 1080 -438 940 -305 940 -64 c 0
 940 149 1047 344 1303 451 c 1
 1303 683 l 1
 1580 683 l 1
1580 1080 m 1
 1580 812 l 1
 1303 812 l 1
 1303 1080 l 1
 1580 1080 l 1
EndSplineSet
EndChar

StartChar: exclamdown
Encoding: 96 161 169
Width: 433
Flags: W
LayerCount: 2
Fore
SplineSet
276 697 m 1
 362 -410 l 1
 79 -410 l 1
 180 697 l 1
 276 697 l 1
362 1080 m 1
 362 817 l 1
 95 817 l 1
 95 1080 l 1
 362 1080 l 1
EndSplineSet
EndChar

StartChar: logicalnot
Encoding: 107 172 170
Width: 685
Flags: W
LayerCount: 2
Fore
SplineSet
113 375 m 1
 113 559 l 1
 565 559 l 1
 565 214 l 1
 434 214 l 1
 434 375 l 1
 113 375 l 1
EndSplineSet
EndChar

StartChar: florin
Encoding: 309 402 171
Width: 607
Flags: W
LayerCount: 2
Fore
SplineSet
12 -202 m 1
 12 -45 l 1
 38 -49 68 -53 84 -53 c 0
 164 -53 171 9 171 79 c 2
 171 894 l 1
 54 894 l 1
 54 1080 l 1
 171 1080 l 1
 171 1112 l 2
 171 1271 171 1430 411 1430 c 0
 451 1430 482 1427 542 1420 c 1
 542 1263 l 1
 516 1265 488 1271 471 1271 c 0
 391 1271 383 1209 383 1139 c 2
 383 1080 l 1
 530 1080 l 1
 530 894 l 1
 383 894 l 1
 383 106 l 2
 383 -53 383 -212 143 -212 c 0
 103 -212 72 -209 12 -202 c 1
EndSplineSet
EndChar

StartChar: Delta
Encoding: 363 916 172
Width: 1141
Flags: W
LayerCount: 2
Fore
SplineSet
345 159 m 1
 796 159 l 1
 570 1042 l 1
 345 159 l 1
65 0 m 1
 379 1360 l 1
 764 1360 l 1
 1078 0 l 1
 65 0 l 1
EndSplineSet
EndChar

StartChar: guillemotleft
Encoding: 106 171 173
Width: 1139
Flags: W
LayerCount: 2
Fore
SplineSet
570 53 m 1
 65 477 l 1
 65 583 l 1
 570 1006 l 1
 570 741 l 1
 224 530 l 1
 570 318 l 1
 570 53 l 1
1075 53 m 1
 570 477 l 1
 570 583 l 1
 1075 1006 l 1
 1075 741 l 1
 856 530 l 1
 1075 318 l 1
 1075 53 l 1
EndSplineSet
EndChar

StartChar: guillemotright
Encoding: 120 187 174
Width: 1139
Flags: W
LayerCount: 2
Fore
SplineSet
570 53 m 1
 570 318 l 1
 916 530 l 1
 570 741 l 1
 570 1006 l 1
 1075 583 l 1
 1075 477 l 1
 570 53 l 1
65 53 m 1
 65 318 l 1
 284 530 l 1
 65 741 l 1
 65 1006 l 1
 570 583 l 1
 570 477 l 1
 65 53 l 1
EndSplineSet
EndChar

StartChar: ellipsis
Encoding: 397 8230 175
Width: 1295
Flags: W
LayerCount: 2
Fore
SplineSet
82 0 m 1
 82 262 l 1
 351 262 l 1
 351 0 l 1
 82 0 l 1
946 0 m 1
 946 262 l 1
 1215 262 l 1
 1215 0 l 1
 946 0 l 1
1810 0 m 1
 1810 262 l 1
 2079 262 l 1
 2079 0 l 1
 1810 0 l 1
EndSplineSet
EndChar

StartChar: Agrave
Encoding: 125 192 176
Width: 1175
Flags: W
LayerCount: 2
Fore
SplineSet
617 1563 m 1
 388 1928 l 1
 674 1928 l 1
 787 1563 l 1
 617 1563 l 1
53 0 m 1
 386 1490 l 1
 909 1490 l 1
 1241 0 l 1
 892 0 l 1
 825 319 l 1
 467 319 l 1
 400 0 l 1
 53 0 l 1
501 504 m 1
 789 504 l 1
 649 1280 l 1
 501 504 l 1
EndSplineSet
EndChar

StartChar: Atilde
Encoding: 128 195 177
Width: 1175
Flags: W
LayerCount: 2
Fore
SplineSet
385 1593 m 1
 247 1593 l 1
 247 1719 267 1841 400 1841 c 0
 553 1841 716 1793 771 1793 c 0
 800 1793 800 1811 800 1831 c 1
 929 1831 l 1
 929 1742 919 1584 800 1584 c 0
 712 1584 548 1645 426 1645 c 0
 383 1645 385 1616 385 1593 c 1
53 0 m 1
 386 1490 l 1
 909 1490 l 1
 1241 0 l 1
 892 0 l 1
 825 319 l 1
 467 319 l 1
 400 0 l 1
 53 0 l 1
501 504 m 1
 789 504 l 1
 649 1280 l 1
 501 504 l 1
EndSplineSet
EndChar

StartChar: Otilde
Encoding: 146 213 178
Width: 1354
Flags: W
LayerCount: 2
Fore
SplineSet
475 1593 m 1
 337 1593 l 1
 337 1719 357 1841 490 1841 c 0
 643 1841 806 1793 861 1793 c 0
 890 1793 890 1811 890 1831 c 1
 1019 1831 l 1
 1019 1742 1009 1584 890 1584 c 0
 802 1584 638 1645 516 1645 c 0
 473 1645 475 1616 475 1593 c 1
917 404 m 2
 917 1082 l 2
 917 1194 900 1252 693 1252 c 0
 488 1252 469 1200 469 1082 c 2
 469 404 l 2
 469 285 486 237 693 237 c 0
 903 237 917 286 917 404 c 2
745 -29 m 2
 640 -29 l 2
 204 -29 131 186 131 473 c 2
 131 1007 l 2
 131 1302 201 1518 640 1518 c 2
 745 1518 l 2
 1184 1518 1255 1286 1255 991 c 2
 1255 490 l 2
 1255 203 1181 -29 745 -29 c 2
EndSplineSet
EndChar

StartChar: OE
Encoding: 268 338 179
Width: 1501
Flags: W
LayerCount: 2
Fore
SplineSet
70 504 m 2
 70 976 l 2
 70 1257 173 1488 612 1489 c 1
 1476 1489 l 1
 1476 1283 l 1
 1156 1283 l 1
 1156 877 l 1
 1383 877 l 1
 1383 665 l 1
 1156 665 l 1
 1156 207 l 1
 1476 207 l 1
 1476 0 l 1
 612 0 l 2
 176 0 70 212 70 504 c 2
612 209 m 2
 855 209 l 1
 855 1272 l 1
 612 1272 l 2
 406 1272 371 1146 371 1052 c 2
 371 429 l 2
 371 335 405 209 612 209 c 2
EndSplineSet
EndChar

StartChar: oe
Encoding: 269 339 180
Width: 1371
Flags: W
LayerCount: 2
Fore
SplineSet
69 281 m 2
 69 740 l 2
 69 961 166 1104 450 1104 c 0
 584 1104 651 1080 702 1039 c 1
 757 1080 826 1104 969 1104 c 0
 1221 1104 1315 962 1315 740 c 2
 1315 516 l 1
 844 516 l 1
 844 286 l 2
 844 250 851 195 939 195 c 0
 1028 195 1041 259 1041 318 c 0
 1041 352 1039 384 1039 402 c 1
 1315 402 l 1
 1315 281 l 2
 1315 96 1164 -25 954 -25 c 0
 831 -25 761 1 702 47 c 1
 640 1 564 -25 421 -25 c 0
 217 -25 69 96 69 281 c 2
565 281 m 1
 565 798 l 2
 565 835 544 880 450 880 c 0
 359 880 348 833 348 798 c 2
 348 286 l 2
 348 250 350 195 450 195 c 0
 547 195 564 244 565 281 c 1
844 663 m 1
 1039 663 l 1
 1039 798 l 2
 1039 835 1021 880 939 880 c 0
 860 880 844 833 844 798 c 2
 844 663 l 1
EndSplineSet
EndChar

StartChar: endash
Encoding: 386 8211 181
Width: 436
Flags: W
LayerCount: 2
Fore
SplineSet
3 375 m 1
 3 559 l 1
 431 559 l 1
 431 375 l 1
 3 375 l 1
EndSplineSet
EndChar

StartChar: emdash
Encoding: 387 8212 182
Width: 899
Flags: W
LayerCount: 2
Fore
SplineSet
3 375 m 1
 3 559 l 1
 895 559 l 1
 895 375 l 1
 3 375 l 1
EndSplineSet
EndChar

StartChar: quotedblleft
Encoding: 391 8220 183
Width: 932
Flags: W
LayerCount: 2
Fore
SplineSet
391 1060 m 1
 108 1060 l 1
 108 1224 59 1519 295 1518 c 1
 409 1378 l 1
 321 1379 251 1366 248 1306 c 1
 391 1306 l 1
 391 1060 l 1
809 1060 m 1
 523 1060 l 1
 523 1224 435 1519 751 1518 c 1
 819 1378 l 1
 770 1379 707 1365 704 1306 c 1
 809 1306 l 1
 809 1060 l 1
EndSplineSet
EndChar

StartChar: quotedblright
Encoding: 392 8221 184
Width: 933
Flags: W
LayerCount: 2
Fore
SplineSet
168 1060 m 1
 98 1200 l 1
 145 1199 212 1212 214 1272 c 1
 108 1272 l 1
 108 1518 l 1
 396 1518 l 1
 396 1355 484 1059 168 1060 c 1
623 1060 m 1
 508 1200 l 1
 596 1199 667 1212 670 1272 c 1
 527 1272 l 1
 527 1518 l 1
 810 1518 l 1
 810 1354 859 1059 623 1060 c 1
EndSplineSet
EndChar

StartChar: quoteleft
Encoding: 388 8216 185
Width: 465
Flags: W
LayerCount: 2
Fore
SplineSet
352 1060 m 1
 106 1060 l 1
 106 1223 57 1519 292 1518 c 1
 361 1378 l 1
 314 1379 248 1365 246 1306 c 1
 352 1306 l 1
 352 1060 l 1
EndSplineSet
EndChar

StartChar: quoteright
Encoding: 389 8217 186
Width: 465
Flags: W
LayerCount: 2
Fore
SplineSet
165 1060 m 1
 95 1200 l 1
 144 1199 209 1212 212 1272 c 1
 106 1272 l 1
 106 1518 l 1
 351 1518 l 1
 351 1355 400 1059 165 1060 c 1
EndSplineSet
EndChar

StartChar: divide
Encoding: 180 247 187
Width: 575
Flags: W
LayerCount: 2
Fore
SplineSet
5 482 m 1
 5 667 l 1
 564 667 l 1
 564 482 l 1
 5 482 l 1
166 736 m 1
 166 974 l 1
 403 974 l 1
 403 736 l 1
 166 736 l 1
166 195 m 1
 166 433 l 1
 403 433 l 1
 403 195 l 1
 166 195 l 1
EndSplineSet
EndChar

StartChar: ydieresis
Encoding: 188 255 188
Width: 954
Flags: W
LayerCount: 2
Fore
SplineSet
228 97 m 0
 228 340 43 947 15 1080 c 1
 309 1080 l 1
 490 477 l 1
 648 1080 l 1
 945 1080 l 1
 683 -29 l 1
 609 -223 338 -257 108 -257 c 2
 72 -257 l 1
 72 -65 l 1
 184 -63 228 -14 228 97 c 0
43 1235 m 1
 43 1490 l 1
 332 1490 l 1
 332 1235 l 1
 43 1235 l 1
555 1235 m 1
 555 1490 l 1
 845 1490 l 1
 845 1235 l 1
 555 1235 l 1
EndSplineSet
EndChar

StartChar: Ydieresis
Encoding: 302 376 189
Width: 1204
Flags: W
LayerCount: 2
Fore
SplineSet
201 1645 m 1
 201 1900 l 1
 490 1900 l 1
 490 1645 l 1
 201 1645 l 1
713 1645 m 1
 713 1900 l 1
 1003 1900 l 1
 1003 1645 l 1
 713 1645 l 1
340 0 m 1
 340 492 l 1
 -1 1490 l 1
 347 1490 l 1
 598 835 l 1
 689 1050 782 1275 873 1490 c 1
 1206 1490 l 1
 668 492 l 1
 668 0 l 1
 340 0 l 1
EndSplineSet
EndChar

StartChar: fraction
Encoding: 401 8260 190
Width: 511
Flags: W
LayerCount: 2
Fore
SplineSet
24 0 m 1
 237 1490 l 1
 401 1490 l 1
 186 0 l 1
 24 0 l 1
EndSplineSet
EndChar

StartChar: currency
Encoding: 99 164 191
Width: 1126
Flags: W
LayerCount: 2
Fore
SplineSet
99 479 m 1
 170 550 l 1
 134 606 118 673 118 742 c 0
 118 809 134 877 170 933 c 1
 99 1004 l 1
 174 1078 l 1
 245 1007 l 1
 307 1039 419 1059 563 1059 c 0
 707 1059 819 1039 881 1007 c 1
 953 1078 l 1
 1027 1004 l 1
 955 932 l 1
 991 877 1008 809 1008 742 c 0
 1008 673 991 606 955 550 c 1
 1027 479 l 1
 953 405 l 1
 881 476 l 1
 819 444 707 424 563 424 c 0
 419 424 307 444 245 476 c 1
 174 405 l 1
 99 479 l 1
277 742 m 0
 277 651 380 564 563 564 c 0
 763 564 849 652 849 741 c 0
 849 830 764 919 563 919 c 0
 362 919 277 831 277 742 c 0
EndSplineSet
EndChar

StartChar: guilsinglleft
Encoding: 399 8249 192
Width: 511
Flags: W
LayerCount: 2
Fore
SplineSet
436 53 m 1
 65 477 l 1
 65 583 l 1
 436 1006 l 1
 436 741 l 1
 224 530 l 1
 436 318 l 1
 436 53 l 1
EndSplineSet
EndChar

StartChar: guilsinglright
Encoding: 400 8250 193
Width: 496
Flags: W
LayerCount: 2
Fore
SplineSet
65 53 m 1
 65 318 l 1
 277 530 l 1
 65 741 l 1
 65 1006 l 1
 436 583 l 1
 436 477 l 1
 65 53 l 1
EndSplineSet
EndChar

StartChar: daggerdbl
Encoding: 395 8225 194
Width: 660
Flags: W
LayerCount: 2
Fore
SplineSet
224 0 m 1
 224 371 l 1
 65 371 l 1
 65 583 l 1
 224 583 l 1
 224 847 l 1
 65 847 l 1
 65 1059 l 1
 224 1059 l 1
 224 1271 l 1
 436 1271 l 1
 436 1059 l 1
 595 1059 l 1
 595 847 l 1
 436 847 l 1
 436 583 l 1
 595 583 l 1
 595 371 l 1
 436 371 l 1
 436 0 l 1
 224 0 l 1
EndSplineSet
EndChar

StartChar: periodcentered
Encoding: 418 183 195
Width: 430
Flags: W
LayerCount: 2
Fore
SplineSet
82 562 m 1
 82 823 l 1
 349 823 l 1
 349 562 l 1
 82 562 l 1
EndSplineSet
EndChar

StartChar: quotesinglbase
Encoding: 390 8218 196
Width: 354
Flags: W
LayerCount: 2
Fore
SplineSet
105 -266 m 1
 47 85 l 1
 299 85 l 1
 240 -266 l 1
 105 -266 l 1
EndSplineSet
EndChar

StartChar: quotedblbase
Encoding: 393 8222 197
Width: 630
Flags: W
LayerCount: 2
Fore
SplineSet
108 -265 m 1
 50 86 l 1
 301 86 l 1
 242 -265 l 1
 108 -265 l 1
376 -265 m 1
 317 86 l 1
 569 86 l 1
 510 -265 l 1
 376 -265 l 1
EndSplineSet
EndChar

StartChar: Acircumflex
Encoding: 127 194 198
Width: 1175
Flags: W
LayerCount: 2
Fore
SplineSet
232 1563 m 1
 398 1899 l 1
 774 1899 l 1
 944 1563 l 1
 697 1563 l 1
 586 1730 l 1
 477 1563 l 1
 232 1563 l 1
53 0 m 1
 386 1490 l 1
 909 1490 l 1
 1241 0 l 1
 892 0 l 1
 825 319 l 1
 467 319 l 1
 400 0 l 1
 53 0 l 1
501 504 m 1
 789 504 l 1
 649 1280 l 1
 501 504 l 1
EndSplineSet
EndChar

StartChar: Ecircumflex
Encoding: 135 202 199
Width: 821
Flags: W
LayerCount: 2
Fore
SplineSet
55 1563 m 1
 221 1899 l 1
 597 1899 l 1
 767 1563 l 1
 520 1563 l 1
 409 1730 l 1
 300 1563 l 1
 55 1563 l 1
162 0 m 1
 162 1490 l 1
 943 1490 l 1
 943 1228 l 1
 501 1228 l 1
 501 877 l 1
 850 877 l 1
 850 636 l 1
 501 636 l 1
 501 261 l 1
 943 261 l 1
 943 0 l 1
 162 0 l 1
EndSplineSet
EndChar

StartChar: Aacute
Encoding: 126 193 200
Width: 1175
Flags: W
LayerCount: 2
Fore
SplineSet
389 1563 m 1
 501 1928 l 1
 787 1928 l 1
 557 1563 l 1
 389 1563 l 1
53 0 m 1
 386 1490 l 1
 909 1490 l 1
 1241 0 l 1
 892 0 l 1
 825 319 l 1
 467 319 l 1
 400 0 l 1
 53 0 l 1
501 504 m 1
 789 504 l 1
 649 1280 l 1
 501 504 l 1
EndSplineSet
EndChar

StartChar: Edieresis
Encoding: 136 203 201
Width: 821
Flags: W
LayerCount: 2
Fore
SplineSet
10 1645 m 1
 10 1900 l 1
 299 1900 l 1
 299 1645 l 1
 10 1645 l 1
522 1645 m 1
 522 1900 l 1
 812 1900 l 1
 812 1645 l 1
 522 1645 l 1
162 0 m 1
 162 1490 l 1
 943 1490 l 1
 943 1228 l 1
 501 1228 l 1
 501 877 l 1
 850 877 l 1
 850 636 l 1
 501 636 l 1
 501 261 l 1
 943 261 l 1
 943 0 l 1
 162 0 l 1
EndSplineSet
EndChar

StartChar: Egrave
Encoding: 133 200 202
Width: 821
Flags: W
LayerCount: 2
Fore
SplineSet
441 1563 m 1
 212 1928 l 1
 498 1928 l 1
 611 1563 l 1
 441 1563 l 1
162 0 m 1
 162 1490 l 1
 943 1490 l 1
 943 1228 l 1
 501 1228 l 1
 501 877 l 1
 850 877 l 1
 850 636 l 1
 501 636 l 1
 501 261 l 1
 943 261 l 1
 943 0 l 1
 162 0 l 1
EndSplineSet
EndChar

StartChar: Iacute
Encoding: 138 205 203
Width: 478
Flags: W
LayerCount: 2
Fore
SplineSet
41 1563 m 1
 153 1928 l 1
 439 1928 l 1
 209 1563 l 1
 41 1563 l 1
89 0 m 1
 89 1490 l 1
 390 1490 l 1
 390 0 l 1
 89 0 l 1
EndSplineSet
EndChar

StartChar: Icircumflex
Encoding: 139 206 204
Width: 478
Flags: W
LayerCount: 2
Fore
SplineSet
-117 1563 m 1
 49 1899 l 1
 425 1899 l 1
 595 1563 l 1
 348 1563 l 1
 237 1730 l 1
 128 1563 l 1
 -117 1563 l 1
89 0 m 1
 89 1490 l 1
 390 1490 l 1
 390 0 l 1
 89 0 l 1
EndSplineSet
EndChar

StartChar: Idieresis
Encoding: 140 207 205
Width: 478
Flags: W
LayerCount: 2
Fore
SplineSet
-162 1645 m 1
 -162 1900 l 1
 127 1900 l 1
 127 1645 l 1
 -162 1645 l 1
350 1645 m 1
 350 1900 l 1
 640 1900 l 1
 640 1645 l 1
 350 1645 l 1
89 0 m 1
 89 1490 l 1
 390 1490 l 1
 390 0 l 1
 89 0 l 1
EndSplineSet
EndChar

StartChar: Igrave
Encoding: 137 204 206
Width: 478
Flags: W
LayerCount: 2
Fore
SplineSet
269 1563 m 1
 40 1928 l 1
 326 1928 l 1
 439 1563 l 1
 269 1563 l 1
89 0 m 1
 89 1490 l 1
 390 1490 l 1
 390 0 l 1
 89 0 l 1
EndSplineSet
EndChar

StartChar: Oacute
Encoding: 144 211 207
Width: 1354
Flags: W
LayerCount: 2
Fore
SplineSet
479 1563 m 1
 591 1928 l 1
 877 1928 l 1
 647 1563 l 1
 479 1563 l 1
917 404 m 2
 917 1082 l 2
 917 1194 900 1252 693 1252 c 0
 488 1252 469 1200 469 1082 c 2
 469 404 l 2
 469 285 486 237 693 237 c 0
 903 237 917 286 917 404 c 2
745 -29 m 2
 640 -29 l 2
 204 -29 131 186 131 473 c 2
 131 1007 l 2
 131 1302 201 1518 640 1518 c 2
 745 1518 l 2
 1184 1518 1255 1286 1255 991 c 2
 1255 490 l 2
 1255 203 1181 -29 745 -29 c 2
EndSplineSet
EndChar

StartChar: Ocircumflex
Encoding: 145 212 208
Width: 1354
Flags: W
LayerCount: 2
Fore
SplineSet
322 1563 m 1
 488 1899 l 1
 864 1899 l 1
 1034 1563 l 1
 787 1563 l 1
 676 1730 l 1
 567 1563 l 1
 322 1563 l 1
917 404 m 2
 917 1082 l 2
 917 1194 900 1252 693 1252 c 0
 488 1252 469 1200 469 1082 c 2
 469 404 l 2
 469 285 486 237 693 237 c 0
 903 237 917 286 917 404 c 2
745 -29 m 2
 640 -29 l 2
 204 -29 131 186 131 473 c 2
 131 1007 l 2
 131 1302 201 1518 640 1518 c 2
 745 1518 l 2
 1184 1518 1255 1286 1255 991 c 2
 1255 490 l 2
 1255 203 1181 -29 745 -29 c 2
EndSplineSet
EndChar

StartChar: Ograve
Encoding: 143 210 209
Width: 1354
Flags: W
LayerCount: 2
Fore
SplineSet
707 1563 m 1
 478 1928 l 1
 764 1928 l 1
 877 1563 l 1
 707 1563 l 1
917 404 m 2
 917 1082 l 2
 917 1194 900 1252 693 1252 c 0
 488 1252 469 1200 469 1082 c 2
 469 404 l 2
 469 285 486 237 693 237 c 0
 903 237 917 286 917 404 c 2
745 -29 m 2
 640 -29 l 2
 204 -29 131 186 131 473 c 2
 131 1007 l 2
 131 1302 201 1518 640 1518 c 2
 745 1518 l 2
 1184 1518 1255 1286 1255 991 c 2
 1255 490 l 2
 1255 203 1181 -29 745 -29 c 2
EndSplineSet
EndChar

StartChar: Uacute
Encoding: 151 218 210
Width: 1373
Flags: W
LayerCount: 2
Fore
SplineSet
488 1563 m 1
 600 1928 l 1
 886 1928 l 1
 656 1563 l 1
 488 1563 l 1
925 1490 m 1
 1264 1490 l 1
 1264 490 l 2
 1264 203 1189 -29 753 -29 c 2
 648 -29 l 2
 212 -29 139 186 139 473 c 2
 139 1490 l 1
 477 1490 l 1
 477 404 l 2
 477 285 494 237 701 237 c 0
 911 237 925 286 925 404 c 2
 925 1490 l 1
EndSplineSet
EndChar

StartChar: Ucircumflex
Encoding: 152 219 211
Width: 1373
Flags: W
LayerCount: 2
Fore
SplineSet
331 1563 m 1
 497 1899 l 1
 873 1899 l 1
 1043 1563 l 1
 796 1563 l 1
 685 1730 l 1
 576 1563 l 1
 331 1563 l 1
925 1490 m 1
 1264 1490 l 1
 1264 490 l 2
 1264 203 1189 -29 753 -29 c 2
 648 -29 l 2
 212 -29 139 186 139 473 c 2
 139 1490 l 1
 477 1490 l 1
 477 404 l 2
 477 285 494 237 701 237 c 0
 911 237 925 286 925 404 c 2
 925 1490 l 1
EndSplineSet
EndChar

StartChar: Ugrave
Encoding: 150 217 212
Width: 1373
Flags: W
LayerCount: 2
Fore
SplineSet
717 1563 m 1
 488 1928 l 1
 774 1928 l 1
 887 1563 l 1
 717 1563 l 1
925 1490 m 1
 1264 1490 l 1
 1264 490 l 2
 1264 203 1189 -29 753 -29 c 2
 648 -29 l 2
 212 -29 139 186 139 473 c 2
 139 1490 l 1
 477 1490 l 1
 477 404 l 2
 477 285 494 237 701 237 c 0
 911 237 925 286 925 404 c 2
 925 1490 l 1
EndSplineSet
EndChar

StartChar: dotlessi
Encoding: 238 305 213
Width: 440
Flags: W
LayerCount: 2
Fore
SplineSet
103 0 m 1
 103 1080 l 1
 381 1080 l 1
 381 0 l 1
 103 0 l 1
EndSplineSet
EndChar

StartChar: circumflex
Encoding: 353 710 214
Width: 875
Flags: W
LayerCount: 2
Fore
SplineSet
89 1153 m 1
 315 1489 l 1
 561 1489 l 1
 801 1153 l 1
 574 1153 l 1
 445 1318 l 1
 314 1153 l 1
 89 1153 l 1
EndSplineSet
EndChar

StartChar: tilde
Encoding: 359 732 215
Width: 866
Flags: W
LayerCount: 2
Fore
SplineSet
238 1183 m 1
 100 1183 l 1
 100 1309 120 1431 253 1431 c 0
 406 1431 569 1383 624 1383 c 0
 653 1383 653 1401 653 1421 c 1
 782 1421 l 1
 782 1332 772 1174 653 1174 c 0
 565 1174 401 1235 279 1235 c 0
 236 1235 238 1206 238 1183 c 1
EndSplineSet
EndChar

StartChar: macron
Encoding: 110 175 216
Width: 354
Flags: W
LayerCount: 2
Fore
SplineSet
-30 1206 m 1
 -30 1365 l 1
 390 1365 l 1
 390 1206 l 1
 -30 1206 l 1
EndSplineSet
EndChar

StartChar: breve
Encoding: 355 728 217
Width: 602
Flags: W
LayerCount: 2
Fore
SplineSet
79 1395 m 1
 221 1395 l 1
 221 1354 237 1290 288 1290 c 0
 339 1290 355 1354 355 1395 c 1
 497 1395 l 1
 497 1273 410 1190 288 1190 c 0
 166 1190 79 1273 79 1395 c 1
EndSplineSet
EndChar

StartChar: dotaccent
Encoding: 356 729 218
Width: 479
Flags: W
LayerCount: 2
Fore
SplineSet
121 1240 m 1
 121 1504 l 1
 388 1504 l 1
 388 1240 l 1
 121 1240 l 1
EndSplineSet
EndChar

StartChar: ring
Encoding: 357 730 219
Width: 626
Flags: W
LayerCount: 2
Fore
SplineSet
308 1277 m 0
 370 1277 412 1300 412 1387 c 0
 412 1475 370 1499 307 1499 c 0
 246 1499 204 1476 204 1389 c 0
 204 1301 246 1277 308 1277 c 0
308 1190 m 0
 169 1190 98 1265 98 1388 c 0
 98 1511 169 1585 308 1585 c 0
 446 1585 518 1510 518 1388 c 0
 518 1265 447 1190 308 1190 c 0
EndSplineSet
EndChar

StartChar: cedilla
Encoding: 117 184 220
Width: 484
Flags: W
LayerCount: 2
Fore
SplineSet
109 -464 m 1
 109 -331 l 1
 134 -331 292 -341 292 -296 c 0
 292 -246 192 -213 156 -200 c 1
 156 0 l 1
 297 0 l 1
 297 -107 l 1
 371 -142 480 -206 480 -300 c 0
 480 -464 222 -464 109 -464 c 1
EndSplineSet
EndChar

StartChar: hungarumlaut
Encoding: 360 733 221
Width: 977
Flags: W
LayerCount: 2
Fore
SplineSet
94 1163 m 1
 207 1528 l 1
 556 1528 l 1
 263 1163 l 1
 94 1163 l 1
401 1163 m 1
 606 1528 l 1
 867 1528 l 1
 689 1163 l 1
 401 1163 l 1
EndSplineSet
EndChar

StartChar: ogonek
Encoding: 358 731 222
Width: 475
Flags: W
LayerCount: 2
Fore
SplineSet
387 -296 m 1
 370 -429 l 1
 235 -432 40 -424 40 -244 c 0
 40 -153 100 -49 165 13 c 1
 287 13 l 1
 262 -58 228 -123 228 -199 c 0
 228 -297 323 -296 387 -296 c 1
EndSplineSet
EndChar

StartChar: caron
Encoding: 354 711 223
Width: 846
Flags: W
LayerCount: 2
Fore
SplineSet
233 1146 m 1
 66 1482 l 1
 312 1482 l 1
 420 1316 l 1
 532 1482 l 1
 779 1482 l 1
 609 1146 l 1
 233 1146 l 1
EndSplineSet
EndChar

StartChar: uni00AD
Encoding: 108 173 225
Width: 665
Flags: W
LayerCount: 2
Fore
SplineSet
118 358 m 1
 118 569 l 1
 565 569 l 1
 565 358 l 1
 118 358 l 1
EndSplineSet
EndChar

StartChar: uni00B2
Encoding: 113 178 226
Width: 575
Flags: W
LayerCount: 2
Fore
SplineSet
511 1030 m 0
 511 903 320 701 254 614 c 1
 511 614 l 1
 511 482 l 1
 58 482 l 1
 58 605 l 1
 94 652 326 904 326 1030 c 0
 326 1061 331 1125 285 1125 c 0
 237 1125 242 1050 242 1019 c 1
 58 1019 l 1
 58 1162 137 1256 285 1256 c 0
 427 1256 511 1171 511 1030 c 0
EndSplineSet
EndChar

StartChar: uni00B3
Encoding: 114 179 227
Width: 685
Flags: W
LayerCount: 2
Fore
SplineSet
113 774 m 1
 296 774 l 1
 296 742 291 667 338 667 c 0
 384 667 381 731 381 762 c 0
 381 840 352 858 273 858 c 1
 273 989 l 1
 352 989 381 1007 381 1084 c 0
 381 1116 384 1180 338 1180 c 0
 291 1180 296 1103 296 1072 c 1
 113 1072 l 1
 113 1214 190 1310 338 1310 c 0
 480 1310 565 1226 565 1084 c 0
 565 1005 528 952 456 923 c 1
 527 894 565 841 565 762 c 0
 565 621 481 536 338 536 c 0
 190 536 113 631 113 774 c 1
EndSplineSet
EndChar

StartChar: uni00B9
Encoding: 118 185 228
Width: 465
Flags: W
LayerCount: 2
Fore
SplineSet
164 536 m 1
 164 1019 l 1
 57 1019 l 1
 57 1145 l 1
 140 1186 218 1238 277 1310 c 1
 348 1310 l 1
 348 536 l 1
 164 536 l 1
EndSplineSet
EndChar

StartChar: Amacron
Encoding: 189 256 229
Width: 1175
Flags: W
LayerCount: 2
Fore
SplineSet
378 1616 m 1
 378 1775 l 1
 798 1775 l 1
 798 1616 l 1
 378 1616 l 1
53 0 m 1
 386 1490 l 1
 909 1490 l 1
 1241 0 l 1
 892 0 l 1
 825 319 l 1
 467 319 l 1
 400 0 l 1
 53 0 l 1
501 504 m 1
 789 504 l 1
 649 1280 l 1
 501 504 l 1
EndSplineSet
EndChar

StartChar: amacron
Encoding: 190 257 230
Width: 983
Flags: W
LayerCount: 2
Fore
SplineSet
282 1206 m 1
 282 1365 l 1
 702 1365 l 1
 702 1206 l 1
 282 1206 l 1
641 458 m 1
 424 431 387 410 387 317 c 0
 387 222 433 136 641 233 c 1
 641 458 l 1
742 0 m 1
 693 112 l 1
 630 4 518 -24 379 -24 c 0
 213 -24 106 97 106 282 c 0
 106 548 215 594 640 636 c 1
 640 780 l 2
 640 852 613 894 528 894 c 0
 412 894 402 833 402 780 c 2
 402 719 l 1
 114 719 l 1
 114 966 223 1105 560 1105 c 0
 843 1105 950 967 950 800 c 2
 950 287 l 1
 950 0 l 1
 742 0 l 1
EndSplineSet
EndChar

StartChar: Abreve
Encoding: 191 258 231
Width: 1175
Flags: W
LayerCount: 2
Fore
SplineSet
379 1805 m 1
 521 1805 l 1
 521 1764 537 1700 588 1700 c 0
 639 1700 655 1764 655 1805 c 1
 797 1805 l 1
 797 1683 710 1600 588 1600 c 0
 466 1600 379 1683 379 1805 c 1
53 0 m 1
 386 1490 l 1
 909 1490 l 1
 1241 0 l 1
 892 0 l 1
 825 319 l 1
 467 319 l 1
 400 0 l 1
 53 0 l 1
501 504 m 1
 789 504 l 1
 649 1280 l 1
 501 504 l 1
EndSplineSet
EndChar

StartChar: abreve
Encoding: 192 259 232
Width: 983
Flags: W
LayerCount: 2
Fore
SplineSet
283 1395 m 1
 425 1395 l 1
 425 1354 441 1290 492 1290 c 0
 543 1290 559 1354 559 1395 c 1
 701 1395 l 1
 701 1273 614 1190 492 1190 c 0
 370 1190 283 1273 283 1395 c 1
641 458 m 1
 424 431 387 410 387 317 c 0
 387 222 433 136 641 233 c 1
 641 458 l 1
742 0 m 1
 693 112 l 1
 630 4 518 -24 379 -24 c 0
 213 -24 106 97 106 282 c 0
 106 548 215 594 640 636 c 1
 640 780 l 2
 640 852 613 894 528 894 c 0
 412 894 402 833 402 780 c 2
 402 719 l 1
 114 719 l 1
 114 966 223 1105 560 1105 c 0
 843 1105 950 967 950 800 c 2
 950 287 l 1
 950 0 l 1
 742 0 l 1
EndSplineSet
EndChar

StartChar: Aogonek
Encoding: 193 260 233
Width: 1175
Flags: W
LayerCount: 2
Fore
SplineSet
1057 -296 m 1
 1040 -429 l 1
 905 -432 710 -424 710 -244 c 0
 710 -153 770 -49 835 13 c 1
 957 13 l 1
 932 -58 898 -123 898 -199 c 0
 898 -297 993 -296 1057 -296 c 1
53 0 m 1
 386 1490 l 1
 909 1490 l 1
 1241 0 l 1
 892 0 l 1
 825 319 l 1
 467 319 l 1
 400 0 l 1
 53 0 l 1
501 504 m 1
 789 504 l 1
 649 1280 l 1
 501 504 l 1
EndSplineSet
EndChar

StartChar: aogonek
Encoding: 194 261 234
Width: 983
Flags: W
LayerCount: 2
Fore
SplineSet
884 -296 m 1
 867 -429 l 1
 732 -432 537 -424 537 -244 c 0
 537 -153 597 -49 662 13 c 1
 784 13 l 1
 759 -58 725 -123 725 -199 c 0
 725 -297 820 -296 884 -296 c 1
641 458 m 1
 424 431 387 410 387 317 c 0
 387 222 433 136 641 233 c 1
 641 458 l 1
742 0 m 1
 693 112 l 1
 630 4 518 -24 379 -24 c 0
 213 -24 106 97 106 282 c 0
 106 548 215 594 640 636 c 1
 640 780 l 2
 640 852 613 894 528 894 c 0
 412 894 402 833 402 780 c 2
 402 719 l 1
 114 719 l 1
 114 966 223 1105 560 1105 c 0
 843 1105 950 967 950 800 c 2
 950 287 l 1
 950 0 l 1
 742 0 l 1
EndSplineSet
EndChar

StartChar: Cacute
Encoding: 195 262 235
Width: 1295
Flags: W
LayerCount: 2
Fore
SplineSet
449 1563 m 1
 561 1928 l 1
 847 1928 l 1
 617 1563 l 1
 449 1563 l 1
910 883 m 1
 910 1082 l 2
 910 1194 900 1252 693 1252 c 0
 488 1252 469 1200 469 1082 c 2
 469 404 l 2
 469 285 486 237 693 237 c 0
 903 237 910 286 910 404 c 2
 910 606 l 1
 1237 606 l 1
 1237 473 l 2
 1237 186 1184 -29 748 -29 c 2
 640 -29 l 2
 204 -29 131 186 131 473 c 2
 131 1007 l 2
 131 1302 201 1518 640 1518 c 2
 748 1518 l 2
 1187 1518 1237 1302 1237 1007 c 2
 1237 883 l 1
 910 883 l 1
EndSplineSet
EndChar

StartChar: cacute
Encoding: 196 263 236
Width: 909
Flags: W
LayerCount: 2
Fore
SplineSet
947 439 m 1
 947 281 l 2
 947 96 825 -24 535 -24 c 0
 310 -24 112 96 112 281 c 2
 112 740 l 2
 112 961 248 1104 532 1104 c 0
 880 1104 947 962 947 740 c 2
 947 645 l 1
 645 645 l 1
 645 812 l 2
 645 849 630 894 536 894 c 0
 445 894 422 847 422 812 c 2
 422 277 l 2
 422 241 437 186 536 186 c 0
 639 186 645 239 645 277 c 2
 645 439 l 1
 947 439 l 1
312 1189 m 1
 424 1554 l 1
 710 1554 l 1
 480 1189 l 1
 312 1189 l 1
EndSplineSet
EndChar

StartChar: Ccircumflex
Encoding: 197 264 237
Width: 1295
Flags: W
LayerCount: 2
Fore
SplineSet
292 1563 m 1
 458 1899 l 1
 834 1899 l 1
 1004 1563 l 1
 757 1563 l 1
 646 1730 l 1
 537 1563 l 1
 292 1563 l 1
910 883 m 1
 910 1082 l 2
 910 1194 900 1252 693 1252 c 0
 488 1252 469 1200 469 1082 c 2
 469 404 l 2
 469 285 486 237 693 237 c 0
 903 237 910 286 910 404 c 2
 910 606 l 1
 1237 606 l 1
 1237 473 l 2
 1237 186 1184 -29 748 -29 c 2
 640 -29 l 2
 204 -29 131 186 131 473 c 2
 131 1007 l 2
 131 1302 201 1518 640 1518 c 2
 748 1518 l 2
 1187 1518 1237 1302 1237 1007 c 2
 1237 883 l 1
 910 883 l 1
EndSplineSet
EndChar

StartChar: ccircumflex
Encoding: 198 265 238
Width: 909
Flags: W
LayerCount: 2
Fore
SplineSet
99 1153 m 1
 265 1489 l 1
 641 1489 l 1
 811 1153 l 1
 564 1153 l 1
 453 1320 l 1
 344 1153 l 1
 99 1153 l 1
947 439 m 1
 947 281 l 2
 947 96 825 -24 535 -24 c 0
 310 -24 112 96 112 281 c 2
 112 740 l 2
 112 961 248 1104 532 1104 c 0
 880 1104 947 962 947 740 c 2
 947 645 l 1
 645 645 l 1
 645 812 l 2
 645 849 630 894 536 894 c 0
 445 894 422 847 422 812 c 2
 422 277 l 2
 422 241 437 186 536 186 c 0
 639 186 645 239 645 277 c 2
 645 439 l 1
 947 439 l 1
EndSplineSet
EndChar

StartChar: Cdotaccent
Encoding: 199 266 239
Width: 1295
Flags: W
LayerCount: 2
Fore
SplineSet
514 1650 m 1
 514 1914 l 1
 781 1914 l 1
 781 1650 l 1
 514 1650 l 1
910 883 m 1
 910 1082 l 2
 910 1194 900 1252 693 1252 c 0
 488 1252 469 1200 469 1082 c 2
 469 404 l 2
 469 285 486 237 693 237 c 0
 903 237 910 286 910 404 c 2
 910 606 l 1
 1237 606 l 1
 1237 473 l 2
 1237 186 1184 -29 748 -29 c 2
 640 -29 l 2
 204 -29 131 186 131 473 c 2
 131 1007 l 2
 131 1302 201 1518 640 1518 c 2
 748 1518 l 2
 1187 1518 1237 1302 1237 1007 c 2
 1237 883 l 1
 910 883 l 1
EndSplineSet
EndChar

StartChar: cdotaccent
Encoding: 200 267 240
Width: 909
Flags: W
LayerCount: 2
Fore
SplineSet
322 1240 m 1
 322 1504 l 1
 589 1504 l 1
 589 1240 l 1
 322 1240 l 1
947 439 m 1
 947 281 l 2
 947 96 825 -24 535 -24 c 0
 310 -24 112 96 112 281 c 2
 112 740 l 2
 112 961 248 1104 532 1104 c 0
 880 1104 947 962 947 740 c 2
 947 645 l 1
 645 645 l 1
 645 812 l 2
 645 849 630 894 536 894 c 0
 445 894 422 847 422 812 c 2
 422 277 l 2
 422 241 437 186 536 186 c 0
 639 186 645 239 645 277 c 2
 645 439 l 1
 947 439 l 1
EndSplineSet
EndChar

StartChar: Ccaron
Encoding: 201 268 241
Width: 1295
Flags: W
LayerCount: 2
Fore
SplineSet
458 1556 m 1
 291 1892 l 1
 537 1892 l 1
 645 1726 l 1
 757 1892 l 1
 1004 1892 l 1
 834 1556 l 1
 458 1556 l 1
910 883 m 1
 910 1082 l 2
 910 1194 900 1252 693 1252 c 0
 488 1252 469 1200 469 1082 c 2
 469 404 l 2
 469 285 486 237 693 237 c 0
 903 237 910 286 910 404 c 2
 910 606 l 1
 1237 606 l 1
 1237 473 l 2
 1237 186 1184 -29 748 -29 c 2
 640 -29 l 2
 204 -29 131 186 131 473 c 2
 131 1007 l 2
 131 1302 201 1518 640 1518 c 2
 748 1518 l 2
 1187 1518 1237 1302 1237 1007 c 2
 1237 883 l 1
 910 883 l 1
EndSplineSet
EndChar

StartChar: ccaron
Encoding: 202 269 242
Width: 909
Flags: W
LayerCount: 2
Fore
SplineSet
266 1146 m 1
 99 1482 l 1
 345 1482 l 1
 453 1316 l 1
 565 1482 l 1
 812 1482 l 1
 642 1146 l 1
 266 1146 l 1
947 439 m 1
 947 281 l 2
 947 96 825 -24 535 -24 c 0
 310 -24 112 96 112 281 c 2
 112 740 l 2
 112 961 248 1104 532 1104 c 0
 880 1104 947 962 947 740 c 2
 947 645 l 1
 645 645 l 1
 645 812 l 2
 645 849 630 894 536 894 c 0
 445 894 422 847 422 812 c 2
 422 277 l 2
 422 241 437 186 536 186 c 0
 639 186 645 239 645 277 c 2
 645 439 l 1
 947 439 l 1
EndSplineSet
EndChar

StartChar: Dcaron
Encoding: 203 270 243
Width: 1207
Flags: W
LayerCount: 2
Fore
SplineSet
414 1556 m 1
 247 1892 l 1
 493 1892 l 1
 601 1726 l 1
 713 1892 l 1
 960 1892 l 1
 790 1556 l 1
 414 1556 l 1
930 433 m 2
 930 1053 l 2
 930 1165 916 1223 709 1223 c 2
 501 1223 l 1
 501 266 l 1
 709 266 l 2
 919 266 930 315 930 433 c 2
758 0 m 2
 162 0 l 1
 162 1490 l 1
 758 1490 l 2
 1197 1490 1269 1257 1269 962 c 2
 1269 519 l 2
 1269 232 1194 0 758 0 c 2
EndSplineSet
EndChar

StartChar: dcaron
Encoding: 204 271 244
Width: 986
Flags: W
LayerCount: 2
Fore
SplineSet
428 281 m 2
 428 221 453 181 525 181 c 0
 585 181 656 219 656 253 c 2
 656 813 l 2
 656 848 600 894 534 894 c 0
 450 894 428 837 428 789 c 2
 428 281 l 2
967 0 m 1
 656 0 l 1
 656 81 l 1
 608 21 530 -25 410 -25 c 0
 266 -25 118 87 118 240 c 2
 118 828 l 2
 118 977 243 1105 430 1105 c 0
 570 1105 622 1040 656 1007 c 1
 656 1490 l 1
 967 1490 l 1
 967 0 l 1
932 1025 m 1
 899 1162 l 1
 959 1162 965 1156 966 1226 c 1
 875 1226 l 1
 875 1489 l 1
 1142 1489 l 1
 1142 1206 1166 990 932 1025 c 1
EndSplineSet
EndChar

StartChar: dcroat
Encoding: 206 273 245
Width: 925
Flags: W
LayerCount: 2
Fore
SplineSet
65 207 m 2
 65 845 l 2
 65 977 160 1105 290 1105 c 0
 377 1105 493 1062 569 1007 c 1
 569 1245 l 1
 235 1245 l 1
 235 1355 l 1
 569 1355 l 1
 569 1490 l 1
 848 1490 l 1
 848 1355 l 1
 927 1355 l 1
 927 1245 l 1
 848 1245 l 1
 848 0 l 1
 569 0 l 1
 569 81 l 1
 490 16 366 -24 281 -24 c 0
 156 -24 65 87 65 207 c 2
569 246 m 1
 569 832 l 1
 541 853 486 894 428 894 c 0
 352 894 344 855 344 823 c 2
 344 264 l 2
 344 229 351 186 428 186 c 0
 488 186 542 225 569 246 c 1
EndSplineSet
EndChar

StartChar: Emacron
Encoding: 207 274 246
Width: 821
Flags: W
LayerCount: 2
Fore
SplineSet
201 1616 m 1
 201 1775 l 1
 621 1775 l 1
 621 1616 l 1
 201 1616 l 1
162 0 m 1
 162 1490 l 1
 943 1490 l 1
 943 1228 l 1
 501 1228 l 1
 501 877 l 1
 850 877 l 1
 850 636 l 1
 501 636 l 1
 501 261 l 1
 943 261 l 1
 943 0 l 1
 162 0 l 1
EndSplineSet
EndChar

StartChar: emacron
Encoding: 208 275 247
Width: 916
Flags: W
LayerCount: 2
Fore
SplineSet
248 1206 m 1
 248 1365 l 1
 668 1365 l 1
 668 1206 l 1
 248 1206 l 1
535 -24 m 0
 825 -24 951 96 951 281 c 2
 951 409 l 1
 649 409 l 1
 649 277 l 2
 649 239 639 186 536 186 c 0
 437 186 422 241 422 277 c 2
 422 515 l 1
 952 515 l 1
 952 664 l 1
 951 664 l 1
 951 740 l 2
 951 962 880 1104 532 1104 c 0
 248 1104 112 961 112 740 c 2
 112 281 l 2
 112 96 310 -24 535 -24 c 0
422 664 m 1
 422 812 l 2
 422 847 445 894 536 894 c 0
 630 894 649 849 649 812 c 2
 649 664 l 1
 422 664 l 1
EndSplineSet
EndChar

StartChar: Edotaccent
Encoding: 211 278 248
Width: 821
Flags: W
LayerCount: 2
Fore
SplineSet
278 1650 m 1
 278 1914 l 1
 545 1914 l 1
 545 1650 l 1
 278 1650 l 1
162 0 m 1
 162 1490 l 1
 943 1490 l 1
 943 1228 l 1
 501 1228 l 1
 501 877 l 1
 850 877 l 1
 850 636 l 1
 501 636 l 1
 501 261 l 1
 943 261 l 1
 943 0 l 1
 162 0 l 1
EndSplineSet
EndChar

StartChar: edotaccent
Encoding: 212 279 249
Width: 916
Flags: W
LayerCount: 2
Fore
SplineSet
535 -24 m 0
 825 -24 951 96 951 281 c 2
 951 409 l 1
 649 409 l 1
 649 277 l 2
 649 239 639 186 536 186 c 0
 437 186 422 241 422 277 c 2
 422 515 l 1
 952 515 l 1
 952 664 l 1
 951 664 l 1
 951 740 l 2
 951 962 880 1104 532 1104 c 0
 248 1104 112 961 112 740 c 2
 112 281 l 2
 112 96 310 -24 535 -24 c 0
422 664 m 1
 422 812 l 2
 422 847 445 894 536 894 c 0
 630 894 649 849 649 812 c 2
 649 664 l 1
 422 664 l 1
332 1205 m 1
 332 1469 l 1
 599 1469 l 1
 599 1205 l 1
 332 1205 l 1
EndSplineSet
EndChar

StartChar: Eogonek
Encoding: 213 280 250
Width: 821
Flags: W
LayerCount: 2
Fore
SplineSet
740 -296 m 1
 723 -429 l 1
 588 -432 393 -424 393 -244 c 0
 393 -153 453 -49 518 13 c 1
 640 13 l 1
 615 -58 581 -123 581 -199 c 0
 581 -297 676 -296 740 -296 c 1
162 0 m 1
 162 1490 l 1
 943 1490 l 1
 943 1228 l 1
 501 1228 l 1
 501 877 l 1
 850 877 l 1
 850 636 l 1
 501 636 l 1
 501 261 l 1
 943 261 l 1
 943 0 l 1
 162 0 l 1
EndSplineSet
EndChar

StartChar: eogonek
Encoding: 214 281 251
Width: 916
Flags: W
LayerCount: 2
Fore
SplineSet
824 -296 m 1
 807 -429 l 1
 672 -432 477 -424 477 -244 c 0
 477 -153 537 -49 602 13 c 1
 724 13 l 1
 699 -58 665 -123 665 -199 c 0
 665 -297 760 -296 824 -296 c 1
535 -24 m 0
 825 -24 951 96 951 281 c 2
 951 409 l 1
 649 409 l 1
 649 277 l 2
 649 239 639 186 536 186 c 0
 437 186 422 241 422 277 c 2
 422 515 l 1
 952 515 l 1
 952 664 l 1
 951 664 l 1
 951 740 l 2
 951 962 880 1104 532 1104 c 0
 248 1104 112 961 112 740 c 2
 112 281 l 2
 112 96 310 -24 535 -24 c 0
422 664 m 1
 422 812 l 2
 422 847 445 894 536 894 c 0
 630 894 649 849 649 812 c 2
 649 664 l 1
 422 664 l 1
EndSplineSet
EndChar

StartChar: Ecaron
Encoding: 215 282 252
Width: 821
Flags: W
LayerCount: 2
Fore
SplineSet
222 1556 m 1
 55 1892 l 1
 301 1892 l 1
 409 1726 l 1
 521 1892 l 1
 768 1892 l 1
 598 1556 l 1
 222 1556 l 1
162 0 m 1
 162 1490 l 1
 943 1490 l 1
 943 1228 l 1
 501 1228 l 1
 501 877 l 1
 850 877 l 1
 850 636 l 1
 501 636 l 1
 501 261 l 1
 943 261 l 1
 943 0 l 1
 162 0 l 1
EndSplineSet
EndChar

StartChar: ecaron
Encoding: 216 283 253
Width: 916
Flags: W
LayerCount: 2
Fore
SplineSet
535 -24 m 0
 825 -24 951 96 951 281 c 2
 951 409 l 1
 649 409 l 1
 649 277 l 2
 649 239 639 186 536 186 c 0
 437 186 422 241 422 277 c 2
 422 515 l 1
 952 515 l 1
 952 664 l 1
 951 664 l 1
 951 740 l 2
 951 962 880 1104 532 1104 c 0
 248 1104 112 961 112 740 c 2
 112 281 l 2
 112 96 310 -24 535 -24 c 0
422 664 m 1
 422 812 l 2
 422 847 445 894 536 894 c 0
 630 894 649 849 649 812 c 2
 649 664 l 1
 422 664 l 1
274 1189 m 1
 107 1525 l 1
 353 1525 l 1
 461 1359 l 1
 573 1525 l 1
 820 1525 l 1
 650 1189 l 1
 274 1189 l 1
EndSplineSet
EndChar

StartChar: Gcircumflex
Encoding: 217 284 254
Width: 1376
Flags: W
LayerCount: 2
Fore
SplineSet
333 1563 m 1
 499 1899 l 1
 875 1899 l 1
 1045 1563 l 1
 798 1563 l 1
 687 1730 l 1
 578 1563 l 1
 333 1563 l 1
70 466 m 2
 70 991 l 2
 70 1290 174 1518 619 1518 c 0
 1176 1518 1288 1309 1288 1022 c 2
 1288 934 l 1
 868 934 l 1
 868 1039 l 2
 868 1148 847 1286 619 1286 c 0
 407 1286 371 1164 371 1066 c 2
 371 423 l 2
 371 325 406 204 619 204 c 0
 832 204 867 334 867 431 c 2
 867 550 l 1
 560 550 l 1
 560 766 l 1
 1300 766 l 1
 1300 0 l 1
 1037 0 l 1
 968 104 l 1
 877 25 689 -29 512 -29 c 0
 170 -29 70 235 70 466 c 2
EndSplineSet
EndChar

StartChar: gcircumflex
Encoding: 218 285 255
Width: 966
Flags: W
LayerCount: 2
Fore
SplineSet
271 281 m 0
 271 183 957 249 957 4 c 0
 957 -233 780 -282 494 -282 c 0
 282 -282 18 -272 18 -88 c 0
 18 -10 66 71 132 119 c 1
 102 134 35 173 35 205 c 0
 35 250 111 349 145 392 c 1
 94 486 60 597 60 702 c 0
 60 906 153 1105 445 1105 c 0
 573 1105 702 1086 749 1036 c 1
 796 1090 882 1105 952 1105 c 2
 987 1105 l 1
 964 905 l 1
 923 905 875 899 845 869 c 1
 877 811 880 742 880 681 c 0
 880 486 763 313 429 313 c 0
 368 313 290 325 290 325 c 1
 290 325 271 288 271 281 c 0
433 523 m 0
 554 523 555 665 555 715 c 0
 555 763 554 912 441 912 c 0
 323 912 319 798 319 704 c 0
 319 656 320 523 433 523 c 0
296 65 m 1
 276 65 l 1
 259 38 239 0 239 -38 c 0
 239 -84 418 -87 506 -87 c 0
 552 -87 685 -91 685 -31 c 0
 685 53 412 62 296 65 c 1
130 1189 m 1
 296 1525 l 1
 672 1525 l 1
 842 1189 l 1
 595 1189 l 1
 484 1356 l 1
 375 1189 l 1
 130 1189 l 1
EndSplineSet
EndChar

StartChar: Gbreve
Encoding: 219 286 256
Width: 1376
Flags: W
LayerCount: 2
Fore
SplineSet
480 1805 m 1
 622 1805 l 1
 622 1764 638 1700 689 1700 c 0
 740 1700 756 1764 756 1805 c 1
 898 1805 l 1
 898 1683 811 1600 689 1600 c 0
 567 1600 480 1683 480 1805 c 1
70 466 m 2
 70 991 l 2
 70 1290 174 1518 619 1518 c 0
 1176 1518 1288 1309 1288 1022 c 2
 1288 934 l 1
 868 934 l 1
 868 1039 l 2
 868 1148 847 1286 619 1286 c 0
 407 1286 371 1164 371 1066 c 2
 371 423 l 2
 371 325 406 204 619 204 c 0
 832 204 867 334 867 431 c 2
 867 550 l 1
 560 550 l 1
 560 766 l 1
 1300 766 l 1
 1300 0 l 1
 1037 0 l 1
 968 104 l 1
 877 25 689 -29 512 -29 c 0
 170 -29 70 235 70 466 c 2
EndSplineSet
EndChar

StartChar: gbreve
Encoding: 220 287 257
Width: 966
Flags: W
LayerCount: 2
Fore
SplineSet
271 281 m 0
 271 183 957 249 957 4 c 0
 957 -233 780 -282 494 -282 c 0
 282 -282 18 -272 18 -88 c 0
 18 -10 66 71 132 119 c 1
 102 134 35 173 35 205 c 0
 35 250 111 349 145 392 c 1
 94 486 60 597 60 702 c 0
 60 906 153 1105 445 1105 c 0
 573 1105 702 1086 749 1036 c 1
 796 1090 882 1105 952 1105 c 2
 987 1105 l 1
 964 905 l 1
 923 905 875 899 845 869 c 1
 877 811 880 742 880 681 c 0
 880 486 763 313 429 313 c 0
 368 313 290 325 290 325 c 1
 290 325 271 288 271 281 c 0
433 523 m 0
 554 523 555 665 555 715 c 0
 555 763 554 912 441 912 c 0
 323 912 319 798 319 704 c 0
 319 656 320 523 433 523 c 0
296 65 m 1
 276 65 l 1
 259 38 239 0 239 -38 c 0
 239 -84 418 -87 506 -87 c 0
 552 -87 685 -91 685 -31 c 0
 685 53 412 62 296 65 c 1
210 1394 m 1
 352 1394 l 1
 352 1353 368 1289 419 1289 c 0
 470 1289 486 1353 486 1394 c 1
 628 1394 l 1
 628 1272 541 1189 419 1189 c 0
 297 1189 210 1272 210 1394 c 1
EndSplineSet
EndChar

StartChar: Gdotaccent
Encoding: 221 288 258
Width: 1376
Flags: W
LayerCount: 2
Fore
SplineSet
555 1650 m 1
 555 1914 l 1
 822 1914 l 1
 822 1650 l 1
 555 1650 l 1
70 466 m 2
 70 991 l 2
 70 1290 174 1518 619 1518 c 0
 1176 1518 1288 1309 1288 1022 c 2
 1288 934 l 1
 868 934 l 1
 868 1039 l 2
 868 1148 847 1286 619 1286 c 0
 407 1286 371 1164 371 1066 c 2
 371 423 l 2
 371 325 406 204 619 204 c 0
 832 204 867 334 867 431 c 2
 867 550 l 1
 560 550 l 1
 560 766 l 1
 1300 766 l 1
 1300 0 l 1
 1037 0 l 1
 968 104 l 1
 877 25 689 -29 512 -29 c 0
 170 -29 70 235 70 466 c 2
EndSplineSet
EndChar

StartChar: gdotaccent
Encoding: 222 289 259
Width: 966
Flags: W
LayerCount: 2
Fore
SplineSet
271 281 m 0
 271 183 957 249 957 4 c 0
 957 -233 780 -282 494 -282 c 0
 282 -282 18 -272 18 -88 c 0
 18 -10 66 71 132 119 c 1
 102 134 35 173 35 205 c 0
 35 250 111 349 145 392 c 1
 94 486 60 597 60 702 c 0
 60 906 153 1105 445 1105 c 0
 573 1105 702 1086 749 1036 c 1
 796 1090 882 1105 952 1105 c 2
 987 1105 l 1
 964 905 l 1
 923 905 875 899 845 869 c 1
 877 811 880 742 880 681 c 0
 880 486 763 313 429 313 c 0
 368 313 290 325 290 325 c 1
 290 325 271 288 271 281 c 0
433 523 m 0
 554 523 555 665 555 715 c 0
 555 763 554 912 441 912 c 0
 323 912 319 798 319 704 c 0
 319 656 320 523 433 523 c 0
296 65 m 1
 276 65 l 1
 259 38 239 0 239 -38 c 0
 239 -84 418 -87 506 -87 c 0
 552 -87 685 -91 685 -31 c 0
 685 53 412 62 296 65 c 1
285 1189 m 1
 285 1453 l 1
 552 1453 l 1
 552 1189 l 1
 285 1189 l 1
EndSplineSet
EndChar

StartChar: Gcommaaccent
Encoding: 223 290 260
Width: 1376
Flags: W
LayerCount: 2
Fore
SplineSet
70 466 m 2
 70 991 l 2
 70 1290 174 1518 619 1518 c 0
 1176 1518 1288 1309 1288 1022 c 2
 1288 934 l 1
 868 934 l 1
 868 1039 l 2
 868 1148 847 1286 619 1286 c 0
 407 1286 371 1164 371 1066 c 2
 371 423 l 2
 371 325 406 204 619 204 c 0
 832 204 867 334 867 431 c 2
 867 550 l 1
 560 550 l 1
 560 766 l 1
 1300 766 l 1
 1300 0 l 1
 1037 0 l 1
 968 104 l 1
 877 25 689 -29 512 -29 c 0
 170 -29 70 235 70 466 c 2
EndSplineSet
EndChar

StartChar: gcommaaccent
Encoding: 224 291 261
Width: 1065
Flags: W
LayerCount: 2
Fore
SplineSet
671 1638 m 1
 730 1501 l 1
 623 1501 611 1507 610 1437 c 1
 761 1437 l 1
 761 1174 l 1
 304 1174 l 1
 301 1461 288 1638 671 1638 c 1
271 281 m 0
 271 183 957 249 957 4 c 0
 957 -233 780 -282 494 -282 c 0
 282 -282 18 -272 18 -88 c 0
 18 -10 66 71 132 119 c 1
 102 134 35 173 35 205 c 0
 35 250 111 349 145 392 c 1
 94 486 60 597 60 702 c 0
 60 906 153 1105 445 1105 c 0
 573 1105 702 1086 749 1036 c 1
 796 1090 882 1105 952 1105 c 2
 987 1105 l 1
 964 905 l 1
 923 905 875 899 845 869 c 1
 877 811 880 742 880 681 c 0
 880 486 763 313 429 313 c 0
 368 313 290 325 290 325 c 1
 290 325 271 288 271 281 c 0
433 523 m 0
 554 523 555 665 555 715 c 0
 555 763 554 912 441 912 c 0
 323 912 319 798 319 704 c 0
 319 656 320 523 433 523 c 0
296 65 m 1
 276 65 l 1
 259 38 239 0 239 -38 c 0
 239 -84 418 -87 506 -87 c 0
 552 -87 685 -91 685 -31 c 0
 685 53 412 62 296 65 c 1
EndSplineSet
EndChar

StartChar: Hcircumflex
Encoding: 225 292 262
Width: 1225
Flags: W
LayerCount: 2
Fore
SplineSet
233 1538 m 1
 401 1903 l 1
 826 1903 l 1
 996 1538 l 1
 722 1538 l 1
 613 1680 l 1
 504 1538 l 1
 233 1538 l 1
137 0 m 1
 137 1487 l 1
 405 1487 l 1
 405 874 l 1
 822 874 l 1
 822 1487 l 1
 1091 1487 l 1
 1091 0 l 1
 822 0 l 1
 822 663 l 1
 405 663 l 1
 405 0 l 1
 137 0 l 1
EndSplineSet
EndChar

StartChar: hcircumflex
Encoding: 226 293 263
Width: 990
Flags: W
LayerCount: 2
Fore
SplineSet
131 0 m 1
 131 1491 l 1
 441 1491 l 1
 441 1004 l 1
 534 1070 613 1104 751 1104 c 0
 912 1104 975 979 975 871 c 2
 975 0 l 1
 664 0 l 1
 664 790 l 2
 664 867 621 894 572 894 c 0
 511 894 441 851 441 814 c 2
 441 0 l 1
 131 0 l 1
130 1574 m 1
 296 1910 l 1
 672 1910 l 1
 842 1574 l 1
 595 1574 l 1
 484 1741 l 1
 375 1574 l 1
 130 1574 l 1
EndSplineSet
EndChar

StartChar: Hbar
Encoding: 227 294 264
Width: 1152
Flags: W
LayerCount: 2
Fore
SplineSet
80 0 m 1
 80 1105 l 1
 -3 1105 l 1
 -3 1200 l 1
 80 1200 l 1
 80 1490 l 1
 381 1490 l 1
 381 1200 l 1
 770 1200 l 1
 770 1490 l 1
 1073 1490 l 1
 1073 1200 l 1
 1156 1200 l 1
 1156 1105 l 1
 1073 1105 l 1
 1073 0 l 1
 770 0 l 1
 770 664 l 1
 381 664 l 1
 381 0 l 1
 80 0 l 1
381 879 m 1
 770 879 l 1
 770 1105 l 1
 381 1105 l 1
 381 879 l 1
EndSplineSet
EndChar

StartChar: hbar
Encoding: 228 295 265
Width: 912
Flags: W
LayerCount: 2
Fore
SplineSet
82 0 m 1
 82 1208 l 1
 0 1208 l 1
 0 1360 l 1
 82 1360 l 1
 82 1490 l 1
 361 1490 l 1
 361 1360 l 1
 693 1360 l 1
 693 1208 l 1
 361 1208 l 1
 361 1003 l 1
 453 1061 589 1105 672 1105 c 0
 792 1105 863 978 863 870 c 2
 863 0 l 1
 584 0 l 1
 584 797 l 2
 584 828 593 894 516 894 c 0
 452 894 392 853 361 832 c 1
 361 0 l 1
 82 0 l 1
EndSplineSet
EndChar

StartChar: Itilde
Encoding: 229 296 266
Width: 478
Flags: W
LayerCount: 2
Fore
SplineSet
36 1593 m 1
 -102 1593 l 1
 -102 1719 -82 1841 51 1841 c 0
 204 1841 367 1793 422 1793 c 0
 451 1793 451 1811 451 1831 c 1
 580 1831 l 1
 580 1742 570 1584 451 1584 c 0
 363 1584 199 1645 77 1645 c 0
 34 1645 36 1616 36 1593 c 1
89 0 m 1
 89 1490 l 1
 390 1490 l 1
 390 0 l 1
 89 0 l 1
EndSplineSet
EndChar

StartChar: itilde
Encoding: 230 297 267
Width: 440
Flags: W
LayerCount: 2
Fore
SplineSet
17 1183 m 1
 -121 1183 l 1
 -121 1309 -101 1431 32 1431 c 0
 185 1431 348 1383 403 1383 c 0
 432 1383 432 1401 432 1421 c 1
 561 1421 l 1
 561 1332 551 1174 432 1174 c 0
 344 1174 180 1235 58 1235 c 0
 15 1235 17 1206 17 1183 c 1
103 0 m 1
 103 1080 l 1
 381 1080 l 1
 381 0 l 1
 103 0 l 1
EndSplineSet
EndChar

StartChar: Imacron
Encoding: 231 298 268
Width: 478
Flags: W
LayerCount: 2
Fore
SplineSet
29 1616 m 1
 29 1775 l 1
 449 1775 l 1
 449 1616 l 1
 29 1616 l 1
89 0 m 1
 89 1490 l 1
 390 1490 l 1
 390 0 l 1
 89 0 l 1
EndSplineSet
EndChar

StartChar: imacron
Encoding: 232 299 269
Width: 440
Flags: W
LayerCount: 2
Fore
SplineSet
10 1206 m 1
 10 1365 l 1
 430 1365 l 1
 430 1206 l 1
 10 1206 l 1
103 0 m 1
 103 1080 l 1
 381 1080 l 1
 381 0 l 1
 103 0 l 1
EndSplineSet
EndChar

StartChar: Ibreve
Encoding: 233 300 270
Width: 478
Flags: W
LayerCount: 2
Fore
SplineSet
30 1805 m 1
 172 1805 l 1
 172 1764 188 1700 239 1700 c 0
 290 1700 306 1764 306 1805 c 1
 448 1805 l 1
 448 1683 361 1600 239 1600 c 0
 117 1600 30 1683 30 1805 c 1
89 0 m 1
 89 1490 l 1
 390 1490 l 1
 390 0 l 1
 89 0 l 1
EndSplineSet
EndChar

StartChar: ibreve
Encoding: 234 301 271
Width: 440
Flags: W
LayerCount: 2
Fore
SplineSet
103 0 m 1
 103 1080 l 1
 381 1080 l 1
 381 0 l 1
 103 0 l 1
33 1393 m 1
 175 1393 l 1
 175 1352 191 1288 242 1288 c 0
 293 1288 309 1352 309 1393 c 1
 451 1393 l 1
 451 1271 364 1188 242 1188 c 0
 120 1188 33 1271 33 1393 c 1
EndSplineSet
EndChar

StartChar: Iogonek
Encoding: 235 302 272
Width: 478
Flags: W
LayerCount: 2
Fore
SplineSet
430 -296 m 1
 413 -429 l 1
 278 -432 83 -424 83 -244 c 0
 83 -153 143 -49 208 13 c 1
 330 13 l 1
 305 -58 271 -123 271 -199 c 0
 271 -297 366 -296 430 -296 c 1
89 0 m 1
 89 1490 l 1
 390 1490 l 1
 390 0 l 1
 89 0 l 1
EndSplineSet
EndChar

StartChar: iogonek
Encoding: 236 303 273
Width: 437
Flags: W
LayerCount: 2
Fore
SplineSet
430 -296 m 1
 413 -429 l 1
 278 -432 83 -424 83 -244 c 0
 83 -153 143 -49 208 13 c 1
 330 13 l 1
 305 -58 271 -123 271 -199 c 0
 271 -297 366 -296 430 -296 c 1
131 0 m 1
 131 1080 l 1
 441 1080 l 1
 441 0 l 1
 131 0 l 1
131 1174 m 1
 131 1435 l 1
 441 1435 l 1
 441 1174 l 1
 131 1174 l 1
EndSplineSet
EndChar

StartChar: Idotaccent
Encoding: 237 304 274
Width: 478
Flags: W
LayerCount: 2
Fore
SplineSet
106 1650 m 1
 106 1914 l 1
 373 1914 l 1
 373 1650 l 1
 106 1650 l 1
89 0 m 1
 89 1490 l 1
 390 1490 l 1
 390 0 l 1
 89 0 l 1
EndSplineSet
EndChar

StartChar: IJ
Encoding: 239 306 275
Width: 1050
Flags: W
LayerCount: 2
Fore
SplineSet
478 -28 m 1
 478 184 l 1
 622 182 660 212 660 360 c 2
 660 1490 l 1
 961 1490 l 1
 961 357 l 2
 961 100 907 -28 626 -28 c 2
 478 -28 l 1
89 0 m 1
 89 1490 l 1
 390 1490 l 1
 390 0 l 1
 89 0 l 1
EndSplineSet
EndChar

StartChar: ij
Encoding: 240 307 276
Width: 911
Flags: W
LayerCount: 2
Fore
SplineSet
421 -235 m 1
 421 -33 l 1
 444 -40 469 -46 493 -46 c 0
 544 -46 556 3 556 46 c 2
 556 1080 l 1
 834 1080 l 1
 834 22 l 2
 834 -148 744 -257 569 -257 c 0
 519 -257 469 -247 421 -235 c 1
556 1174 m 1
 556 1435 l 1
 834 1435 l 1
 834 1174 l 1
 556 1174 l 1
131 0 m 1
 131 1080 l 1
 441 1080 l 1
 441 0 l 1
 131 0 l 1
131 1174 m 1
 131 1435 l 1
 441 1435 l 1
 441 1174 l 1
 131 1174 l 1
EndSplineSet
EndChar

StartChar: Jcircumflex
Encoding: 241 308 277
Width: 571
Flags: W
LayerCount: 2
Fore
SplineSet
-70 1563 m 1
 96 1899 l 1
 472 1899 l 1
 642 1563 l 1
 395 1563 l 1
 284 1730 l 1
 175 1563 l 1
 -70 1563 l 1
0 -28 m 1
 0 184 l 1
 144 182 182 212 182 360 c 2
 182 1490 l 1
 483 1490 l 1
 483 357 l 2
 483 100 429 -28 148 -28 c 2
 0 -28 l 1
EndSplineSet
EndChar

StartChar: jcircumflex
Encoding: 242 309 278
Width: 530
Flags: W
LayerCount: 2
Fore
SplineSet
40 -235 m 1
 40 -33 l 1
 63 -40 89 -46 113 -46 c 0
 164 -46 175 3 175 46 c 2
 175 1080 l 1
 453 1080 l 1
 453 22 l 2
 453 -148 363 -257 188 -257 c 0
 138 -257 88 -247 40 -235 c 1
26 1142 m 1
 192 1478 l 1
 568 1478 l 1
 738 1142 l 1
 491 1142 l 1
 380 1309 l 1
 271 1142 l 1
 26 1142 l 1
EndSplineSet
EndChar

StartChar: Kcommaaccent
Encoding: 243 310 279
Width: 1174
Flags: W
LayerCount: 2
Fore
SplineSet
89 0 m 1
 89 1490 l 1
 390 1490 l 1
 390 924 l 1
 810 1490 l 1
 1184 1490 l 1
 869 880 l 1
 1206 0 l 1
 893 0 l 1
 488 681 l 1
 390 540 l 1
 390 0 l 1
 89 0 l 1
EndSplineSet
EndChar

StartChar: kcommaaccent
Encoding: 244 311 280
Width: 954
Flags: W
LayerCount: 2
Fore
SplineSet
82 0 m 1
 82 1490 l 1
 361 1490 l 1
 361 705 l 1
 668 1080 l 1
 974 1080 l 1
 708 624 l 1
 973 0 l 1
 684 0 l 1
 428 482 l 1
 361 419 l 1
 361 0 l 1
 82 0 l 1
EndSplineSet
EndChar

StartChar: kgreenlandic
Encoding: 245 312 281
Width: 966
Flags: W
LayerCount: 2
Fore
SplineSet
82 0 m 1
 82 1080 l 1
 361 1080 l 1
 361 730 l 1
 662 1080 l 1
 936 1080 l 1
 711 616 l 1
 935 0 l 1
 654 0 l 1
 413 415 l 1
 361 367 l 1
 361 0 l 1
 82 0 l 1
EndSplineSet
EndChar

StartChar: Lacute
Encoding: 246 313 282
Width: 767
Flags: W
LayerCount: 2
Fore
SplineSet
185 1563 m 1
 297 1928 l 1
 583 1928 l 1
 353 1563 l 1
 185 1563 l 1
89 0 m 1
 89 1490 l 1
 390 1490 l 1
 390 207 l 1
 760 207 l 1
 760 0 l 1
 89 0 l 1
EndSplineSet
EndChar

StartChar: lacute
Encoding: 247 314 283
Width: 437
Flags: W
LayerCount: 2
Fore
SplineSet
131 1490 m 1
 441 1490 l 1
 441 317 l 2
 441 239 474 205 572 205 c 1
 572 0 l 1
 377 0 l 2
 192 0 131 101 131 253 c 2
 131 1490 l 1
135 1574 m 1
 247 1939 l 1
 533 1939 l 1
 303 1574 l 1
 135 1574 l 1
EndSplineSet
EndChar

StartChar: Lcommaaccent
Encoding: 248 315 284
Width: 767
Flags: W
LayerCount: 2
Fore
SplineSet
89 0 m 1
 89 1490 l 1
 390 1490 l 1
 390 207 l 1
 760 207 l 1
 760 0 l 1
 89 0 l 1
EndSplineSet
EndChar

StartChar: lcommaaccent
Encoding: 249 316 285
Width: 437
Flags: W
LayerCount: 2
Fore
SplineSet
131 1490 m 1
 441 1490 l 1
 441 317 l 2
 441 239 474 205 572 205 c 1
 572 0 l 1
 377 0 l 2
 192 0 131 101 131 253 c 2
 131 1490 l 1
EndSplineSet
EndChar

StartChar: Lcaron
Encoding: 250 317 286
Width: 767
Flags: W
LayerCount: 2
Fore
SplineSet
1084 1054 m 1
 1051 1191 l 1
 1111 1191 1117 1185 1118 1255 c 1
 1027 1255 l 1
 1027 1518 l 1
 1294 1518 l 1
 1294 1235 1318 1019 1084 1054 c 1
89 0 m 1
 89 1490 l 1
 390 1490 l 1
 390 207 l 1
 760 207 l 1
 760 0 l 1
 89 0 l 1
EndSplineSet
EndChar

StartChar: lcaron
Encoding: 251 318 287
Width: 437
Flags: W
LayerCount: 2
Fore
SplineSet
131 1490 m 1
 441 1490 l 1
 441 317 l 2
 441 239 474 205 572 205 c 1
 572 0 l 1
 377 0 l 2
 192 0 131 101 131 253 c 2
 131 1490 l 1
542 1025 m 1
 509 1162 l 1
 569 1162 575 1156 576 1226 c 1
 485 1226 l 1
 485 1489 l 1
 752 1489 l 1
 752 1206 776 990 542 1025 c 1
EndSplineSet
EndChar

StartChar: Ldot
Encoding: 252 319 288
Width: 767
Flags: W
LayerCount: 2
Fore
SplineSet
956 629 m 1
 956 890 l 1
 1223 890 l 1
 1223 629 l 1
 956 629 l 1
89 0 m 1
 89 1490 l 1
 390 1490 l 1
 390 207 l 1
 760 207 l 1
 760 0 l 1
 89 0 l 1
EndSplineSet
EndChar

StartChar: ldot
Encoding: 253 320 289
Width: 437
Flags: W
LayerCount: 2
Fore
SplineSet
497 562 m 1
 497 823 l 1
 764 823 l 1
 764 562 l 1
 497 562 l 1
131 1490 m 1
 441 1490 l 1
 441 317 l 2
 441 239 474 205 572 205 c 1
 572 0 l 1
 377 0 l 2
 192 0 131 101 131 253 c 2
 131 1490 l 1
EndSplineSet
EndChar

StartChar: Nacute
Encoding: 256 323 290
Width: 1334
Flags: W
LayerCount: 2
Fore
SplineSet
469 1563 m 1
 581 1928 l 1
 867 1928 l 1
 637 1563 l 1
 469 1563 l 1
162 0 m 1
 162 1490 l 1
 382 1490 l 1
 986 645 l 1
 986 1490 l 1
 1287 1490 l 1
 1287 0 l 1
 1093 0 l 1
 466 868 l 1
 466 0 l 1
 162 0 l 1
EndSplineSet
EndChar

StartChar: nacute
Encoding: 257 324 291
Width: 990
Flags: W
LayerCount: 2
Fore
SplineSet
131 0 m 1
 131 1080 l 1
 441 1080 l 1
 441 1004 l 1
 499 1050 573 1104 719 1104 c 0
 880 1104 975 991 975 854 c 2
 975 0 l 1
 664 0 l 1
 664 790 l 2
 664 867 621 894 572 894 c 0
 511 894 441 851 441 814 c 2
 441 0 l 1
 131 0 l 1
335 1189 m 1
 447 1554 l 1
 733 1554 l 1
 503 1189 l 1
 335 1189 l 1
EndSplineSet
EndChar

StartChar: Ncommaaccent
Encoding: 258 325 292
Width: 1334
Flags: W
LayerCount: 2
Fore
SplineSet
162 0 m 1
 162 1490 l 1
 382 1490 l 1
 986 645 l 1
 986 1490 l 1
 1287 1490 l 1
 1287 0 l 1
 1093 0 l 1
 466 868 l 1
 466 0 l 1
 162 0 l 1
EndSplineSet
EndChar

StartChar: ncommaaccent
Encoding: 259 326 293
Width: 990
Flags: W
LayerCount: 2
Fore
SplineSet
131 0 m 1
 131 1080 l 1
 441 1080 l 1
 441 1004 l 1
 499 1050 573 1104 719 1104 c 0
 880 1104 975 991 975 854 c 2
 975 0 l 1
 664 0 l 1
 664 790 l 2
 664 867 621 894 572 894 c 0
 511 894 441 851 441 814 c 2
 441 0 l 1
 131 0 l 1
EndSplineSet
EndChar

StartChar: Ncaron
Encoding: 260 327 294
Width: 1334
Flags: W
LayerCount: 2
Fore
SplineSet
478 1556 m 1
 311 1892 l 1
 557 1892 l 1
 665 1726 l 1
 777 1892 l 1
 1024 1892 l 1
 854 1556 l 1
 478 1556 l 1
162 0 m 1
 162 1490 l 1
 382 1490 l 1
 986 645 l 1
 986 1490 l 1
 1287 1490 l 1
 1287 0 l 1
 1093 0 l 1
 466 868 l 1
 466 0 l 1
 162 0 l 1
EndSplineSet
EndChar

StartChar: ncaron
Encoding: 261 328 295
Width: 990
Flags: W
LayerCount: 2
Fore
SplineSet
131 0 m 1
 131 1080 l 1
 441 1080 l 1
 441 1004 l 1
 499 1050 573 1104 719 1104 c 0
 880 1104 975 991 975 854 c 2
 975 0 l 1
 664 0 l 1
 664 790 l 2
 664 867 621 894 572 894 c 0
 511 894 441 851 441 814 c 2
 441 0 l 1
 131 0 l 1
298 1188 m 1
 131 1524 l 1
 377 1524 l 1
 485 1358 l 1
 597 1524 l 1
 844 1524 l 1
 674 1188 l 1
 298 1188 l 1
EndSplineSet
EndChar

StartChar: Omacron
Encoding: 262 332 296
Width: 1354
Flags: W
LayerCount: 2
Fore
SplineSet
468 1616 m 1
 468 1775 l 1
 888 1775 l 1
 888 1616 l 1
 468 1616 l 1
917 404 m 2
 917 1082 l 2
 917 1194 900 1252 693 1252 c 0
 488 1252 469 1200 469 1082 c 2
 469 404 l 2
 469 285 486 237 693 237 c 0
 903 237 917 286 917 404 c 2
745 -29 m 2
 640 -29 l 2
 204 -29 131 186 131 473 c 2
 131 1007 l 2
 131 1302 201 1518 640 1518 c 2
 745 1518 l 2
 1184 1518 1255 1286 1255 991 c 2
 1255 490 l 2
 1255 203 1181 -29 745 -29 c 2
EndSplineSet
EndChar

StartChar: omacron
Encoding: 263 333 297
Width: 959
Flags: W
LayerCount: 2
Fore
SplineSet
112 281 m 2
 112 740 l 2
 112 961 248 1104 532 1104 c 0
 880 1104 964 962 964 740 c 2
 964 281 l 2
 964 96 825 -24 535 -24 c 0
 310 -24 112 96 112 281 c 2
654 277 m 2
 654 812 l 2
 654 849 630 894 536 894 c 0
 445 894 422 847 422 812 c 2
 422 277 l 2
 422 241 437 186 536 186 c 0
 639 186 654 239 654 277 c 2
193 1189 m 1
 193 1348 l 1
 613 1348 l 1
 613 1189 l 1
 193 1189 l 1
EndSplineSet
EndChar

StartChar: Obreve
Encoding: 264 334 298
Width: 1354
Flags: W
LayerCount: 2
Fore
SplineSet
469 1805 m 1
 611 1805 l 1
 611 1764 627 1700 678 1700 c 0
 729 1700 745 1764 745 1805 c 1
 887 1805 l 1
 887 1683 800 1600 678 1600 c 0
 556 1600 469 1683 469 1805 c 1
917 404 m 2
 917 1082 l 2
 917 1194 900 1252 693 1252 c 0
 488 1252 469 1200 469 1082 c 2
 469 404 l 2
 469 285 486 237 693 237 c 0
 903 237 917 286 917 404 c 2
745 -29 m 2
 640 -29 l 2
 204 -29 131 186 131 473 c 2
 131 1007 l 2
 131 1302 201 1518 640 1518 c 2
 745 1518 l 2
 1184 1518 1255 1286 1255 991 c 2
 1255 490 l 2
 1255 203 1181 -29 745 -29 c 2
EndSplineSet
EndChar

StartChar: obreve
Encoding: 265 335 299
Width: 959
Flags: W
LayerCount: 2
Fore
SplineSet
112 281 m 2
 112 740 l 2
 112 961 248 1104 532 1104 c 0
 880 1104 964 962 964 740 c 2
 964 281 l 2
 964 96 825 -24 535 -24 c 0
 310 -24 112 96 112 281 c 2
654 277 m 2
 654 812 l 2
 654 849 630 894 536 894 c 0
 445 894 422 847 422 812 c 2
 422 277 l 2
 422 241 437 186 536 186 c 0
 639 186 654 239 654 277 c 2
193 1393 m 1
 335 1393 l 1
 335 1352 351 1288 402 1288 c 0
 453 1288 469 1352 469 1393 c 1
 611 1393 l 1
 611 1271 524 1188 402 1188 c 0
 280 1188 193 1271 193 1393 c 1
EndSplineSet
EndChar

StartChar: Ohungarumlaut
Encoding: 266 336 300
Width: 1354
Flags: W
LayerCount: 2
Fore
SplineSet
291 1573 m 1
 404 1938 l 1
 753 1938 l 1
 460 1573 l 1
 291 1573 l 1
598 1573 m 1
 803 1938 l 1
 1064 1938 l 1
 886 1573 l 1
 598 1573 l 1
917 404 m 2
 917 1082 l 2
 917 1194 900 1252 693 1252 c 0
 488 1252 469 1200 469 1082 c 2
 469 404 l 2
 469 285 486 237 693 237 c 0
 903 237 917 286 917 404 c 2
745 -29 m 2
 640 -29 l 2
 204 -29 131 186 131 473 c 2
 131 1007 l 2
 131 1302 201 1518 640 1518 c 2
 745 1518 l 2
 1184 1518 1255 1286 1255 991 c 2
 1255 490 l 2
 1255 203 1181 -29 745 -29 c 2
EndSplineSet
EndChar

StartChar: ohungarumlaut
Encoding: 267 337 301
Width: 959
Flags: W
LayerCount: 2
Fore
SplineSet
112 281 m 2
 112 740 l 2
 112 961 248 1104 532 1104 c 0
 880 1104 964 962 964 740 c 2
 964 281 l 2
 964 96 825 -24 535 -24 c 0
 310 -24 112 96 112 281 c 2
654 277 m 2
 654 812 l 2
 654 849 630 894 536 894 c 0
 445 894 422 847 422 812 c 2
 422 277 l 2
 422 241 437 186 536 186 c 0
 639 186 654 239 654 277 c 2
187 1189 m 1
 300 1554 l 1
 649 1554 l 1
 356 1189 l 1
 187 1189 l 1
494 1189 m 1
 699 1554 l 1
 960 1554 l 1
 782 1189 l 1
 494 1189 l 1
EndSplineSet
EndChar

StartChar: Racute
Encoding: 270 340 302
Width: 1156
Flags: W
LayerCount: 2
Fore
SplineSet
380 1563 m 1
 492 1928 l 1
 778 1928 l 1
 548 1563 l 1
 380 1563 l 1
89 0 m 1
 89 1490 l 1
 437 1490 l 2
 955 1490 1150 1387 1150 1097 c 0
 1150 966 1131 799 927 720 c 1
 939 483 1014 247 1098 0 c 1
 786 0 l 1
 479 686 l 1
 390 686 l 1
 390 0 l 1
 89 0 l 1
390 870 m 1
 545 870 l 2
 725 870 753 1018 753 1073 c 0
 753 1128 732 1269 570 1269 c 2
 390 1269 l 1
 390 870 l 1
EndSplineSet
EndChar

StartChar: racute
Encoding: 271 341 303
Width: 590
Flags: W
LayerCount: 2
Fore
SplineSet
131 0 m 1
 131 1080 l 1
 441 1080 l 1
 441 992 l 1
 477 1050 526 1096 590 1096 c 0
 616 1096 639 1091 665 1087 c 1
 665 852 l 1
 506 852 441 816 441 700 c 2
 441 0 l 1
 131 0 l 1
245 1189 m 1
 357 1554 l 1
 643 1554 l 1
 413 1189 l 1
 245 1189 l 1
EndSplineSet
EndChar

StartChar: Rcommaaccent
Encoding: 272 342 304
Width: 1156
Flags: W
LayerCount: 2
Fore
SplineSet
89 0 m 1
 89 1490 l 1
 437 1490 l 2
 955 1490 1150 1387 1150 1097 c 0
 1150 966 1131 799 927 720 c 1
 939 483 1014 247 1098 0 c 1
 786 0 l 1
 479 686 l 1
 390 686 l 1
 390 0 l 1
 89 0 l 1
390 870 m 1
 545 870 l 2
 725 870 753 1018 753 1073 c 0
 753 1128 732 1269 570 1269 c 2
 390 1269 l 1
 390 870 l 1
EndSplineSet
EndChar

StartChar: rcommaaccent
Encoding: 273 343 305
Width: 590
Flags: W
LayerCount: 2
Fore
SplineSet
131 0 m 1
 131 1080 l 1
 441 1080 l 1
 441 992 l 1
 477 1050 526 1096 590 1096 c 0
 616 1096 639 1091 665 1087 c 1
 665 852 l 1
 506 852 441 816 441 700 c 2
 441 0 l 1
 131 0 l 1
EndSplineSet
EndChar

StartChar: Rcaron
Encoding: 274 344 306
Width: 1156
Flags: W
LayerCount: 2
Fore
SplineSet
389 1556 m 1
 222 1892 l 1
 468 1892 l 1
 576 1726 l 1
 688 1892 l 1
 935 1892 l 1
 765 1556 l 1
 389 1556 l 1
89 0 m 1
 89 1490 l 1
 437 1490 l 2
 955 1490 1150 1387 1150 1097 c 0
 1150 966 1131 799 927 720 c 1
 939 483 1014 247 1098 0 c 1
 786 0 l 1
 479 686 l 1
 390 686 l 1
 390 0 l 1
 89 0 l 1
390 870 m 1
 545 870 l 2
 725 870 753 1018 753 1073 c 0
 753 1128 732 1269 570 1269 c 2
 390 1269 l 1
 390 870 l 1
EndSplineSet
EndChar

StartChar: rcaron
Encoding: 275 345 307
Width: 590
Flags: W
LayerCount: 2
Fore
SplineSet
131 0 m 1
 131 1080 l 1
 441 1080 l 1
 441 992 l 1
 477 1050 526 1096 590 1096 c 0
 616 1096 639 1091 665 1087 c 1
 665 852 l 1
 506 852 441 816 441 700 c 2
 441 0 l 1
 131 0 l 1
207 1188 m 1
 40 1524 l 1
 286 1524 l 1
 394 1358 l 1
 506 1524 l 1
 753 1524 l 1
 583 1188 l 1
 207 1188 l 1
EndSplineSet
EndChar

StartChar: Sacute
Encoding: 276 346 308
Width: 1218
Flags: W
LayerCount: 2
Fore
SplineSet
411 1563 m 1
 523 1928 l 1
 809 1928 l 1
 579 1563 l 1
 411 1563 l 1
607 -31 m 0
 981 -31 1111 113 1123 326 c 0
 1124 345 1125 363 1125 380 c 0
 1125 514 1087 602 952 700 c 0
 950 701 504 1038 504 1039 c 0
 466 1067 453 1098 453 1134 c 0
 453 1197 496 1235 583 1235 c 0
 725 1235 738 1133 738 1063 c 2
 738 978 l 1
 1077 1021 l 1
 1077 1082 l 2
 1077 1293 979 1520 625 1520 c 0
 200 1520 96 1383 96 1139 c 0
 96 978 135 888 247 805 c 0
 248 804 687 472 688 472 c 0
 748 428 775 384 775 343 c 0
 775 280 719 255 616 255 c 0
 471 255 439 327 439 445 c 2
 439 454 l 2
 439 487 440 511 440 551 c 1
 89 492 l 1
 89 430 l 2
 89 208 160 -31 607 -31 c 0
EndSplineSet
EndChar

StartChar: sacute
Encoding: 277 347 309
Width: 963
Flags: W
LayerCount: 2
Fore
SplineSet
31 261 m 1
 265 337 l 1
 298 282 356 180 481 180 c 0
 555 180 575 207 575 242 c 0
 575 318 433 384 277 458 c 1
 206 496 l 1
 109 580 17 679 17 813 c 0
 17 1007 188 1104 482 1104 c 0
 752 1104 877 955 919 802 c 1
 718 733 l 1
 679 793 604 898 468 898 c 0
 394 898 357 862 357 830 c 0
 357 775 497 706 628 645 c 1
 718 599 l 1
 813 513 913 405 945 277 c 1
 945 99 801 -24 503 -24 c 0
 203 -24 77 96 31 261 c 1
428 1152 m 1
 540 1517 l 1
 826 1517 l 1
 596 1152 l 1
 428 1152 l 1
EndSplineSet
EndChar

StartChar: Scircumflex
Encoding: 278 348 310
Width: 1218
Flags: W
LayerCount: 2
Fore
SplineSet
253 1563 m 1
 419 1899 l 1
 795 1899 l 1
 965 1563 l 1
 718 1563 l 1
 607 1730 l 1
 498 1563 l 1
 253 1563 l 1
607 -31 m 0
 981 -31 1111 113 1123 326 c 0
 1124 345 1125 363 1125 380 c 0
 1125 514 1087 602 952 700 c 0
 950 701 504 1038 504 1039 c 0
 466 1067 453 1098 453 1134 c 0
 453 1197 496 1235 583 1235 c 0
 725 1235 738 1133 738 1063 c 2
 738 978 l 1
 1077 1021 l 1
 1077 1082 l 2
 1077 1293 979 1520 625 1520 c 0
 200 1520 96 1383 96 1139 c 0
 96 978 135 888 247 805 c 0
 248 804 687 472 688 472 c 0
 748 428 775 384 775 343 c 0
 775 280 719 255 616 255 c 0
 471 255 439 327 439 445 c 2
 439 454 l 2
 439 487 440 511 440 551 c 1
 89 492 l 1
 89 430 l 2
 89 208 160 -31 607 -31 c 0
EndSplineSet
EndChar

StartChar: scircumflex
Encoding: 279 349 311
Width: 963
Flags: W
LayerCount: 2
Fore
SplineSet
31 261 m 1
 265 337 l 1
 298 282 356 180 481 180 c 0
 555 180 575 207 575 242 c 0
 575 318 433 384 277 458 c 1
 206 496 l 1
 109 580 17 679 17 813 c 0
 17 1007 188 1104 482 1104 c 0
 752 1104 877 955 919 802 c 1
 718 733 l 1
 679 793 604 898 468 898 c 0
 394 898 357 862 357 830 c 0
 357 775 497 706 628 645 c 1
 718 599 l 1
 813 513 913 405 945 277 c 1
 945 99 801 -24 503 -24 c 0
 203 -24 77 96 31 261 c 1
72 1189 m 1
 238 1525 l 1
 614 1525 l 1
 784 1189 l 1
 537 1189 l 1
 426 1356 l 1
 317 1189 l 1
 72 1189 l 1
EndSplineSet
EndChar

StartChar: Scedilla
Encoding: 280 350 312
Width: 1218
Flags: W
LayerCount: 2
Fore
SplineSet
423 -464 m 1
 423 -331 l 1
 448 -331 606 -341 606 -296 c 0
 606 -246 506 -213 470 -200 c 1
 470 0 l 1
 611 0 l 1
 611 -107 l 1
 685 -142 794 -206 794 -300 c 0
 794 -464 536 -464 423 -464 c 1
607 -31 m 0
 981 -31 1111 113 1123 326 c 0
 1124 345 1125 363 1125 380 c 0
 1125 514 1087 602 952 700 c 0
 950 701 504 1038 504 1039 c 0
 466 1067 453 1098 453 1134 c 0
 453 1197 496 1235 583 1235 c 0
 725 1235 738 1133 738 1063 c 2
 738 978 l 1
 1077 1021 l 1
 1077 1082 l 2
 1077 1293 979 1520 625 1520 c 0
 200 1520 96 1383 96 1139 c 0
 96 978 135 888 247 805 c 0
 248 804 687 472 688 472 c 0
 748 428 775 384 775 343 c 0
 775 280 719 255 616 255 c 0
 471 255 439 327 439 445 c 2
 439 454 l 2
 439 487 440 511 440 551 c 1
 89 492 l 1
 89 430 l 2
 89 208 160 -31 607 -31 c 0
EndSplineSet
EndChar

StartChar: scedilla
Encoding: 281 351 313
Width: 963
Flags: W
LayerCount: 2
Fore
SplineSet
31 261 m 1
 265 337 l 1
 298 282 356 180 481 180 c 0
 555 180 575 207 575 242 c 0
 575 318 433 384 277 458 c 1
 206 496 l 1
 109 580 17 679 17 813 c 0
 17 1007 188 1104 482 1104 c 0
 752 1104 877 955 919 802 c 1
 718 733 l 1
 679 793 604 898 468 898 c 0
 394 898 357 862 357 830 c 0
 357 775 497 706 628 645 c 1
 718 599 l 1
 813 513 913 405 945 277 c 1
 945 99 801 -24 503 -24 c 0
 203 -24 77 96 31 261 c 1
394 -472 m 1
 394 -339 l 1
 419 -339 577 -349 577 -304 c 0
 577 -254 477 -221 441 -208 c 1
 441 -8 l 1
 582 -8 l 1
 582 -115 l 1
 656 -150 765 -214 765 -308 c 0
 765 -472 507 -472 394 -472 c 1
EndSplineSet
EndChar

StartChar: Tcaron
Encoding: 284 356 314
Width: 777
Flags: W
LayerCount: 2
Fore
SplineSet
199 1556 m 1
 32 1892 l 1
 278 1892 l 1
 386 1726 l 1
 498 1892 l 1
 745 1892 l 1
 575 1556 l 1
 199 1556 l 1
242 0 m 1
 242 1264 l 1
 12 1264 l 1
 12 1490 l 1
 766 1490 l 1
 766 1264 l 1
 551 1264 l 1
 551 0 l 1
 242 0 l 1
EndSplineSet
EndChar

StartChar: tcaron
Encoding: 285 357 315
Width: 552
Flags: W
LayerCount: 2
Fore
SplineSet
146 894 m 1
 51 894 l 1
 51 1080 l 1
 146 1080 l 1
 173 1435 l 1
 458 1435 l 1
 458 1080 l 1
 645 1080 l 1
 645 894 l 1
 458 894 l 1
 458 304 l 2
 458 248 476 215 535 215 c 0
 562 215 618 216 645 220 c 1
 645 2 l 1
 569 -13 476 -20 422 -20 c 0
 190 -20 146 115 146 338 c 2
 146 894 l 1
633 971 m 1
 600 1108 l 1
 660 1108 666 1102 667 1172 c 1
 576 1172 l 1
 576 1435 l 1
 843 1435 l 1
 843 1152 867 936 633 971 c 1
EndSplineSet
EndChar

StartChar: Utilde
Encoding: 286 360 316
Width: 1373
Flags: W
LayerCount: 2
Fore
SplineSet
484 1593 m 1
 346 1593 l 1
 346 1719 366 1841 499 1841 c 0
 652 1841 815 1793 870 1793 c 0
 899 1793 899 1811 899 1831 c 1
 1028 1831 l 1
 1028 1742 1018 1584 899 1584 c 0
 811 1584 647 1645 525 1645 c 0
 482 1645 484 1616 484 1593 c 1
925 1490 m 1
 1264 1490 l 1
 1264 490 l 2
 1264 203 1189 -29 753 -29 c 2
 648 -29 l 2
 212 -29 139 186 139 473 c 2
 139 1490 l 1
 477 1490 l 1
 477 404 l 2
 477 285 494 237 701 237 c 0
 911 237 925 286 925 404 c 2
 925 1490 l 1
EndSplineSet
EndChar

StartChar: utilde
Encoding: 287 361 317
Width: 992
Flags: W
LayerCount: 2
Fore
SplineSet
975 1080 m 1
 975 0 l 1
 664 0 l 1
 664 76 l 1
 606 30 532 -24 386 -24 c 0
 225 -24 131 89 131 226 c 2
 131 1080 l 1
 441 1080 l 1
 441 290 l 2
 441 213 485 186 534 186 c 0
 595 186 664 229 664 266 c 2
 664 1080 l 1
 975 1080 l 1
351 1214 m 1
 213 1214 l 1
 213 1340 233 1462 366 1462 c 0
 519 1462 682 1414 737 1414 c 0
 766 1414 766 1432 766 1452 c 1
 895 1452 l 1
 895 1363 885 1205 766 1205 c 0
 678 1205 514 1266 392 1266 c 0
 349 1266 351 1237 351 1214 c 1
EndSplineSet
EndChar

StartChar: Umacron
Encoding: 288 362 318
Width: 1373
Flags: W
LayerCount: 2
Fore
SplineSet
477 1616 m 1
 477 1775 l 1
 897 1775 l 1
 897 1616 l 1
 477 1616 l 1
925 1490 m 1
 1264 1490 l 1
 1264 490 l 2
 1264 203 1189 -29 753 -29 c 2
 648 -29 l 2
 212 -29 139 186 139 473 c 2
 139 1490 l 1
 477 1490 l 1
 477 404 l 2
 477 285 494 237 701 237 c 0
 911 237 925 286 925 404 c 2
 925 1490 l 1
EndSplineSet
EndChar

StartChar: umacron
Encoding: 289 363 319
Width: 992
Flags: W
LayerCount: 2
Fore
SplineSet
975 1080 m 1
 975 0 l 1
 664 0 l 1
 664 76 l 1
 606 30 532 -24 386 -24 c 0
 225 -24 131 89 131 226 c 2
 131 1080 l 1
 441 1080 l 1
 441 290 l 2
 441 213 485 186 534 186 c 0
 595 186 664 229 664 266 c 2
 664 1080 l 1
 975 1080 l 1
204 1206 m 1
 204 1365 l 1
 624 1365 l 1
 624 1206 l 1
 204 1206 l 1
EndSplineSet
EndChar

StartChar: Ubreve
Encoding: 290 364 320
Width: 1373
Flags: W
LayerCount: 2
Fore
SplineSet
478 1805 m 1
 620 1805 l 1
 620 1764 636 1700 687 1700 c 0
 738 1700 754 1764 754 1805 c 1
 896 1805 l 1
 896 1683 809 1600 687 1600 c 0
 565 1600 478 1683 478 1805 c 1
925 1490 m 1
 1264 1490 l 1
 1264 490 l 2
 1264 203 1189 -29 753 -29 c 2
 648 -29 l 2
 212 -29 139 186 139 473 c 2
 139 1490 l 1
 477 1490 l 1
 477 404 l 2
 477 285 494 237 701 237 c 0
 911 237 925 286 925 404 c 2
 925 1490 l 1
EndSplineSet
EndChar

StartChar: ubreve
Encoding: 291 365 321
Width: 992
Flags: W
LayerCount: 2
Fore
SplineSet
975 1080 m 1
 975 0 l 1
 664 0 l 1
 664 76 l 1
 606 30 532 -24 386 -24 c 0
 225 -24 131 89 131 226 c 2
 131 1080 l 1
 441 1080 l 1
 441 290 l 2
 441 213 485 186 534 186 c 0
 595 186 664 229 664 266 c 2
 664 1080 l 1
 975 1080 l 1
205 1393 m 1
 347 1393 l 1
 347 1352 363 1288 414 1288 c 0
 465 1288 481 1352 481 1393 c 1
 623 1393 l 1
 623 1271 536 1188 414 1188 c 0
 292 1188 205 1271 205 1393 c 1
EndSplineSet
EndChar

StartChar: Uring
Encoding: 292 366 322
Width: 1373
Flags: W
LayerCount: 2
Fore
SplineSet
687 1700 m 0
 735 1700 751 1758 751 1797 c 0
 751 1835 735 1895 687 1895 c 0
 638 1895 620 1839 620 1799 c 0
 620 1758 637 1700 687 1700 c 0
477 1798 m 0
 477 1921 568 1995 687 1995 c 0
 805 1995 896 1920 896 1798 c 0
 896 1675 806 1600 687 1600 c 0
 568 1600 477 1675 477 1798 c 0
925 1490 m 1
 1264 1490 l 1
 1264 490 l 2
 1264 203 1189 -29 753 -29 c 2
 648 -29 l 2
 212 -29 139 186 139 473 c 2
 139 1490 l 1
 477 1490 l 1
 477 404 l 2
 477 285 494 237 701 237 c 0
 911 237 925 286 925 404 c 2
 925 1490 l 1
EndSplineSet
EndChar

StartChar: uring
Encoding: 293 367 323
Width: 992
Flags: W
LayerCount: 2
Fore
SplineSet
975 1080 m 1
 975 0 l 1
 664 0 l 1
 664 76 l 1
 606 30 532 -24 386 -24 c 0
 225 -24 131 89 131 226 c 2
 131 1080 l 1
 441 1080 l 1
 441 290 l 2
 441 213 485 186 534 186 c 0
 595 186 664 229 664 266 c 2
 664 1080 l 1
 975 1080 l 1
414 1288 m 0
 462 1288 478 1346 478 1385 c 0
 478 1423 462 1483 414 1483 c 0
 365 1483 347 1427 347 1387 c 0
 347 1346 364 1288 414 1288 c 0
204 1386 m 0
 204 1509 295 1583 414 1583 c 0
 532 1583 623 1508 623 1386 c 0
 623 1263 533 1188 414 1188 c 0
 295 1188 204 1263 204 1386 c 0
EndSplineSet
EndChar

StartChar: Uhungarumlaut
Encoding: 294 368 324
Width: 1373
Flags: W
LayerCount: 2
Fore
SplineSet
300 1573 m 1
 413 1938 l 1
 762 1938 l 1
 469 1573 l 1
 300 1573 l 1
607 1573 m 1
 812 1938 l 1
 1073 1938 l 1
 895 1573 l 1
 607 1573 l 1
925 1490 m 1
 1264 1490 l 1
 1264 490 l 2
 1264 203 1189 -29 753 -29 c 2
 648 -29 l 2
 212 -29 139 186 139 473 c 2
 139 1490 l 1
 477 1490 l 1
 477 404 l 2
 477 285 494 237 701 237 c 0
 911 237 925 286 925 404 c 2
 925 1490 l 1
EndSplineSet
EndChar

StartChar: uhungarumlaut
Encoding: 295 369 325
Width: 992
Flags: W
LayerCount: 2
Fore
SplineSet
975 1080 m 1
 975 0 l 1
 664 0 l 1
 664 76 l 1
 606 30 532 -24 386 -24 c 0
 225 -24 131 89 131 226 c 2
 131 1080 l 1
 441 1080 l 1
 441 290 l 2
 441 213 485 186 534 186 c 0
 595 186 664 229 664 266 c 2
 664 1080 l 1
 975 1080 l 1
197 1189 m 1
 310 1554 l 1
 659 1554 l 1
 366 1189 l 1
 197 1189 l 1
504 1189 m 1
 709 1554 l 1
 970 1554 l 1
 792 1189 l 1
 504 1189 l 1
EndSplineSet
EndChar

StartChar: Uogonek
Encoding: 296 370 326
Width: 1373
Flags: W
LayerCount: 2
Fore
SplineSet
1236 -296 m 1
 1219 -429 l 1
 1084 -432 889 -424 889 -244 c 0
 889 -153 949 -49 1014 13 c 1
 1136 13 l 1
 1111 -58 1077 -123 1077 -199 c 0
 1077 -297 1172 -296 1236 -296 c 1
925 1490 m 1
 1264 1490 l 1
 1264 490 l 2
 1264 203 1189 -29 753 -29 c 2
 648 -29 l 2
 212 -29 139 186 139 473 c 2
 139 1490 l 1
 477 1490 l 1
 477 404 l 2
 477 285 494 237 701 237 c 0
 911 237 925 286 925 404 c 2
 925 1490 l 1
EndSplineSet
EndChar

StartChar: uogonek
Encoding: 297 371 327
Width: 992
Flags: W
LayerCount: 2
Fore
SplineSet
975 1080 m 1
 975 0 l 1
 664 0 l 1
 664 76 l 1
 606 30 532 -24 386 -24 c 0
 225 -24 131 89 131 226 c 2
 131 1080 l 1
 441 1080 l 1
 441 290 l 2
 441 213 485 186 534 186 c 0
 595 186 664 229 664 266 c 2
 664 1080 l 1
 975 1080 l 1
747 -303 m 1
 730 -436 l 1
 595 -439 400 -431 400 -251 c 0
 400 -160 460 -56 525 6 c 1
 647 6 l 1
 622 -65 588 -130 588 -206 c 0
 588 -304 683 -303 747 -303 c 1
EndSplineSet
EndChar

StartChar: Wcircumflex
Encoding: 298 372 328
Width: 1409
Flags: W
LayerCount: 2
Fore
SplineSet
349 1563 m 1
 515 1899 l 1
 891 1899 l 1
 1061 1563 l 1
 814 1563 l 1
 703 1730 l 1
 594 1563 l 1
 349 1563 l 1
223 0 m 1
 17 1490 l 1
 274 1490 l 1
 367 503 l 1
 505 1490 l 1
 902 1490 l 1
 1038 509 l 1
 1135 1490 l 1
 1392 1490 l 1
 1183 0 l 1
 926 0 l 1
 701 975 l 1
 481 0 l 1
 223 0 l 1
EndSplineSet
EndChar

StartChar: wcircumflex
Encoding: 299 373 329
Width: 1222
Flags: W
LayerCount: 2
Fore
SplineSet
180 0 m 1
 22 1080 l 1
 255 1080 l 1
 341 414 l 1
 438 1080 l 1
 809 1080 l 1
 890 401 l 1
 985 1080 l 1
 1200 1080 l 1
 1040 0 l 1
 800 0 l 1
 617 638 l 1
 420 0 l 1
 180 0 l 1
239 1189 m 1
 405 1525 l 1
 781 1525 l 1
 951 1189 l 1
 704 1189 l 1
 593 1356 l 1
 484 1189 l 1
 239 1189 l 1
EndSplineSet
EndChar

StartChar: Ycircumflex
Encoding: 300 374 330
Width: 1204
Flags: W
LayerCount: 2
Fore
SplineSet
246 1563 m 1
 412 1899 l 1
 788 1899 l 1
 958 1563 l 1
 711 1563 l 1
 600 1730 l 1
 491 1563 l 1
 246 1563 l 1
340 0 m 1
 340 492 l 1
 -1 1490 l 1
 347 1490 l 1
 598 835 l 1
 689 1050 782 1275 873 1490 c 1
 1206 1490 l 1
 668 492 l 1
 668 0 l 1
 340 0 l 1
EndSplineSet
EndChar

StartChar: ycircumflex
Encoding: 301 375 331
Width: 954
Flags: W
LayerCount: 2
Fore
SplineSet
228 97 m 0
 228 340 43 947 15 1080 c 1
 309 1080 l 1
 490 477 l 1
 648 1080 l 1
 945 1080 l 1
 683 -29 l 1
 609 -223 338 -257 108 -257 c 2
 72 -257 l 1
 72 -65 l 1
 184 -63 228 -14 228 97 c 0
76 1189 m 1
 242 1525 l 1
 618 1525 l 1
 788 1189 l 1
 541 1189 l 1
 430 1356 l 1
 321 1189 l 1
 76 1189 l 1
EndSplineSet
EndChar

StartChar: Zacute
Encoding: 303 377 332
Width: 1050
Flags: W
LayerCount: 2
Fore
SplineSet
327 1563 m 1
 439 1928 l 1
 725 1928 l 1
 495 1563 l 1
 327 1563 l 1
66 0 m 1
 66 189 l 1
 611 1282 l 1
 112 1282 l 1
 112 1489 l 1
 979 1489 l 1
 979 1299 l 1
 431 207 l 1
 979 207 l 1
 979 0 l 1
 66 0 l 1
EndSplineSet
EndChar

StartChar: zacute
Encoding: 304 378 333
Width: 815
Flags: W
LayerCount: 2
Fore
SplineSet
47 0 m 1
 47 189 l 1
 419 879 l 1
 94 879 l 1
 94 1080 l 1
 775 1080 l 1
 775 895 l 1
 398 202 l 1
 775 202 l 1
 775 0 l 1
 47 0 l 1
234 1153 m 1
 346 1518 l 1
 632 1518 l 1
 402 1153 l 1
 234 1153 l 1
EndSplineSet
EndChar

StartChar: Zdotaccent
Encoding: 305 379 334
Width: 1050
Flags: W
LayerCount: 2
Fore
SplineSet
392 1650 m 1
 392 1914 l 1
 659 1914 l 1
 659 1650 l 1
 392 1650 l 1
66 0 m 1
 66 189 l 1
 611 1282 l 1
 112 1282 l 1
 112 1489 l 1
 979 1489 l 1
 979 1299 l 1
 431 207 l 1
 979 207 l 1
 979 0 l 1
 66 0 l 1
EndSplineSet
EndChar

StartChar: zdotaccent
Encoding: 306 380 335
Width: 815
Flags: W
LayerCount: 2
Fore
SplineSet
47 0 m 1
 47 189 l 1
 419 879 l 1
 94 879 l 1
 94 1080 l 1
 775 1080 l 1
 775 895 l 1
 398 202 l 1
 775 202 l 1
 775 0 l 1
 47 0 l 1
203 1240 m 1
 203 1504 l 1
 470 1504 l 1
 470 1240 l 1
 203 1240 l 1
EndSplineSet
EndChar

StartChar: uni01C4
Encoding: 310 452 336
Width: 2257
Flags: W
LayerCount: 2
Fore
SplineSet
1543 1556 m 1
 1376 1892 l 1
 1622 1892 l 1
 1730 1726 l 1
 1842 1892 l 1
 2089 1892 l 1
 1919 1556 l 1
 1543 1556 l 1
1273 0 m 1
 1273 189 l 1
 1818 1282 l 1
 1319 1282 l 1
 1319 1489 l 1
 2186 1489 l 1
 2186 1299 l 1
 1638 207 l 1
 2186 207 l 1
 2186 0 l 1
 1273 0 l 1
930 433 m 2
 930 1053 l 2
 930 1165 916 1223 709 1223 c 2
 501 1223 l 1
 501 266 l 1
 709 266 l 2
 919 266 930 315 930 433 c 2
758 0 m 2
 162 0 l 1
 162 1490 l 1
 758 1490 l 2
 1197 1490 1269 1257 1269 962 c 2
 1269 519 l 2
 1269 232 1194 0 758 0 c 2
EndSplineSet
EndChar

StartChar: uni01C5
Encoding: 311 453 337
Width: 2022
Flags: W
LayerCount: 2
Fore
SplineSet
1254 0 m 1
 1254 189 l 1
 1626 879 l 1
 1301 879 l 1
 1301 1080 l 1
 1982 1080 l 1
 1982 895 l 1
 1605 202 l 1
 1982 202 l 1
 1982 0 l 1
 1254 0 l 1
1463 1146 m 1
 1296 1482 l 1
 1542 1482 l 1
 1650 1316 l 1
 1762 1482 l 1
 2009 1482 l 1
 1839 1146 l 1
 1463 1146 l 1
930 433 m 2
 930 1053 l 2
 930 1165 916 1223 709 1223 c 2
 501 1223 l 1
 501 266 l 1
 709 266 l 2
 919 266 930 315 930 433 c 2
758 0 m 2
 162 0 l 1
 162 1490 l 1
 758 1490 l 2
 1197 1490 1269 1257 1269 962 c 2
 1269 519 l 2
 1269 232 1194 0 758 0 c 2
EndSplineSet
EndChar

StartChar: uni01C6
Encoding: 312 454 338
Width: 1801
Flags: W
LayerCount: 2
Fore
SplineSet
1033 0 m 1
 1033 189 l 1
 1405 879 l 1
 1080 879 l 1
 1080 1080 l 1
 1761 1080 l 1
 1761 895 l 1
 1384 202 l 1
 1761 202 l 1
 1761 0 l 1
 1033 0 l 1
1242 1146 m 1
 1075 1482 l 1
 1321 1482 l 1
 1429 1316 l 1
 1541 1482 l 1
 1788 1482 l 1
 1618 1146 l 1
 1242 1146 l 1
428 281 m 2
 428 221 453 181 525 181 c 0
 585 181 656 219 656 253 c 2
 656 813 l 2
 656 848 600 894 534 894 c 0
 450 894 428 837 428 789 c 2
 428 281 l 2
967 0 m 1
 656 0 l 1
 656 81 l 1
 608 21 530 -25 410 -25 c 0
 266 -25 118 87 118 240 c 2
 118 828 l 2
 118 977 243 1105 430 1105 c 0
 570 1105 622 1040 656 1007 c 1
 656 1490 l 1
 967 1490 l 1
 967 0 l 1
EndSplineSet
EndChar

StartChar: uni01C7
Encoding: 313 455 339
Width: 1338
Flags: W
LayerCount: 2
Fore
SplineSet
661 0 m 1
 661 1490 l 1
 962 1490 l 1
 962 207 l 1
 1332 207 l 1
 1332 0 l 1
 661 0 l 1
0 -28 m 1
 0 184 l 1
 144 182 182 212 182 360 c 2
 182 1490 l 1
 483 1490 l 1
 483 357 l 2
 483 100 429 -28 148 -28 c 2
 0 -28 l 1
EndSplineSet
EndChar

StartChar: uni01C8
Encoding: 314 456 340
Width: 1240
Flags: W
LayerCount: 2
Fore
SplineSet
750 -235 m 1
 750 -33 l 1
 773 -40 798 -46 822 -46 c 0
 873 -46 885 3 885 46 c 2
 885 1080 l 1
 1163 1080 l 1
 1163 22 l 2
 1163 -148 1073 -257 898 -257 c 0
 848 -257 798 -247 750 -235 c 1
885 1174 m 1
 885 1435 l 1
 1163 1435 l 1
 1163 1174 l 1
 885 1174 l 1
89 0 m 1
 89 1490 l 1
 390 1490 l 1
 390 207 l 1
 760 207 l 1
 760 0 l 1
 89 0 l 1
EndSplineSet
EndChar

StartChar: uni01C9
Encoding: 315 457 341
Width: 911
Flags: W
LayerCount: 2
Fore
SplineSet
604 1490 m 1
 914 1490 l 1
 914 317 l 2
 914 239 947 205 1045 205 c 1
 1045 0 l 1
 850 0 l 2
 665 0 604 101 604 253 c 2
 604 1490 l 1
-17 -235 m 1
 -17 -33 l 1
 6 -40 31 -46 55 -46 c 0
 106 -46 118 3 118 46 c 2
 118 1080 l 1
 396 1080 l 1
 396 22 l 2
 396 -148 306 -257 131 -257 c 0
 81 -257 31 -247 -17 -235 c 1
118 1174 m 1
 118 1435 l 1
 396 1435 l 1
 396 1174 l 1
 118 1174 l 1
EndSplineSet
EndChar

StartChar: uni01CA
Encoding: 316 458 342
Width: 1906
Flags: W
LayerCount: 2
Fore
SplineSet
734 0 m 1
 734 1490 l 1
 954 1490 l 1
 1558 645 l 1
 1558 1490 l 1
 1859 1490 l 1
 1859 0 l 1
 1665 0 l 1
 1038 868 l 1
 1038 0 l 1
 734 0 l 1
0 -28 m 1
 0 184 l 1
 144 182 182 212 182 360 c 2
 182 1490 l 1
 483 1490 l 1
 483 357 l 2
 483 100 429 -28 148 -28 c 2
 0 -28 l 1
EndSplineSet
EndChar

StartChar: uni01CB
Encoding: 317 459 343
Width: 1808
Flags: W
LayerCount: 2
Fore
SplineSet
1318 -235 m 1
 1318 -33 l 1
 1341 -40 1366 -46 1390 -46 c 0
 1441 -46 1453 3 1453 46 c 2
 1453 1080 l 1
 1731 1080 l 1
 1731 22 l 2
 1731 -148 1641 -257 1466 -257 c 0
 1416 -257 1366 -247 1318 -235 c 1
1453 1174 m 1
 1453 1435 l 1
 1731 1435 l 1
 1731 1174 l 1
 1453 1174 l 1
162 0 m 1
 162 1490 l 1
 382 1490 l 1
 986 645 l 1
 986 1490 l 1
 1287 1490 l 1
 1287 0 l 1
 1093 0 l 1
 466 868 l 1
 466 0 l 1
 162 0 l 1
EndSplineSet
EndChar

StartChar: uni01CC
Encoding: 318 460 344
Width: 1463
Flags: W
LayerCount: 2
Fore
SplineSet
604 0 m 1
 604 1080 l 1
 914 1080 l 1
 914 1004 l 1
 972 1050 1046 1104 1192 1104 c 0
 1353 1104 1448 991 1448 854 c 2
 1448 0 l 1
 1137 0 l 1
 1137 790 l 2
 1137 867 1094 894 1045 894 c 0
 984 894 914 851 914 814 c 2
 914 0 l 1
 604 0 l 1
-17 -235 m 1
 -17 -33 l 1
 6 -40 31 -46 55 -46 c 0
 106 -46 118 3 118 46 c 2
 118 1080 l 1
 396 1080 l 1
 396 22 l 2
 396 -148 306 -257 131 -257 c 0
 81 -257 31 -247 -17 -235 c 1
118 1174 m 1
 118 1435 l 1
 396 1435 l 1
 396 1174 l 1
 118 1174 l 1
EndSplineSet
EndChar

StartChar: uni01F1
Encoding: 319 497 345
Width: 2257
Flags: W
LayerCount: 2
Fore
SplineSet
1273 0 m 1
 1273 189 l 1
 1818 1282 l 1
 1319 1282 l 1
 1319 1489 l 1
 2186 1489 l 1
 2186 1299 l 1
 1638 207 l 1
 2186 207 l 1
 2186 0 l 1
 1273 0 l 1
930 433 m 2
 930 1053 l 2
 930 1165 916 1223 709 1223 c 2
 501 1223 l 1
 501 266 l 1
 709 266 l 2
 919 266 930 315 930 433 c 2
758 0 m 2
 162 0 l 1
 162 1490 l 1
 758 1490 l 2
 1197 1490 1269 1257 1269 962 c 2
 1269 519 l 2
 1269 232 1194 0 758 0 c 2
EndSplineSet
EndChar

StartChar: uni01F2
Encoding: 320 498 346
Width: 2022
Flags: W
LayerCount: 2
Fore
SplineSet
1254 0 m 1
 1254 189 l 1
 1626 879 l 1
 1301 879 l 1
 1301 1080 l 1
 1982 1080 l 1
 1982 895 l 1
 1605 202 l 1
 1982 202 l 1
 1982 0 l 1
 1254 0 l 1
930 433 m 2
 930 1053 l 2
 930 1165 916 1223 709 1223 c 2
 501 1223 l 1
 501 266 l 1
 709 266 l 2
 919 266 930 315 930 433 c 2
758 0 m 2
 162 0 l 1
 162 1490 l 1
 758 1490 l 2
 1197 1490 1269 1257 1269 962 c 2
 1269 519 l 2
 1269 232 1194 0 758 0 c 2
EndSplineSet
EndChar

StartChar: uni01F3
Encoding: 321 499 347
Width: 1801
Flags: W
LayerCount: 2
Fore
SplineSet
1033 0 m 1
 1033 189 l 1
 1405 879 l 1
 1080 879 l 1
 1080 1080 l 1
 1761 1080 l 1
 1761 895 l 1
 1384 202 l 1
 1761 202 l 1
 1761 0 l 1
 1033 0 l 1
428 281 m 2
 428 221 453 181 525 181 c 0
 585 181 656 219 656 253 c 2
 656 813 l 2
 656 848 600 894 534 894 c 0
 450 894 428 837 428 789 c 2
 428 281 l 2
967 0 m 1
 656 0 l 1
 656 81 l 1
 608 21 530 -25 410 -25 c 0
 266 -25 118 87 118 240 c 2
 118 828 l 2
 118 977 243 1105 430 1105 c 0
 570 1105 622 1040 656 1007 c 1
 656 1490 l 1
 967 1490 l 1
 967 0 l 1
EndSplineSet
EndChar

StartChar: uni01F4
Encoding: 322 500 348
Width: 1376
Flags: W
LayerCount: 2
Fore
SplineSet
490 1563 m 1
 602 1928 l 1
 888 1928 l 1
 658 1563 l 1
 490 1563 l 1
70 466 m 2
 70 991 l 2
 70 1290 174 1518 619 1518 c 0
 1176 1518 1288 1309 1288 1022 c 2
 1288 934 l 1
 868 934 l 1
 868 1039 l 2
 868 1148 847 1286 619 1286 c 0
 407 1286 371 1164 371 1066 c 2
 371 423 l 2
 371 325 406 204 619 204 c 0
 832 204 867 334 867 431 c 2
 867 550 l 1
 560 550 l 1
 560 766 l 1
 1300 766 l 1
 1300 0 l 1
 1037 0 l 1
 968 104 l 1
 877 25 689 -29 512 -29 c 0
 170 -29 70 235 70 466 c 2
EndSplineSet
EndChar

StartChar: uni01F5
Encoding: 323 501 349
Width: 966
Flags: W
LayerCount: 2
Fore
SplineSet
271 281 m 0
 271 183 957 249 957 4 c 0
 957 -233 780 -282 494 -282 c 0
 282 -282 18 -272 18 -88 c 0
 18 -10 66 71 132 119 c 1
 102 134 35 173 35 205 c 0
 35 250 111 349 145 392 c 1
 94 486 60 597 60 702 c 0
 60 906 153 1105 445 1105 c 0
 573 1105 702 1086 749 1036 c 1
 796 1090 882 1105 952 1105 c 2
 987 1105 l 1
 964 905 l 1
 923 905 875 899 845 869 c 1
 877 811 880 742 880 681 c 0
 880 486 763 313 429 313 c 0
 368 313 290 325 290 325 c 1
 290 325 271 288 271 281 c 0
433 523 m 0
 554 523 555 665 555 715 c 0
 555 763 554 912 441 912 c 0
 323 912 319 798 319 704 c 0
 319 656 320 523 433 523 c 0
296 65 m 1
 276 65 l 1
 259 38 239 0 239 -38 c 0
 239 -84 418 -87 506 -87 c 0
 552 -87 685 -91 685 -31 c 0
 685 53 412 62 296 65 c 1
334 1189 m 1
 446 1554 l 1
 732 1554 l 1
 502 1189 l 1
 334 1189 l 1
EndSplineSet
EndChar

StartChar: uni0200
Encoding: 324 512 350
Width: 1175
Flags: W
LayerCount: 2
Fore
SplineSet
53 0 m 1
 386 1490 l 1
 909 1490 l 1
 1241 0 l 1
 892 0 l 1
 825 319 l 1
 467 319 l 1
 400 0 l 1
 53 0 l 1
501 504 m 1
 789 504 l 1
 649 1280 l 1
 501 504 l 1
EndSplineSet
EndChar

StartChar: uni0201
Encoding: 325 513 351
Width: 983
Flags: W
LayerCount: 2
Fore
SplineSet
641 458 m 1
 424 431 387 410 387 317 c 0
 387 222 433 136 641 233 c 1
 641 458 l 1
742 0 m 1
 693 112 l 1
 630 4 518 -24 379 -24 c 0
 213 -24 106 97 106 282 c 0
 106 548 215 594 640 636 c 1
 640 780 l 2
 640 852 613 894 528 894 c 0
 412 894 402 833 402 780 c 2
 402 719 l 1
 114 719 l 1
 114 966 223 1105 560 1105 c 0
 843 1105 950 967 950 800 c 2
 950 287 l 1
 950 0 l 1
 742 0 l 1
EndSplineSet
EndChar

StartChar: uni0202
Encoding: 326 514 352
Width: 1175
Flags: W
LayerCount: 2
Fore
SplineSet
585 1603 m 1
 443 1603 l 1
 443 1725 530 1808 652 1808 c 0
 774 1808 861 1725 861 1603 c 1
 719 1603 l 1
 719 1644 703 1708 652 1708 c 0
 601 1708 585 1644 585 1603 c 1
53 0 m 1
 386 1490 l 1
 909 1490 l 1
 1241 0 l 1
 892 0 l 1
 825 319 l 1
 467 319 l 1
 400 0 l 1
 53 0 l 1
501 504 m 1
 789 504 l 1
 649 1280 l 1
 501 504 l 1
EndSplineSet
EndChar

StartChar: uni0203
Encoding: 327 515 353
Width: 983
Flags: W
LayerCount: 2
Fore
SplineSet
341 1189 m 1
 199 1189 l 1
 199 1311 286 1394 408 1394 c 0
 530 1394 617 1311 617 1189 c 1
 475 1189 l 1
 475 1230 459 1294 408 1294 c 0
 357 1294 341 1230 341 1189 c 1
641 458 m 1
 424 431 387 410 387 317 c 0
 387 222 433 136 641 233 c 1
 641 458 l 1
742 0 m 1
 693 112 l 1
 630 4 518 -24 379 -24 c 0
 213 -24 106 97 106 282 c 0
 106 548 215 594 640 636 c 1
 640 780 l 2
 640 852 613 894 528 894 c 0
 412 894 402 833 402 780 c 2
 402 719 l 1
 114 719 l 1
 114 966 223 1105 560 1105 c 0
 843 1105 950 967 950 800 c 2
 950 287 l 1
 950 0 l 1
 742 0 l 1
EndSplineSet
EndChar

StartChar: uni0204
Encoding: 328 516 354
Width: 821
Flags: W
LayerCount: 2
Fore
SplineSet
162 0 m 1
 162 1490 l 1
 943 1490 l 1
 943 1228 l 1
 501 1228 l 1
 501 877 l 1
 850 877 l 1
 850 636 l 1
 501 636 l 1
 501 261 l 1
 943 261 l 1
 943 0 l 1
 162 0 l 1
EndSplineSet
EndChar

StartChar: uni0205
Encoding: 329 517 355
Width: 916
Flags: W
LayerCount: 2
Fore
SplineSet
535 -24 m 0
 825 -24 951 96 951 281 c 2
 951 409 l 1
 649 409 l 1
 649 277 l 2
 649 239 639 186 536 186 c 0
 437 186 422 241 422 277 c 2
 422 515 l 1
 952 515 l 1
 952 664 l 1
 951 664 l 1
 951 740 l 2
 951 962 880 1104 532 1104 c 0
 248 1104 112 961 112 740 c 2
 112 281 l 2
 112 96 310 -24 535 -24 c 0
422 664 m 1
 422 812 l 2
 422 847 445 894 536 894 c 0
 630 894 649 849 649 812 c 2
 649 664 l 1
 422 664 l 1
EndSplineSet
EndChar

StartChar: uni0206
Encoding: 330 518 356
Width: 821
Flags: W
LayerCount: 2
Fore
SplineSet
443 1603 m 1
 301 1603 l 1
 301 1725 388 1808 510 1808 c 0
 632 1808 719 1725 719 1603 c 1
 577 1603 l 1
 577 1644 561 1708 510 1708 c 0
 459 1708 443 1644 443 1603 c 1
162 0 m 1
 162 1490 l 1
 943 1490 l 1
 943 1228 l 1
 501 1228 l 1
 501 877 l 1
 850 877 l 1
 850 636 l 1
 501 636 l 1
 501 261 l 1
 943 261 l 1
 943 0 l 1
 162 0 l 1
EndSplineSet
EndChar

StartChar: uni0207
Encoding: 331 519 357
Width: 916
Flags: W
LayerCount: 2
Fore
SplineSet
329 1189 m 1
 187 1189 l 1
 187 1311 274 1394 396 1394 c 0
 518 1394 605 1311 605 1189 c 1
 463 1189 l 1
 463 1230 447 1294 396 1294 c 0
 345 1294 329 1230 329 1189 c 1
535 -24 m 0
 825 -24 951 96 951 281 c 2
 951 409 l 1
 649 409 l 1
 649 277 l 2
 649 239 639 186 536 186 c 0
 437 186 422 241 422 277 c 2
 422 515 l 1
 952 515 l 1
 952 664 l 1
 951 664 l 1
 951 740 l 2
 951 962 880 1104 532 1104 c 0
 248 1104 112 961 112 740 c 2
 112 281 l 2
 112 96 310 -24 535 -24 c 0
422 664 m 1
 422 812 l 2
 422 847 445 894 536 894 c 0
 630 894 649 849 649 812 c 2
 649 664 l 1
 422 664 l 1
EndSplineSet
EndChar

StartChar: uni0208
Encoding: 332 520 358
Width: 478
Flags: W
LayerCount: 2
Fore
SplineSet
89 0 m 1
 89 1490 l 1
 390 1490 l 1
 390 0 l 1
 89 0 l 1
EndSplineSet
EndChar

StartChar: uni0209
Encoding: 333 521 359
Width: 440
Flags: W
LayerCount: 2
Fore
SplineSet
103 0 m 1
 103 1080 l 1
 381 1080 l 1
 381 0 l 1
 103 0 l 1
EndSplineSet
EndChar

StartChar: uni020A
Encoding: 334 522 360
Width: 478
Flags: W
LayerCount: 2
Fore
SplineSet
172 1603 m 1
 30 1603 l 1
 30 1725 117 1808 239 1808 c 0
 361 1808 448 1725 448 1603 c 1
 306 1603 l 1
 306 1644 290 1708 239 1708 c 0
 188 1708 172 1644 172 1603 c 1
89 0 m 1
 89 1490 l 1
 390 1490 l 1
 390 0 l 1
 89 0 l 1
EndSplineSet
EndChar

StartChar: uni020B
Encoding: 335 523 361
Width: 437
Flags: W
LayerCount: 2
Fore
SplineSet
131 0 m 1
 131 1080 l 1
 441 1080 l 1
 441 0 l 1
 131 0 l 1
131 1174 m 1
 131 1435 l 1
 441 1435 l 1
 441 1174 l 1
 131 1174 l 1
EndSplineSet
EndChar

StartChar: uni020C
Encoding: 336 524 362
Width: 1354
Flags: W
LayerCount: 2
Fore
SplineSet
917 404 m 2
 917 1082 l 2
 917 1194 900 1252 693 1252 c 0
 488 1252 469 1200 469 1082 c 2
 469 404 l 2
 469 285 486 237 693 237 c 0
 903 237 917 286 917 404 c 2
745 -29 m 2
 640 -29 l 2
 204 -29 131 186 131 473 c 2
 131 1007 l 2
 131 1302 201 1518 640 1518 c 2
 745 1518 l 2
 1184 1518 1255 1286 1255 991 c 2
 1255 490 l 2
 1255 203 1181 -29 745 -29 c 2
EndSplineSet
EndChar

StartChar: uni020D
Encoding: 337 525 363
Width: 959
Flags: W
LayerCount: 2
Fore
SplineSet
112 281 m 2
 112 740 l 2
 112 961 248 1104 532 1104 c 0
 880 1104 964 962 964 740 c 2
 964 281 l 2
 964 96 825 -24 535 -24 c 0
 310 -24 112 96 112 281 c 2
654 277 m 2
 654 812 l 2
 654 849 630 894 536 894 c 0
 445 894 422 847 422 812 c 2
 422 277 l 2
 422 241 437 186 536 186 c 0
 639 186 654 239 654 277 c 2
EndSplineSet
EndChar

StartChar: uni020E
Encoding: 338 526 364
Width: 1354
Flags: W
LayerCount: 2
Fore
SplineSet
439 1599 m 1
 297 1599 l 1
 297 1721 384 1804 506 1804 c 0
 628 1804 715 1721 715 1599 c 1
 573 1599 l 1
 573 1640 557 1704 506 1704 c 0
 455 1704 439 1640 439 1599 c 1
917 404 m 2
 917 1082 l 2
 917 1194 900 1252 693 1252 c 0
 488 1252 469 1200 469 1082 c 2
 469 404 l 2
 469 285 486 237 693 237 c 0
 903 237 917 286 917 404 c 2
745 -29 m 2
 640 -29 l 2
 204 -29 131 186 131 473 c 2
 131 1007 l 2
 131 1302 201 1518 640 1518 c 2
 745 1518 l 2
 1184 1518 1255 1286 1255 991 c 2
 1255 490 l 2
 1255 203 1181 -29 745 -29 c 2
EndSplineSet
EndChar

StartChar: uni020F
Encoding: 339 527 365
Width: 959
Flags: W
LayerCount: 2
Fore
SplineSet
346 1200 m 1
 204 1200 l 1
 204 1322 291 1405 413 1405 c 0
 535 1405 622 1322 622 1200 c 1
 480 1200 l 1
 480 1241 464 1305 413 1305 c 0
 362 1305 346 1241 346 1200 c 1
112 281 m 2
 112 740 l 2
 112 961 248 1104 532 1104 c 0
 880 1104 964 962 964 740 c 2
 964 281 l 2
 964 96 825 -24 535 -24 c 0
 310 -24 112 96 112 281 c 2
654 277 m 2
 654 812 l 2
 654 849 630 894 536 894 c 0
 445 894 422 847 422 812 c 2
 422 277 l 2
 422 241 437 186 536 186 c 0
 639 186 654 239 654 277 c 2
EndSplineSet
EndChar

StartChar: uni0210
Encoding: 340 528 366
Width: 1156
Flags: W
LayerCount: 2
Fore
SplineSet
89 0 m 1
 89 1490 l 1
 437 1490 l 2
 955 1490 1150 1387 1150 1097 c 0
 1150 966 1131 799 927 720 c 1
 939 483 1014 247 1098 0 c 1
 786 0 l 1
 479 686 l 1
 390 686 l 1
 390 0 l 1
 89 0 l 1
390 870 m 1
 545 870 l 2
 725 870 753 1018 753 1073 c 0
 753 1128 732 1269 570 1269 c 2
 390 1269 l 1
 390 870 l 1
EndSplineSet
EndChar

StartChar: uni0211
Encoding: 341 529 367
Width: 590
Flags: W
LayerCount: 2
Fore
SplineSet
131 0 m 1
 131 1080 l 1
 441 1080 l 1
 441 992 l 1
 477 1050 526 1096 590 1096 c 0
 616 1096 639 1091 665 1087 c 1
 665 852 l 1
 506 852 441 816 441 700 c 2
 441 0 l 1
 131 0 l 1
EndSplineSet
EndChar

StartChar: uni0212
Encoding: 342 530 368
Width: 1156
Flags: W
LayerCount: 2
Fore
SplineSet
479 1599 m 1
 337 1599 l 1
 337 1721 424 1804 546 1804 c 0
 668 1804 755 1721 755 1599 c 1
 613 1599 l 1
 613 1640 597 1704 546 1704 c 0
 495 1704 479 1640 479 1599 c 1
89 0 m 1
 89 1490 l 1
 437 1490 l 2
 955 1490 1150 1387 1150 1097 c 0
 1150 966 1131 799 927 720 c 1
 939 483 1014 247 1098 0 c 1
 786 0 l 1
 479 686 l 1
 390 686 l 1
 390 0 l 1
 89 0 l 1
390 870 m 1
 545 870 l 2
 725 870 753 1018 753 1073 c 0
 753 1128 732 1269 570 1269 c 2
 390 1269 l 1
 390 870 l 1
EndSplineSet
EndChar

StartChar: uni0213
Encoding: 343 531 369
Width: 590
Flags: W
LayerCount: 2
Fore
SplineSet
289 1189 m 1
 147 1189 l 1
 147 1311 234 1394 356 1394 c 0
 478 1394 565 1311 565 1189 c 1
 423 1189 l 1
 423 1230 407 1294 356 1294 c 0
 305 1294 289 1230 289 1189 c 1
131 0 m 1
 131 1080 l 1
 441 1080 l 1
 441 992 l 1
 477 1050 526 1096 590 1096 c 0
 616 1096 639 1091 665 1087 c 1
 665 852 l 1
 506 852 441 816 441 700 c 2
 441 0 l 1
 131 0 l 1
EndSplineSet
EndChar

StartChar: uni0214
Encoding: 344 532 370
Width: 1373
Flags: W
LayerCount: 2
Fore
SplineSet
925 1490 m 1
 1264 1490 l 1
 1264 490 l 2
 1264 203 1189 -29 753 -29 c 2
 648 -29 l 2
 212 -29 139 186 139 473 c 2
 139 1490 l 1
 477 1490 l 1
 477 404 l 2
 477 285 494 237 701 237 c 0
 911 237 925 286 925 404 c 2
 925 1490 l 1
EndSplineSet
EndChar

StartChar: uni0215
Encoding: 345 533 371
Width: 992
Flags: W
LayerCount: 2
Fore
SplineSet
975 1080 m 1
 975 0 l 1
 664 0 l 1
 664 76 l 1
 606 30 532 -24 386 -24 c 0
 225 -24 131 89 131 226 c 2
 131 1080 l 1
 441 1080 l 1
 441 290 l 2
 441 213 485 186 534 186 c 0
 595 186 664 229 664 266 c 2
 664 1080 l 1
 975 1080 l 1
EndSplineSet
EndChar

StartChar: uni0216
Encoding: 346 534 372
Width: 1373
Flags: W
LayerCount: 2
Fore
SplineSet
453 1599 m 1
 311 1599 l 1
 311 1721 398 1804 520 1804 c 0
 642 1804 729 1721 729 1599 c 1
 587 1599 l 1
 587 1640 571 1704 520 1704 c 0
 469 1704 453 1640 453 1599 c 1
925 1490 m 1
 1264 1490 l 1
 1264 490 l 2
 1264 203 1189 -29 753 -29 c 2
 648 -29 l 2
 212 -29 139 186 139 473 c 2
 139 1490 l 1
 477 1490 l 1
 477 404 l 2
 477 285 494 237 701 237 c 0
 911 237 925 286 925 404 c 2
 925 1490 l 1
EndSplineSet
EndChar

StartChar: uni0217
Encoding: 347 535 373
Width: 992
Flags: W
LayerCount: 2
Fore
SplineSet
343 1188 m 1
 201 1188 l 1
 201 1310 288 1393 410 1393 c 0
 532 1393 619 1310 619 1188 c 1
 477 1188 l 1
 477 1229 461 1293 410 1293 c 0
 359 1293 343 1229 343 1188 c 1
975 1080 m 1
 975 0 l 1
 664 0 l 1
 664 76 l 1
 606 30 532 -24 386 -24 c 0
 225 -24 131 89 131 226 c 2
 131 1080 l 1
 441 1080 l 1
 441 290 l 2
 441 213 485 186 534 186 c 0
 595 186 664 229 664 266 c 2
 664 1080 l 1
 975 1080 l 1
EndSplineSet
EndChar

StartChar: Scommaaccent
Encoding: 348 536 374
Width: 1218
Flags: W
LayerCount: 2
Fore
SplineSet
607 -31 m 0
 981 -31 1111 113 1123 326 c 0
 1124 345 1125 363 1125 380 c 0
 1125 514 1087 602 952 700 c 0
 950 701 504 1038 504 1039 c 0
 466 1067 453 1098 453 1134 c 0
 453 1197 496 1235 583 1235 c 0
 725 1235 738 1133 738 1063 c 2
 738 978 l 1
 1077 1021 l 1
 1077 1082 l 2
 1077 1293 979 1520 625 1520 c 0
 200 1520 96 1383 96 1139 c 0
 96 978 135 888 247 805 c 0
 248 804 687 472 688 472 c 0
 748 428 775 384 775 343 c 0
 775 280 719 255 616 255 c 0
 471 255 439 327 439 445 c 2
 439 454 l 2
 439 487 440 511 440 551 c 1
 89 492 l 1
 89 430 l 2
 89 208 160 -31 607 -31 c 0
EndSplineSet
EndChar

StartChar: scommaaccent
Encoding: 349 537 375
Width: 963
Flags: W
LayerCount: 2
Fore
SplineSet
31 261 m 1
 265 337 l 1
 298 282 356 180 481 180 c 0
 555 180 575 207 575 242 c 0
 575 318 433 384 277 458 c 1
 206 496 l 1
 109 580 17 679 17 813 c 0
 17 1007 188 1104 482 1104 c 0
 752 1104 877 955 919 802 c 1
 718 733 l 1
 679 793 604 898 468 898 c 0
 394 898 357 862 357 830 c 0
 357 775 497 706 628 645 c 1
 718 599 l 1
 813 513 913 405 945 277 c 1
 945 99 801 -24 503 -24 c 0
 203 -24 77 96 31 261 c 1
EndSplineSet
EndChar

StartChar: uni021A
Encoding: 350 538 376
Width: 777
Flags: W
LayerCount: 2
Fore
SplineSet
242 0 m 1
 242 1264 l 1
 12 1264 l 1
 12 1490 l 1
 766 1490 l 1
 766 1264 l 1
 551 1264 l 1
 551 0 l 1
 242 0 l 1
EndSplineSet
EndChar

StartChar: uni021B
Encoding: 351 539 377
Width: 552
Flags: W
LayerCount: 2
Fore
SplineSet
146 894 m 1
 51 894 l 1
 51 1080 l 1
 146 1080 l 1
 173 1435 l 1
 458 1435 l 1
 458 1080 l 1
 645 1080 l 1
 645 894 l 1
 458 894 l 1
 458 304 l 2
 458 248 476 215 535 215 c 0
 562 215 618 216 645 220 c 1
 645 2 l 1
 569 -13 476 -20 422 -20 c 0
 190 -20 146 115 146 338 c 2
 146 894 l 1
EndSplineSet
EndChar

StartChar: uni0237
Encoding: 352 567 378
Width: 530
Flags: W
LayerCount: 2
Fore
SplineSet
40 -235 m 1
 40 -33 l 1
 63 -40 89 -46 113 -46 c 0
 164 -46 175 3 175 46 c 2
 175 1080 l 1
 453 1080 l 1
 453 22 l 2
 453 -148 363 -257 188 -257 c 0
 138 -257 88 -247 40 -235 c 1
EndSplineSet
EndChar

StartChar: uni030F
Encoding: 361 783 379
Width: 977
Flags: W
LayerCount: 2
Fore
SplineSet
271 1163 m 1
 94 1528 l 1
 355 1528 l 1
 559 1163 l 1
 271 1163 l 1
698 1163 m 1
 404 1528 l 1
 754 1528 l 1
 867 1163 l 1
 698 1163 l 1
EndSplineSet
EndChar

StartChar: uni0311
Encoding: 362 785 380
Width: 602
Flags: W
LayerCount: 2
Fore
SplineSet
221 1190 m 1
 79 1190 l 1
 79 1312 166 1395 288 1395 c 0
 410 1395 497 1312 497 1190 c 1
 355 1190 l 1
 355 1231 339 1295 288 1295 c 0
 237 1295 221 1231 221 1190 c 1
EndSplineSet
EndChar

StartChar: uni0326
Encoding: 421 806 381
Width: 418
Flags: W
LayerCount: 2
Fore
SplineSet
127 -529 m 1
 94 -391 l 1
 154 -391 160 -398 161 -328 c 1
 70 -328 l 1
 70 -65 l 1
 337 -65 l 1
 337 -336 367 -532 163 -532 c 0
 151 -532 139 -531 127 -529 c 1
EndSplineSet
EndChar

StartChar: uni1E02
Encoding: 364 7682 382
Width: 1212
Flags: W
LayerCount: 2
Fore
SplineSet
491 1619 m 1
 491 1883 l 1
 758 1883 l 1
 758 1619 l 1
 491 1619 l 1
89 0 m 1
 89 1490 l 1
 400 1490 l 2
 859 1490 1093 1427 1093 1105 c 0
 1093 945 1017 865 816 815 c 1
 1062 768 1132 625 1161 439 c 1
 1161 139 1018 0 509 0 c 2
 89 0 l 1
388 904 m 1
 479 904 l 2
 685 904 728 997 728 1112 c 0
 728 1289 588 1289 388 1288 c 1
 388 904 l 1
390 213 m 1
 440 213 l 2
 726 213 768 288 768 460 c 0
 768 603 695 706 443 706 c 2
 390 706 l 1
 390 213 l 1
EndSplineSet
EndChar

StartChar: uni1E03
Encoding: 365 7683 383
Width: 986
Flags: W
LayerCount: 2
Fore
SplineSet
366 1590 m 1
 366 1854 l 1
 633 1854 l 1
 633 1590 l 1
 366 1590 l 1
669 264 m 2
 669 789 l 2
 669 837 648 894 572 894 c 0
 506 894 441 848 441 813 c 2
 441 253 l 2
 441 219 495 181 555 181 c 0
 633 181 669 229 669 264 c 2
980 223 m 2
 980 76 888 -25 718 -25 c 0
 598 -25 514 21 441 81 c 1
 441 0 l 1
 131 0 l 1
 131 1490 l 1
 441 1490 l 1
 441 1007 l 1
 517 1062 601 1105 733 1105 c 0
 920 1105 980 960 980 828 c 2
 980 223 l 2
EndSplineSet
EndChar

StartChar: uni1E0A
Encoding: 366 7690 384
Width: 1207
Flags: W
LayerCount: 2
Fore
SplineSet
471 1650 m 1
 471 1914 l 1
 738 1914 l 1
 738 1650 l 1
 471 1650 l 1
930 433 m 2
 930 1053 l 2
 930 1165 916 1223 709 1223 c 2
 501 1223 l 1
 501 266 l 1
 709 266 l 2
 919 266 930 315 930 433 c 2
758 0 m 2
 162 0 l 1
 162 1490 l 1
 758 1490 l 2
 1197 1490 1269 1257 1269 962 c 2
 1269 519 l 2
 1269 232 1194 0 758 0 c 2
EndSplineSet
EndChar

StartChar: uni1E0B
Encoding: 367 7691 385
Width: 986
Flags: W
LayerCount: 2
Fore
SplineSet
353 1590 m 1
 353 1854 l 1
 620 1854 l 1
 620 1590 l 1
 353 1590 l 1
428 281 m 2
 428 221 453 181 525 181 c 0
 585 181 656 219 656 253 c 2
 656 813 l 2
 656 848 600 894 534 894 c 0
 450 894 428 837 428 789 c 2
 428 281 l 2
967 0 m 1
 656 0 l 1
 656 81 l 1
 608 21 530 -25 410 -25 c 0
 266 -25 118 87 118 240 c 2
 118 828 l 2
 118 977 243 1105 430 1105 c 0
 570 1105 622 1040 656 1007 c 1
 656 1490 l 1
 967 1490 l 1
 967 0 l 1
EndSplineSet
EndChar

StartChar: uni1E1E
Encoding: 368 7710 386
Width: 801
Flags: W
LayerCount: 2
Fore
SplineSet
313 1619 m 1
 313 1883 l 1
 580 1883 l 1
 580 1619 l 1
 313 1619 l 1
162 0 m 1
 162 1490 l 1
 943 1490 l 1
 943 1228 l 1
 501 1228 l 1
 501 861 l 1
 864 861 l 1
 864 621 l 1
 501 621 l 1
 501 0 l 1
 162 0 l 1
EndSplineSet
EndChar

StartChar: uni1E1F
Encoding: 369 7711 387
Width: 535
Flags: W
LayerCount: 2
Fore
SplineSet
161 0 m 1
 161 894 l 1
 65 894 l 1
 65 1080 l 1
 161 1080 l 1
 161 1082 l 1
 163 1257 222 1436 434 1436 c 0
 513 1436 643 1424 643 1424 c 1
 643 1216 l 1
 643 1216 553 1221 537 1221 c 0
 493 1221 471 1201 471 1130 c 2
 471 1080 l 1
 640 1080 l 1
 640 894 l 1
 471 894 l 1
 471 0 l 1
 161 0 l 1
160 1536 m 1
 160 1800 l 1
 427 1800 l 1
 427 1536 l 1
 160 1536 l 1
EndSplineSet
EndChar

StartChar: uni1E40
Encoding: 370 7744 388
Width: 1869
Flags: W
LayerCount: 2
Fore
SplineSet
801 1619 m 1
 801 1883 l 1
 1068 1883 l 1
 1068 1619 l 1
 801 1619 l 1
89 0 m 1
 89 1490 l 1
 560 1490 l 1
 760 496 l 1
 1154 1490 l 1
 1781 1490 l 1
 1424 0 l 1
 1202 0 l 1
 1370 1048 l 1
 1282 726 965 322 877 0 c 1
 652 0 l 1
 323 1054 l 1
 311 0 l 1
 89 0 l 1
EndSplineSet
EndChar

StartChar: uni1E41
Encoding: 371 7745 389
Width: 1516
Flags: W
LayerCount: 2
Fore
SplineSet
132 0 m 1
 132 1080 l 1
 434 1080 l 1
 434 1004 l 1
 527 1070 603 1104 741 1104 c 0
 840 1104 899 1056 930 994 c 1
 1021 1064 1128 1104 1262 1104 c 0
 1423 1104 1478 979 1478 871 c 2
 1478 0 l 1
 1176 0 l 1
 1176 790 l 2
 1176 867 1132 894 1083 894 c 0
 1026 894 965 857 957 822 c 1
 957 0 l 1
 655 0 l 1
 655 790 l 2
 655 867 611 894 562 894 c 0
 501 894 434 851 434 814 c 2
 434 0 l 1
 132 0 l 1
628 1205 m 1
 628 1469 l 1
 895 1469 l 1
 895 1205 l 1
 628 1205 l 1
EndSplineSet
EndChar

StartChar: uni1E56
Encoding: 372 7766 390
Width: 1028
Flags: W
LayerCount: 2
Fore
SplineSet
412 1619 m 1
 412 1883 l 1
 679 1883 l 1
 679 1619 l 1
 412 1619 l 1
89 0 m 1
 89 1490 l 1
 494 1490 l 2
 900 1490 1003 1330 1003 1067 c 0
 1003 726 841 639 391 637 c 1
 391 0 l 1
 89 0 l 1
393 850 m 1
 657 850 649 922 649 1073 c 0
 649 1191 648 1275 393 1275 c 1
 393 850 l 1
EndSplineSet
EndChar

StartChar: uni1E57
Encoding: 373 7767 391
Width: 986
Flags: W
LayerCount: 2
Fore
SplineSet
669 264 m 2
 669 789 l 2
 669 837 648 894 572 894 c 0
 506 894 441 848 441 813 c 2
 441 253 l 2
 441 219 495 181 555 181 c 0
 633 181 669 229 669 264 c 2
131 1080 m 1
 441 1080 l 1
 441 1007 l 1
 517 1062 601 1105 733 1105 c 0
 920 1105 980 960 980 828 c 2
 980 223 l 2
 980 76 888 -25 718 -25 c 0
 598 -25 514 21 441 81 c 1
 441 -410 l 1
 131 -410 l 1
 131 1080 l 1
366 1205 m 1
 366 1469 l 1
 633 1469 l 1
 633 1205 l 1
 366 1205 l 1
EndSplineSet
EndChar

StartChar: uni1E60
Encoding: 374 7776 392
Width: 1218
Flags: W
LayerCount: 2
Fore
SplineSet
476 1650 m 1
 476 1914 l 1
 743 1914 l 1
 743 1650 l 1
 476 1650 l 1
607 -31 m 0
 981 -31 1111 113 1123 326 c 0
 1124 345 1125 363 1125 380 c 0
 1125 514 1087 602 952 700 c 0
 950 701 504 1038 504 1039 c 0
 466 1067 453 1098 453 1134 c 0
 453 1197 496 1235 583 1235 c 0
 725 1235 738 1133 738 1063 c 2
 738 978 l 1
 1077 1021 l 1
 1077 1082 l 2
 1077 1293 979 1520 625 1520 c 0
 200 1520 96 1383 96 1139 c 0
 96 978 135 888 247 805 c 0
 248 804 687 472 688 472 c 0
 748 428 775 384 775 343 c 0
 775 280 719 255 616 255 c 0
 471 255 439 327 439 445 c 2
 439 454 l 2
 439 487 440 511 440 551 c 1
 89 492 l 1
 89 430 l 2
 89 208 160 -31 607 -31 c 0
EndSplineSet
EndChar

StartChar: uni1E61
Encoding: 375 7777 393
Width: 963
Flags: W
LayerCount: 2
Fore
SplineSet
31 261 m 1
 265 337 l 1
 298 282 356 180 481 180 c 0
 555 180 575 207 575 242 c 0
 575 318 433 384 277 458 c 1
 206 496 l 1
 109 580 17 679 17 813 c 0
 17 1007 188 1104 482 1104 c 0
 752 1104 877 955 919 802 c 1
 718 733 l 1
 679 793 604 898 468 898 c 0
 394 898 357 862 357 830 c 0
 357 775 497 706 628 645 c 1
 718 599 l 1
 813 513 913 405 945 277 c 1
 945 99 801 -24 503 -24 c 0
 203 -24 77 96 31 261 c 1
347 1204 m 1
 347 1468 l 1
 614 1468 l 1
 614 1204 l 1
 347 1204 l 1
EndSplineSet
EndChar

StartChar: uni1E6A
Encoding: 376 7786 394
Width: 777
Flags: W
LayerCount: 2
Fore
SplineSet
255 1650 m 1
 255 1914 l 1
 522 1914 l 1
 522 1650 l 1
 255 1650 l 1
242 0 m 1
 242 1264 l 1
 12 1264 l 1
 12 1490 l 1
 766 1490 l 1
 766 1264 l 1
 551 1264 l 1
 551 0 l 1
 242 0 l 1
EndSplineSet
EndChar

StartChar: uni1E6B
Encoding: 377 7787 395
Width: 552
Flags: W
LayerCount: 2
Fore
SplineSet
146 894 m 1
 51 894 l 1
 51 1080 l 1
 146 1080 l 1
 173 1435 l 1
 458 1435 l 1
 458 1080 l 1
 645 1080 l 1
 645 894 l 1
 458 894 l 1
 458 304 l 2
 458 248 476 215 535 215 c 0
 562 215 618 216 645 220 c 1
 645 2 l 1
 569 -13 476 -20 422 -20 c 0
 190 -20 146 115 146 338 c 2
 146 894 l 1
141 1535 m 1
 141 1799 l 1
 408 1799 l 1
 408 1535 l 1
 141 1535 l 1
EndSplineSet
EndChar

StartChar: Wgrave
Encoding: 378 7808 396
Width: 1409
Flags: W
LayerCount: 2
Fore
SplineSet
735 1563 m 1
 506 1928 l 1
 792 1928 l 1
 905 1563 l 1
 735 1563 l 1
223 0 m 1
 17 1490 l 1
 274 1490 l 1
 367 503 l 1
 505 1490 l 1
 902 1490 l 1
 1038 509 l 1
 1135 1490 l 1
 1392 1490 l 1
 1183 0 l 1
 926 0 l 1
 701 975 l 1
 481 0 l 1
 223 0 l 1
EndSplineSet
EndChar

StartChar: wgrave
Encoding: 379 7809 397
Width: 1222
Flags: W
LayerCount: 2
Fore
SplineSet
180 0 m 1
 22 1080 l 1
 255 1080 l 1
 341 414 l 1
 438 1080 l 1
 809 1080 l 1
 890 401 l 1
 985 1080 l 1
 1200 1080 l 1
 1040 0 l 1
 800 0 l 1
 617 638 l 1
 420 0 l 1
 180 0 l 1
442 1189 m 1
 213 1554 l 1
 499 1554 l 1
 612 1189 l 1
 442 1189 l 1
EndSplineSet
EndChar

StartChar: Wacute
Encoding: 380 7810 398
Width: 1409
Flags: W
LayerCount: 2
Fore
SplineSet
507 1563 m 1
 619 1928 l 1
 905 1928 l 1
 675 1563 l 1
 507 1563 l 1
223 0 m 1
 17 1490 l 1
 274 1490 l 1
 367 503 l 1
 505 1490 l 1
 902 1490 l 1
 1038 509 l 1
 1135 1490 l 1
 1392 1490 l 1
 1183 0 l 1
 926 0 l 1
 701 975 l 1
 481 0 l 1
 223 0 l 1
EndSplineSet
EndChar

StartChar: wacute
Encoding: 381 7811 399
Width: 1222
Flags: W
LayerCount: 2
Fore
SplineSet
180 0 m 1
 22 1080 l 1
 255 1080 l 1
 341 414 l 1
 438 1080 l 1
 809 1080 l 1
 890 401 l 1
 985 1080 l 1
 1200 1080 l 1
 1040 0 l 1
 800 0 l 1
 617 638 l 1
 420 0 l 1
 180 0 l 1
443 1189 m 1
 555 1554 l 1
 841 1554 l 1
 611 1189 l 1
 443 1189 l 1
EndSplineSet
EndChar

StartChar: Wdieresis
Encoding: 382 7812 400
Width: 1409
Flags: W
LayerCount: 2
Fore
SplineSet
304 1645 m 1
 304 1900 l 1
 593 1900 l 1
 593 1645 l 1
 304 1645 l 1
816 1645 m 1
 816 1900 l 1
 1106 1900 l 1
 1106 1645 l 1
 816 1645 l 1
223 0 m 1
 17 1490 l 1
 274 1490 l 1
 367 503 l 1
 505 1490 l 1
 902 1490 l 1
 1038 509 l 1
 1135 1490 l 1
 1392 1490 l 1
 1183 0 l 1
 926 0 l 1
 701 975 l 1
 481 0 l 1
 223 0 l 1
EndSplineSet
EndChar

StartChar: wdieresis
Encoding: 383 7813 401
Width: 1222
Flags: W
LayerCount: 2
Fore
SplineSet
180 0 m 1
 22 1080 l 1
 255 1080 l 1
 341 414 l 1
 438 1080 l 1
 809 1080 l 1
 890 401 l 1
 985 1080 l 1
 1200 1080 l 1
 1040 0 l 1
 800 0 l 1
 617 638 l 1
 420 0 l 1
 180 0 l 1
214 1189 m 1
 214 1444 l 1
 503 1444 l 1
 503 1189 l 1
 214 1189 l 1
726 1189 m 1
 726 1444 l 1
 1016 1444 l 1
 1016 1189 l 1
 726 1189 l 1
EndSplineSet
EndChar

StartChar: Ygrave
Encoding: 384 7922 402
Width: 1204
Flags: W
LayerCount: 2
Fore
SplineSet
632 1563 m 1
 403 1928 l 1
 689 1928 l 1
 802 1563 l 1
 632 1563 l 1
340 0 m 1
 340 492 l 1
 -1 1490 l 1
 347 1490 l 1
 598 835 l 1
 689 1050 782 1275 873 1490 c 1
 1206 1490 l 1
 668 492 l 1
 668 0 l 1
 340 0 l 1
EndSplineSet
EndChar

StartChar: ygrave
Encoding: 385 7923 403
Width: 954
Flags: W
LayerCount: 2
Fore
SplineSet
228 97 m 0
 228 340 43 947 15 1080 c 1
 309 1080 l 1
 490 477 l 1
 648 1080 l 1
 945 1080 l 1
 683 -29 l 1
 609 -223 338 -257 108 -257 c 2
 72 -257 l 1
 72 -65 l 1
 184 -63 228 -14 228 97 c 0
279 1189 m 1
 50 1554 l 1
 336 1554 l 1
 449 1189 l 1
 279 1189 l 1
EndSplineSet
EndChar

StartChar: uni2074
Encoding: 422 8308 404
Width: 737
Flags: W
LayerCount: 2
Fore
SplineSet
59 697 m 1
 59 819 l 1
 401 1310 l 1
 562 1310 l 1
 562 828 l 1
 670 828 l 1
 670 697 l 1
 562 697 l 1
 562 482 l 1
 379 482 l 1
 379 697 l 1
 59 697 l 1
250 828 m 1
 379 828 l 1
 379 980 l 1
 250 828 l 1
EndSplineSet
EndChar

StartChar: Euro
Encoding: 402 8364 405
Width: 937
Flags: W
LayerCount: 2
Fore
SplineSet
6 425 m 1
 6 588 l 1
 63 588 l 1
 63 693 l 1
 6 693 l 1
 6 856 l 1
 65 856 l 1
 65 861 l 1
 77 1101 144 1310 425 1310 c 0
 785 1310 861 1101 864 858 c 1
 864 853 l 1
 624 853 l 1
 624 859 l 1
 623 938 600 1096 429 1096 c 0
 295 1096 300 963 299 861 c 1
 299 856 l 1
 463 856 l 1
 463 693 l 1
 299 693 l 1
 299 588 l 1
 463 588 l 1
 463 425 l 1
 301 425 l 1
 301 421 l 1
 306 326 313 195 435 195 c 0
 628 195 638 386 638 472 c 2
 638 477 l 1
 868 477 l 1
 868 470 l 1
 867 225 806 -22 431 -22 c 0
 148 -22 74 174 64 419 c 1
 64 425 l 1
 6 425 l 1
EndSplineSet
EndChar

StartChar: uniFB01
Encoding: 415 64257 406
Width: 1180
Flags: W
LayerCount: 2
Fore
SplineSet
117 0 m 1
 117 894 l 1
 54 894 l 1
 54 1080 l 1
 117 1080 l 1
 117 1088 118 1096 118 1104 c 0
 123 1272 154 1436 357 1436 c 0
 468 1436 643 1424 643 1424 c 1
 643 1216 l 1
 643 1216 540 1221 512 1221 c 0
 433 1221 396 1201 396 1130 c 2
 396 1080 l 1
 1102 1080 l 1
 1102 0 l 1
 823 0 l 1
 823 894 l 1
 396 894 l 1
 396 0 l 1
 117 0 l 1
823 1174 m 1
 823 1435 l 1
 1102 1435 l 1
 1102 1174 l 1
 823 1174 l 1
EndSplineSet
EndChar

StartChar: uniFB02
Encoding: 416 64258 407
Width: 1167
Flags: W
LayerCount: 2
Fore
SplineSet
810 0 m 1
 810 1216 l 1
 724 1218 564 1221 512 1221 c 0
 433 1221 396 1201 396 1130 c 2
 396 1080 l 1
 638 1080 l 1
 638 894 l 1
 396 894 l 1
 396 0 l 1
 117 0 l 1
 117 894 l 1
 54 894 l 1
 54 1080 l 1
 117 1080 l 1
 117 1088 118 1096 118 1104 c 0
 123 1272 162 1436 391 1436 c 0
 606 1436 857 1424 1088 1414 c 1
 1088 0 l 1
 810 0 l 1
EndSplineSet
EndChar

StartChar: uniFB00
Encoding: 414 64256 408
Width: 1244
Flags: W
LayerCount: 2
Fore
SplineSet
117 0 m 1
 117 894 l 1
 54 894 l 1
 54 1080 l 1
 117 1080 l 1
 117 1088 118 1096 118 1104 c 0
 123 1272 154 1436 357 1436 c 0
 468 1436 643 1424 643 1424 c 1
 643 1216 l 1
 643 1216 540 1221 512 1221 c 0
 433 1221 396 1201 396 1130 c 2
 396 1080 l 1
 816 1080 l 1
 816 1104 l 1
 821 1272 853 1436 1056 1436 c 0
 1135 1436 1232 1424 1232 1424 c 1
 1232 1216 l 1
 1232 1216 1175 1221 1159 1221 c 0
 1115 1221 1094 1201 1094 1130 c 2
 1094 1080 l 1
 1229 1080 l 1
 1229 894 l 1
 1094 894 l 1
 1094 0 l 1
 816 0 l 1
 816 894 l 1
 396 894 l 1
 396 0 l 1
 117 0 l 1
EndSplineSet
EndChar

StartChar: uniFB03
Encoding: 417 64259 409
Width: 1914
Flags: W
LayerCount: 2
Fore
SplineSet
117 0 m 1
 117 894 l 1
 54 894 l 1
 54 1080 l 1
 117 1080 l 1
 117 1088 118 1096 118 1104 c 0
 123 1272 154 1436 357 1436 c 0
 468 1436 643 1424 643 1424 c 1
 643 1216 l 1
 643 1216 540 1221 512 1221 c 0
 433 1221 396 1201 396 1130 c 2
 396 1080 l 1
 816 1080 l 1
 816 1104 l 1
 821 1272 853 1436 1056 1436 c 0
 1167 1436 1342 1424 1342 1424 c 1
 1342 1216 l 1
 1342 1216 1239 1221 1211 1221 c 0
 1132 1221 1094 1201 1094 1130 c 2
 1094 1080 l 1
 1835 1080 l 1
 1835 0 l 1
 1556 0 l 1
 1556 894 l 1
 1094 894 l 1
 1094 0 l 1
 816 0 l 1
 816 894 l 1
 396 894 l 1
 396 0 l 1
 117 0 l 1
1556 1174 m 1
 1556 1435 l 1
 1835 1435 l 1
 1835 1174 l 1
 1556 1174 l 1
EndSplineSet
EndChar

StartChar: uniFB04
Encoding: 424 64260 410
Width: 1927
Flags: W
LayerCount: 2
Fore
SplineSet
1570 0 m 1
 1570 1217 l 1
 1497 1218 1397 1221 1361 1221 c 0
 1219 1221 1156 1201 1156 1130 c 2
 1156 1080 l 1
 1398 1080 l 1
 1398 894 l 1
 1156 894 l 1
 1156 0 l 1
 877 0 l 1
 877 894 l 1
 396 894 l 1
 396 0 l 1
 117 0 l 1
 117 894 l 1
 54 894 l 1
 54 1080 l 1
 117 1080 l 1
 117 1088 118 1096 118 1104 c 0
 123 1272 154 1436 357 1436 c 0
 468 1436 643 1424 643 1424 c 1
 643 1216 l 1
 643 1216 540 1221 512 1221 c 0
 433 1221 396 1201 396 1130 c 2
 396 1080 l 1
 877 1080 l 1
 877 1104 l 1
 882 1272 924 1436 1176 1436 c 0
 1383 1436 1617 1424 1848 1405 c 1
 1848 0 l 1
 1570 0 l 1
EndSplineSet
EndChar

